<svg width="207" height="477" viewBox="0 0 207 477" fill="none" xmlns="http://www.w3.org/2000/svg">
<path d="M0.0599976 256.592V247.84C0.0820686 240.302 3.06758 233.075 8.37203 227.719C10.9536 225.083 14.0338 222.987 17.4333 221.554C20.8328 220.12 24.4836 219.376 28.1731 219.367H42.7791V235.991H28.0732C26.5392 235.997 25.0216 236.307 23.6085 236.904C22.1954 237.501 20.9148 238.372 19.841 239.468C17.6311 241.696 16.3828 244.702 16.3644 247.84V256.592C16.3539 259.714 17.5743 262.715 19.7611 264.944C20.8312 266.045 22.1106 266.922 23.5243 267.523C24.9379 268.123 26.4573 268.435 27.9932 268.44H124.601C126.133 268.437 127.65 268.13 129.063 267.536C130.476 266.943 131.757 266.075 132.833 264.983C135.02 262.755 136.24 259.754 136.229 256.631V247.88C136.222 244.747 134.988 241.742 132.793 239.508C131.72 238.412 130.439 237.542 129.026 236.949C127.612 236.355 126.094 236.05 124.561 236.051H109.995V219.427H124.601C128.289 219.439 131.937 220.186 135.333 221.623C138.73 223.061 141.805 225.16 144.382 227.799C149.65 233.171 152.598 240.396 152.594 247.92V256.671C152.568 264.148 149.621 271.319 144.382 276.652C141.807 279.286 138.734 281.381 135.341 282.815C131.948 284.249 128.304 284.993 124.621 285.004H28.0732C24.4026 284.991 20.7712 284.25 17.3893 282.823C14.0074 281.396 10.9424 279.313 8.37203 276.692C3.12525 271.362 0.170854 264.191 0.139919 256.711" fill="white"/>
<path d="M19.841 360.672C20.9214 361.753 22.2049 362.61 23.6178 363.193C25.0306 363.776 26.5448 364.073 28.0731 364.069H150.236V380.673H0.57947V364.069H2.57756C0.873991 360.351 -0.00529321 356.309 2.39721e-05 352.22V343.468C0.0599208 335.956 3.06613 328.767 8.372 323.448C10.9509 320.808 14.0306 318.71 17.4306 317.276C20.8307 315.841 24.4829 315.1 28.173 315.096H136.469C137.316 313.587 138.358 312.197 139.566 310.96C141.299 309.185 143.368 307.774 145.653 306.81C147.939 305.845 150.393 305.347 152.874 305.345H201.287V321.949H152.874C152.545 321.954 152.22 322.023 151.919 322.153C151.617 322.284 151.344 322.472 151.115 322.708C150.656 323.185 150.404 323.825 150.416 324.487V331.72H28.0731C26.5372 331.725 25.0178 332.037 23.6042 332.637C22.1905 333.238 20.9111 334.114 19.841 335.216C17.628 337.426 16.3782 340.421 16.3643 343.548V352.3C16.3615 355.427 17.5804 358.431 19.7611 360.672H19.841Z" fill="white"/>
<path d="M64.4385 427.428V447.988C64.4385 452.084 67.1959 456.34 67.8752 456.34C68.9334 457.467 70.2076 458.37 71.6218 458.995C73.036 459.619 74.5614 459.953 76.1073 459.976H124.601C126.155 459.961 127.69 459.638 129.119 459.025C130.547 458.413 131.84 457.524 132.924 456.41C134.007 455.295 134.858 453.977 135.429 452.531C136 451.086 136.279 449.542 136.25 447.988C136.25 441.075 137.249 435.38 132.813 430.864C132.813 430.185 128.617 427.388 124.581 427.388L64.4385 427.428ZM28.0734 476.481C24.4 476.463 20.7669 475.715 17.3849 474.281C14.0028 472.847 10.9393 470.756 8.37225 468.129C-0.559188 459.037 0.140139 450.366 0.140139 439.296C0.11028 432.335 2.64055 425.606 7.24952 420.389C11.8585 415.172 18.2245 411.832 25.1362 411.003V410.823H150.236V427.448H146.78C152.774 433.542 152.534 440.595 152.534 448.048C152.561 455.519 149.638 462.7 144.4 468.028C139.161 473.356 132.032 476.401 124.561 476.501H76.1073C72.4202 476.495 68.7712 475.754 65.3744 474.32C61.9776 472.886 58.9014 470.787 56.3263 468.149C51.0304 462.777 48.0715 455.531 48.0942 447.988V427.428H28.1133C24.9849 427.443 21.9907 428.7 19.7879 430.922C17.5852 433.143 16.354 436.148 16.3646 439.276V447.988C16.3646 452.084 19.122 456.34 19.8013 456.34C20.8642 457.472 22.1448 458.377 23.5662 459.002C24.9877 459.627 26.5207 459.959 28.0734 459.976V476.481Z" fill="white"/>
<path d="M0.200005 123.659H150.316V140.263H76.5468V172.712H150.316V189.316H0.200005V172.712H60.2025V140.263H0.200005V123.659Z" fill="white"/>
<path d="M64.4384 77.0035H124.601C126.134 77.0048 127.652 76.6996 129.066 76.106C130.479 75.5124 131.76 74.6423 132.833 73.5469C133.926 72.4412 134.79 71.131 135.377 69.691C135.963 68.251 136.26 66.7096 136.25 65.1549V56.3633C136.252 53.2365 135.034 50.2322 132.853 47.9913C131.78 46.8959 130.499 46.0258 129.086 45.4322C127.672 44.8386 126.154 44.5334 124.621 44.5347H76.1073C74.5733 44.5405 73.0557 44.8508 71.6426 45.4476C70.2295 46.0444 68.9489 46.9158 67.8752 48.0113C65.6944 50.2522 64.4755 53.2564 64.4784 56.3833L64.4384 77.0035ZM114.97 93.6076H0.200005V77.0035H48.1541V56.3633C48.1626 48.8911 51.096 41.719 56.3262 36.3825C58.9014 33.7436 61.9776 31.6455 65.3743 30.2113C68.7711 28.7771 72.4201 28.0357 76.1073 28.0305H124.601C128.284 28.0417 131.928 28.7859 135.321 30.2199C138.714 31.6538 141.787 33.7487 144.362 36.3825C149.609 41.7146 152.569 48.8827 152.614 56.3633V65.1149C152.588 72.5916 149.641 79.7621 144.402 85.0958C141.827 87.7296 138.754 89.8245 135.361 91.2584C131.968 92.6923 128.324 93.4366 124.641 93.4478L114.97 93.6076ZM0.200005 0.0372925H201.287V16.6414H0.200005V0.0372925Z" fill="white"/>
<path d="M200.304 261.398C200.304 262.829 200.074 264.163 199.615 265.4C199.137 266.619 198.466 267.679 197.6 268.58C196.734 269.481 195.719 270.188 194.552 270.7C193.386 271.195 192.105 271.443 190.709 271.443C189.313 271.443 188.032 271.195 186.866 270.7C185.7 270.188 184.684 269.481 183.818 268.58C182.953 267.661 182.29 266.592 181.831 265.373C181.354 264.154 181.115 262.82 181.115 261.371C181.115 259.763 181.398 258.314 181.963 257.025C182.511 255.717 183.324 254.622 184.401 253.738L186.946 256.495C186.221 257.131 185.683 257.837 185.329 258.615C184.958 259.392 184.773 260.24 184.773 261.159C184.773 262.025 184.914 262.82 185.197 263.544C185.479 264.269 185.886 264.896 186.416 265.426C186.946 265.956 187.573 266.372 188.298 266.672C189.022 266.955 189.826 267.096 190.709 267.096C191.593 267.096 192.397 266.955 193.121 266.672C193.846 266.372 194.473 265.956 195.003 265.426C195.533 264.896 195.939 264.269 196.222 263.544C196.505 262.82 196.646 262.025 196.646 261.159C196.646 260.24 196.469 259.392 196.116 258.615C195.745 257.837 195.188 257.131 194.446 256.495L196.991 253.738C198.069 254.622 198.89 255.717 199.456 257.025C200.021 258.314 200.304 259.772 200.304 261.398Z" fill="white"/>
<path d="M199.986 246.847H183.951L184.932 245.866V252.757H181.433V236.67H184.932V243.561L183.951 242.606H199.986V246.847ZM199.986 233.974H181.433V225.943C181.433 224.282 181.707 222.851 182.255 221.65C182.785 220.448 183.553 219.52 184.561 218.867C185.568 218.213 186.769 217.886 188.165 217.886C189.543 217.886 190.736 218.213 191.743 218.867C192.75 219.52 193.528 220.448 194.075 221.65C194.605 222.851 194.87 224.282 194.87 225.943V231.588L192.936 229.68H199.986V233.974ZM193.413 229.68L191.372 231.588V226.182C191.372 224.857 191.089 223.867 190.524 223.213C189.958 222.56 189.172 222.233 188.165 222.233C187.14 222.233 186.345 222.56 185.78 223.213C185.214 223.867 184.932 224.857 184.932 226.182V231.588L182.891 229.68H193.413Z" fill="white"/>
<path d="M199.986 217.197L181.433 208.928V204.687L199.986 196.392V200.897L183.606 207.682V205.986L199.986 212.798V217.197ZM196.01 213.063L192.75 211.923V202.382L196.01 201.215V213.063ZM181.433 181.21V176.916H199.986V181.21H181.433ZM199.986 189.638V193.932H181.433V189.638H199.986ZM192.379 180.892V189.956H188.748V180.892H192.379ZM199.986 174.362L181.433 166.093V161.852L199.986 153.556V158.062L183.606 164.847V163.151L199.986 169.962V174.362ZM196.01 170.227L192.75 169.088V159.546L196.01 158.38V170.227ZM198.077 131.293H184.932V137.654L187.635 137.733C188.783 137.786 189.87 137.866 190.895 137.972C191.92 138.06 192.856 138.201 193.704 138.396C194.535 138.59 195.241 138.846 195.825 139.164C196.408 139.465 196.823 139.844 197.07 140.304L196.487 144.889C196.505 144.253 196.284 143.732 195.825 143.325C195.365 142.901 194.72 142.566 193.89 142.318C193.042 142.071 192.052 141.894 190.921 141.788C189.791 141.664 188.563 141.576 187.237 141.523L181.433 141.311V127.052H198.077V131.293ZM203.829 145.499L196.487 145.472V124.455H203.829V128.43H199.986V141.523H203.829V145.499ZM196.487 120.928C196.787 119.904 196.876 119.047 196.752 118.357C196.611 117.651 196.116 117.023 195.268 116.476L193.916 115.575L193.466 115.177L181.433 109.028V104.814L196.116 112.712C197.441 113.419 198.457 114.258 199.164 115.23C199.871 116.184 200.268 117.235 200.357 118.384C200.463 119.532 200.259 120.725 199.747 121.962L196.487 120.928ZM197.044 115.257L181.433 123.632V119.047L193.89 112.898L197.044 115.257Z" fill="white"/>
<path d="M196.487 88.5754L197.468 89.5295H181.433V85.2624H197.468L196.487 86.2695V78.4245L197.468 79.4316H181.433V75.1645H199.986V99.6538H181.433V95.3868H197.468L196.487 96.3674V88.5754ZM199.986 70.562H181.433V66.295H193.519L181.433 57.4428V53.4142H199.986V57.6548H187.926L199.986 66.507V70.562Z" fill="white"/>
</svg>
