<svg width="202" height="131" viewBox="0 0 202 131" fill="none" xmlns="http://www.w3.org/2000/svg">
<path fill-rule="evenodd" clip-rule="evenodd" d="M32.688 12.983C31.3493 12.5634 30.2903 10.4055 29.5311 9.26661C29.1452 8.54778 28.6757 7.8771 28.1324 7.26852C27.9555 7.13799 27.753 7.04636 27.5382 6.99965C27.3233 6.95293 27.1011 6.9522 26.8859 6.99749C26.6708 7.04278 26.4677 7.13307 26.29 7.26243C26.1122 7.39179 25.9638 7.55729 25.8546 7.74806C25.2951 9.0668 28.6719 16.2 28.592 17.9583L25.9145 15.7004C25.1552 14.9612 23.7366 12.983 22.8774 14.5416C22.5577 15.5606 23.8565 16.8394 24.4359 17.7785C25.0154 18.7176 25.7547 20.0962 26.2942 21.2551C28.4121 25.7508 30.1505 31.4254 33.1076 35.3416C38.8421 42.9144 38.8222 52.4452 43.8773 48.8487C45.0362 48.0295 45.8754 47.4101 46.9344 46.4909C47.9934 45.5718 49.2322 45.2122 49.1922 43.6736C49.1922 40.0371 46.9743 41.6755 50.0114 30.6461C51.3438 30.619 52.6241 30.1239 53.628 29.2475C53.628 29.2475 53.7279 29.2475 53.7478 29.3474L55.0666 31.805C55.4485 32.8721 55.6707 33.9898 55.726 35.1218C55.726 39.118 52.9886 43.6537 50.7108 46.5908C49.2793 48.0736 47.4796 49.1493 45.4958 49.7079C27.7328 56.861 4.2353 45.9714 2.11733 48.6089C1.23817 49.7079 3.15633 53.4243 3.83568 54.3434C5.41417 56.5413 10.3894 57.4804 13.2866 58.3396C18.6615 59.8581 24.1962 61.057 29.7309 62.1759C32.0903 62.5002 34.4312 62.947 36.7441 63.5146C34.7461 64.3139 23.2371 64.4737 20.3998 64.2939C15.3811 64.069 10.4088 63.2302 5.594 61.7963C3.17631 61.0969 0.558819 60.2378 0.319049 63.5146C0.11924 66.0522 2.31713 67.291 4.31522 68.1302C10.6491 70.8876 34.2865 71.9465 47.3939 76.9218C50.2712 78.0007 57.3844 78.74 61.3805 79.9988C66.3757 81.5174 70.6716 84.3746 73.8885 79.4993C74.9605 80.1288 75.9707 80.858 76.9057 81.6772C81.5612 84.7343 87.016 86.8523 92.7904 84.4346C95.0283 83.4955 93.8894 83.4156 96.6267 84.2148C99.3641 85.014 102.121 85.8732 104.899 86.6325C104.899 92.4669 105.858 94.9445 110.893 98.1614C112.891 99.3603 114.45 100.399 116.568 101.518C117.567 102.038 118.566 102.537 119.505 103.097C120.668 103.6 121.901 103.924 123.161 104.056C136.988 107.093 149.636 113.127 161.604 119.621C165.601 121.759 169.597 123.617 173.453 125.855C175.451 126.934 177.309 127.853 179.228 128.892C181.146 129.931 185.362 131.35 184.083 127.833C183.046 125.953 181.799 124.197 180.367 122.598L176.051 118.002C181.246 119.861 185.821 124.236 193.134 121.999C193.134 121.219 192.855 121.139 192.215 120.64C191.576 120.14 191.436 120.1 190.797 119.601L182.604 113.347L179.887 111.349C179.068 110.709 178.129 109.99 177.19 109.351C176.25 108.711 175.471 107.972 174.512 107.353C172.65 106.018 170.899 104.534 169.277 102.917C168.398 102.118 167.579 101.558 166.76 100.719C165.361 99.3203 163.403 96.8427 161.525 96.2832C159.167 95.5639 156.09 95.7238 153.292 94.9045C150.93 94.1948 148.667 93.1877 146.559 91.9074C146.559 89.1301 146.839 86.4726 146.559 83.5754C146.317 80.8934 145.937 78.2258 145.42 75.5831C151.414 75.8628 163.623 75.8029 168.878 77.741C173.192 79.3493 176.98 82.1145 179.827 85.7333C180.347 86.3527 180.866 86.7124 181.366 87.3318L184.403 90.5687C186.8 93.2861 193.933 100.559 197.53 99.3003C200.567 98.2813 196.631 92.1672 195.952 90.5687C194.559 87.635 193.384 84.6031 192.435 81.4974C193.879 82.2087 195.262 83.0373 196.571 83.975C197.95 84.8742 199.168 86.2129 200.987 84.8742C201.906 83.4555 198.649 80.7781 197.75 79.799C195.112 76.9418 191.915 74.0845 189.298 71.2073L185.202 66.8314C182.644 64.3139 179.327 60.1978 175.871 59.2787C173.293 58.5794 162.364 58.6193 159.007 58.6393C158.088 54.803 152.213 58.6393 150.056 59.5984C146.979 61.057 143.742 62.6954 140.665 63.9542C138.666 62.3957 139.126 60.9371 135.29 58.6193C130.055 55.4623 122.062 56.6212 116.068 55.6422C112.771 55.0827 109.794 54.5432 106.597 53.9038C103.4 53.2644 96.9265 52.1255 94.8085 49.3282C94.0922 47.8584 93.7883 46.2217 93.9293 44.5928C93.2328 40.2869 92.0808 36.0672 90.4926 32.0048C89.8783 30.6592 89.364 29.2701 88.9541 27.8488C90.153 28.5282 90.5326 29.5072 92.0112 29.6671C93.4898 29.8269 94.4089 28.8678 94.2091 27.3493C93.9893 25.4511 90.4926 20.356 89.1939 18.3779C88.5776 17.4493 87.9105 16.5555 87.1958 15.7004L78.8638 5.01068C77.0855 2.63296 76.0265 2.43316 72.2901 1.87369C67.8943 1.2343 59.902 -1.22334 59.4824 5.01068C59.4824 5.13057 59.4824 5.59013 59.4824 5.65008C59.4824 6.16958 59.4824 5.88985 59.3025 6.1496C59.0827 5.78994 59.2026 6.1496 59.1227 5.65008C58.3035 0.115379 58.1436 0.714803 51.47 0.914612L31.8488 1.41413C26.0544 1.53402 28.4321 4.31136 31.4692 10.8251C31.8811 11.5694 32.3347 12.2899 32.8279 12.983M29.3312 2.67292C30.9097 2.0735 49.7117 1.87369 53.9876 1.75381C55.1265 1.75381 56.9648 1.29425 57.4843 2.37321C57.8824 3.38887 58.0331 4.48472 57.9238 5.57015C56.6651 6.18956 37.943 12.2238 36.1048 12.4635C35.3337 12.6962 34.5021 12.6173 33.7886 12.2437C33.0751 11.8701 32.5365 11.2317 32.2884 10.4655C31.5891 9.28659 28.9116 3.91174 29.1914 2.67292H29.3312ZM60.4814 5.67005C59.7621 0.195299 66.9352 2.03354 70.6716 2.55304C77.8248 3.57206 76.6659 3.73191 80.1625 8.20762C84.7861 13.6782 88.9433 19.5264 92.5906 25.6909C94.1092 28.1885 92.9902 29.9868 90.7724 28.0886L86.976 24.4521C84.2186 21.9145 81.721 18.4578 79.6231 16.7794C76.6508 14.4184 73.2621 12.636 69.6326 11.5244C67.8673 10.912 66.1831 10.0867 64.6174 9.0668C63.0389 7.84797 60.6013 7.56823 60.3415 5.67005H60.4814ZM26.8936 7.92789C27.9526 8.0278 28.8917 9.92597 29.9307 11.5244C30.2903 12.0439 30.61 12.3237 31.0296 12.8632C32.3807 14.8125 34.4373 16.1597 36.7641 16.6196C40.7603 17.8983 46.275 20.2561 48.8925 23.2532C50.451 25.0315 49.5718 28.0686 49.0523 30.4064C48.2731 33.943 46.8145 38.3987 47.7536 42.0352C48.393 44.5928 48.9524 44.0333 44.5966 47.1703C41.1999 49.6479 41.5396 49.8078 39.1418 44.5328C38.3626 42.8344 37.5634 41.3559 36.8041 39.7374C36.0448 38.119 35.1057 36.7802 34.3065 35.1218C33.4766 33.5201 32.8073 31.8402 32.3084 30.1066C31.2094 26.2304 31.3693 22.374 30.0106 18.5177C29.3512 16.9992 26.434 8.76709 26.8936 7.92789ZM50.2912 29.727C50.7108 25.3312 52.6489 23.433 45.0162 19.0572C42.1477 17.377 39.0522 16.1186 35.825 15.3208C34.9059 15.0211 33.5472 14.5615 33.3074 13.5425C33.807 13.2828 36.3046 13.5425 37.5634 13.1829L56.5851 7.1886C58.5832 6.48927 58.5832 6.84893 60.1817 7.76804C61.3257 8.30386 62.4278 8.92502 63.4785 9.62626C63.1257 10.5486 62.7049 11.4436 62.2197 12.3037C60.3016 16.5996 55.4262 29.1875 50.2912 29.727ZM64.3777 10.3256C69.3928 12.3237 76.3662 15.0011 79.8029 18.4578C81.801 20.4559 83.3794 22.5739 85.4774 24.4521C87.4044 26.6357 88.7209 29.2893 89.2938 32.1447L86.1168 31.9049C81.094 22.8874 73.0056 15.9686 63.3187 12.4036L64.3777 10.3256ZM23.7366 14.9412C24.6358 15.6962 25.4961 16.4965 26.3141 17.3389C27.6728 18.6776 28.8917 18.9773 29.2713 19.7765C30.01 22.8108 30.5176 25.8967 30.7899 29.0077C30.7899 29.0077 30.7898 28.8079 30.67 28.8279C30.5501 28.8478 30.67 28.8279 30.67 28.688C30.5602 28.5346 30.4728 28.3664 30.4102 28.1885C27.8726 23.0534 27.9326 21.1752 23.7366 14.9412ZM54.5271 28.6081L56.9048 25.1714C59.2156 21.381 61.2201 17.4122 62.8991 13.3027C65.3993 14.2283 67.8074 15.3856 70.0922 16.7594C71.2111 17.4588 72.0903 17.9982 73.2292 18.7575C76.2759 20.9667 78.9938 23.5971 81.3014 26.57C82.6624 28.3683 83.9295 30.2357 85.0978 32.1647C85.8171 33.2237 86.6563 32.9239 89.7134 33.2436C90.3528 35.0819 92.9503 42.7745 92.7305 44.333C92.3708 46.7907 89.9132 45.9315 87.7553 45.6118C81.6012 44.6927 73.389 44.8525 66.8553 44.0333C58.3035 42.9543 58.6232 41.6556 55.5062 40.5167C55.666 39.4777 56.1056 38.7583 56.3653 37.6394C57.3244 33.7432 55.8059 31.3654 54.5271 28.6081ZM52.6489 52.0656L50.6508 48.0694C52.5534 46.116 54.0537 43.8078 55.0666 41.2759C55.9258 41.6356 56.8449 42.295 57.8839 42.7745C65.8762 46.431 79.0436 44.7726 84.9979 46.391C77.3053 49.528 61.0409 51.8658 52.6489 52.0656ZM49.4919 76.702C49.4919 73.9246 47.4938 71.8866 45.8554 69.8685L41.3997 63.8743C43.6843 62.5497 45.8095 60.9675 47.7336 59.1588C49.6297 57.3813 51.2885 55.3666 52.6689 53.1645C63.0532 52.7072 73.3413 50.969 83.2995 47.9895C90.2529 45.9914 86.1168 46.7507 90.3128 46.9705C91.9912 47.0704 91.7714 46.7906 93.0302 46.4909C93.0743 47.724 93.4098 48.9291 94.0093 50.0076C87.7686 51.9269 82.0531 55.2563 77.3053 59.7382C75.0013 61.8447 72.8386 64.1008 70.8315 66.4918C67.5546 70.7277 68.8334 68.7896 62.6193 71.8466C59.5423 73.3452 53.4481 76.7619 49.4919 76.702ZM2.79667 49.0685C5.93367 48.9486 10.3694 50.4671 13.5863 51.0666C17.3427 51.7259 20.9193 52.2654 24.7956 52.725C30.0705 53.3244 31.5092 52.4852 35.0458 55.2026C36.4049 56.0774 37.5443 57.2533 38.3759 58.6393C39.2075 60.0253 39.7089 61.5841 39.8412 63.1949C29.2648 61.5283 18.8165 59.1315 8.57114 56.0218C6.57305 55.4623 5.47411 55.1227 4.57497 53.724C3.64755 52.3216 3.0404 50.7321 2.79667 49.0685ZM40.8802 62.7553C40.6604 58.0998 36.7841 55.1227 34.1267 53.2245C37.0276 53.0474 39.8977 52.5311 42.6785 51.686C45.8154 50.7668 48.8725 49.1484 49.9515 48.8487C51.1304 52.705 53.8078 51.2863 48.4529 56.9409C46.3077 59.3283 43.7405 61.2994 40.8802 62.7553ZM112.512 65.5127C103.979 65.5805 95.6723 68.2656 88.7143 73.2053C86.6955 74.6519 84.9213 76.4126 83.4594 78.4203C85.2177 81.2177 90.8523 82.4165 92.9503 83.3356C86.0169 86.7923 79.5631 82.8161 74.9675 79.0198C73.6488 77.9608 75.1274 78.4603 73.2691 75.8228C71.8731 73.8474 70.6878 71.7312 69.7325 69.5089C70.473 68.4632 71.2667 67.4562 72.1103 66.4918C72.9694 65.4128 73.8686 64.6735 74.6678 63.6745C78.2063 59.8349 82.3341 56.5838 86.8961 54.0437C89.4095 52.6344 92.0964 51.5596 94.8884 50.8468C95.5874 51.3234 96.3147 51.7571 97.0663 52.1455C101.662 54.2635 111.572 55.9019 116.528 56.6812C115.384 59.7098 114.042 62.66 112.512 65.5127ZM141.963 66.7515L141.044 64.8733C141.863 64.214 147.518 61.7163 148.837 61.1169C150.555 60.3177 155.53 57.5603 157.408 57.88C158.068 58.5594 157.888 58.919 158.487 59.4585C159.087 59.998 172.474 59.4585 174.832 59.958C179.447 60.8971 181.186 64.7335 184.163 67.271C186.381 69.1492 193.554 77.1216 196.511 79.839C197.217 80.4639 197.884 81.1311 198.509 81.8371C199.208 82.6363 200.367 83.0759 200.048 84.3946C198.849 84.3946 193.874 81.0578 192.575 80.2586C192.25 80.1155 191.957 79.9068 191.717 79.6455C191.476 79.3841 191.292 79.0759 191.176 78.74C190.863 78.1076 190.502 77.4998 190.097 76.9218C189.303 75.7641 188.325 74.7448 187.2 73.9047C184.601 72.0863 181.583 70.9586 178.428 70.6278C175.122 70.0823 171.848 69.362 168.618 68.4699C170.583 68.057 172.437 67.2256 174.053 66.0322C174.053 64.3538 173.073 64.0341 171.575 63.5746C170.076 63.115 168.858 62.7953 167.419 62.4756C160.306 60.9771 156.689 62.8553 150.255 64.6136C147.578 65.3329 144.501 66.272 141.963 66.7915V66.7515ZM40.2408 64.2539C41.6395 65.7525 45.276 70.8676 46.8744 72.8257C47.7089 73.8177 48.2733 75.0084 48.5129 76.2824C46.8681 75.8943 45.2577 75.3731 43.6975 74.7239C31.5092 71.1273 12.1277 69.9684 4.97459 67.4908C0.978417 66.1121 0.698688 63.2549 1.77765 62.3158C2.49696 61.7164 3.77574 62.3158 4.47507 62.5156C14.1282 65.3573 24.2681 66.1535 34.2465 64.8533C36.2331 64.5517 38.2338 64.3517 40.2408 64.2539ZM108.515 78.3404C109.585 74.5071 111.023 70.7866 112.811 67.2311C113.531 65.5926 114.53 63.8743 115.329 62.1759C116.02 60.3608 116.828 58.5921 117.747 56.881C122.699 56.7557 127.647 57.2592 132.472 58.3795C134.315 59.0336 135.989 60.0904 137.371 61.473C138.754 62.8556 139.811 64.5292 140.465 66.3719C137.088 65.7924 135.25 64.5536 130.195 65.0931C124.32 65.8692 118.831 68.4527 114.49 72.486L109.954 76.742C109.536 77.3268 109.053 77.863 108.515 78.3404ZM166.14 68.8295C168.145 69.608 170.239 70.1316 172.374 70.388C175.152 70.9475 182.644 72.3861 184.742 73.525C190.137 76.682 191.256 81.4175 193.714 87.3118C194.493 89.1501 195.252 90.7485 196.071 92.5268C196.891 94.3051 198.249 96.0634 197.59 98.1814C194.393 98.7808 188.139 93.0463 186.221 90.9284L181.745 85.9931C181.366 85.5735 180.986 85.3137 180.606 84.8742C180.227 84.4346 179.967 84.0549 179.467 83.5554C168.558 72.9056 161.804 75.5631 145.3 74.4042C144.081 70.8076 142.862 69.0094 142.423 67.7306C145.62 66.8314 148.757 66.0122 151.934 65.173C158.228 63.4747 160.565 61.8562 167.918 63.6545C169.297 63.9742 172.174 64.4337 172.874 65.6526C171.875 67.0712 166.58 67.1711 166.14 68.8295ZM105.278 85.7933C102.141 85.2538 97.2861 83.4955 94.3689 82.6563C89.6135 81.2376 88.1349 81.0378 84.7581 78.5202C86.1562 76.6846 87.8273 75.0741 89.7134 73.7448C94.7486 69.8885 106.218 65.8923 111.912 66.7116C109.803 71.1949 108.033 75.8301 106.617 80.5783C106.074 82.2902 105.627 84.0312 105.278 85.7933ZM68.8534 70.1483C71.2311 76.4023 74.6278 77.3414 72.5498 79.759C69.6126 83.1758 65.5965 80.2985 61.2607 79.0797C58.5312 78.3306 55.7631 77.7302 52.9686 77.2814C56.2654 75.7829 56.9648 75.7229 60.9609 73.7448C63.5262 72.407 66.1607 71.2064 68.8534 70.1483ZM145.58 91.7076C138.571 92.964 131.819 95.3744 125.599 98.8408L121.603 101.618C121.178 101.957 120.716 102.246 120.224 102.477C117.127 100.979 109.275 96.9226 107.277 93.6857C104.699 89.6895 106.218 85.9731 107.277 82.2367C108.016 79.6592 115.549 72.8057 118.086 71.0674C122.991 67.3456 129.125 65.6246 135.25 66.252C141.524 67.0712 141.724 67.9304 143.602 72.546C145.959 78.4203 145.959 85.4936 145.58 91.7076ZM129.915 97.7019C134.21 95.7875 138.689 94.3146 143.282 93.3061C145.78 92.7466 145.74 92.4269 147.918 93.6258C156.669 98.5011 160.126 94.9445 163.543 98.7209L166.56 101.738C167.139 102.257 167.639 102.557 168.158 103.077L174.472 108.472C178.908 111.968 183.464 115.085 188.079 118.742C189.218 119.641 190.337 120.32 191.476 121.359L190.477 121.639C190.017 121.639 189.478 121.639 189.018 121.639C186.213 121.565 183.468 120.803 181.026 119.421C178.608 118.162 176.51 117.423 173.933 116.084C165.421 112.088 153.173 105.235 143.302 105.115C141.304 105.115 138.087 102.697 136.329 101.678L130.334 98.0216C130.184 97.9073 130.044 97.7803 129.915 97.6419V97.7019ZM128.816 98.4012L141.244 105.674C141.843 106.214 141.883 107.233 142.323 107.932C142.763 108.631 143.202 109.111 143.622 109.93C140.904 108.991 137.248 107.293 133.352 105.934C129.559 104.711 125.704 103.691 121.803 102.877C122.849 101.987 123.957 101.172 125.119 100.439C126.247 99.5703 127.492 98.8641 128.816 98.3412V98.4012ZM142.643 106.154C151.654 106.154 164.861 112.468 172.454 116.504C175.411 118.753 178.094 121.341 180.446 124.216C181.326 125.215 183.603 128.013 183.164 129.352C181.286 129.491 174.392 125.355 172.434 124.396C165.561 120.76 158.448 116.983 151.374 113.527C149.716 112.707 147.498 111.868 145.939 111.009C145.2 110.609 145.48 110.669 144.98 109.97C143.915 108.874 143.115 107.548 142.643 106.094V106.154Z" fill="white"/>
<path fill-rule="evenodd" clip-rule="evenodd" d="M145.58 91.7075C145.959 85.5134 145.959 78.4202 143.581 72.5459C141.703 67.9303 141.583 67.0711 135.229 66.2519C129.085 65.6089 122.926 67.3308 118.006 71.0673C115.468 72.8056 108.016 79.6591 107.196 82.2366C106.137 85.973 104.619 89.6495 107.196 93.6856C109.194 96.9225 117.187 100.979 120.284 102.477C120.775 102.246 121.238 101.957 121.662 101.618L125.659 98.8407C131.879 95.3743 138.631 92.9639 145.639 91.7075" fill="#E15935"/>
<path fill-rule="evenodd" clip-rule="evenodd" d="M54.5269 28.608C55.8056 31.3653 57.3841 33.743 56.5249 37.6393C56.2652 38.7582 55.8256 39.4776 55.6658 40.5166C58.7828 41.6555 58.4631 42.9542 67.0149 44.0332C73.5486 44.8524 81.7608 44.6926 87.9149 45.6117C90.0728 45.9314 92.5304 46.7905 92.8901 44.3329C93.1099 42.7744 90.5124 35.0818 89.873 33.2435C86.8159 32.9238 85.8768 33.2435 85.2574 32.1646C84.0892 30.2355 82.822 28.3682 81.4611 26.5699C79.1138 23.6027 76.3553 20.9855 73.2689 18.7974C72.2099 17.9981 71.2708 17.4586 70.1319 16.7993C67.8471 15.4254 65.439 14.2682 62.9388 13.3426C61.2598 17.452 59.2553 21.4208 56.9445 25.2112L54.5269 28.608Z" fill="#F7C205"/>
<path fill-rule="evenodd" clip-rule="evenodd" d="M112.512 65.5129C114.038 62.6402 115.373 59.6699 116.508 56.6214C111.552 55.8421 101.642 54.2037 97.0463 52.0857C96.2947 51.6973 95.5674 51.2636 94.8684 50.787C92.0764 51.4999 89.3895 52.5746 86.8761 53.9839C82.3141 56.524 78.1862 59.7751 74.6478 63.6147C73.8486 64.6137 72.9494 65.353 72.0902 66.432C71.2518 67.4163 70.4648 68.4434 69.7325 69.509C70.6586 71.7487 71.8172 73.8851 73.1892 75.8829C75.0474 78.5204 73.5688 78.0209 74.8876 79.0799C79.5631 82.8762 86.0169 86.8524 92.8703 83.3957C90.8722 82.5565 85.1377 81.2778 83.3794 78.4804C84.8414 76.4727 86.6155 74.712 88.6344 73.2654C95.6076 68.2888 103.945 65.5818 112.512 65.5129Z" fill="#DC2C24"/>
<path fill-rule="evenodd" clip-rule="evenodd" d="M49.492 76.7021C53.4882 76.7021 59.4824 73.3453 62.5595 71.8467C68.7335 68.7897 67.4947 70.7278 70.7716 66.4919C72.798 64.0989 74.9807 61.8428 77.3053 59.7383C82.0647 55.2511 87.7943 51.9214 94.0493 50.0077C93.4498 48.9292 93.1143 47.7241 93.0702 46.491C91.8114 46.7907 92.0312 47.0705 90.3528 46.9706C86.1568 46.7508 90.3528 45.8916 83.3395 47.9896C73.3844 50.9404 63.1032 52.6517 52.7289 53.0847C51.3485 55.2868 49.6897 57.3015 47.7936 59.079C45.8331 60.9022 43.6673 62.4914 41.3398 63.8144L45.7955 69.8087C47.434 71.8068 49.3721 73.8049 49.432 76.6421" fill="#E15935"/>
<path fill-rule="evenodd" clip-rule="evenodd" d="M166.14 68.8296C166.58 67.1712 171.874 67.0713 172.913 65.5527C172.214 64.4338 169.337 63.9742 167.958 63.5546C160.565 61.7564 158.228 63.3748 151.974 65.0732C148.797 65.9124 145.66 66.7316 142.463 67.6307C142.902 68.9095 144.121 70.7078 145.34 74.3043C161.844 75.5032 168.598 72.8058 179.507 83.4556C180.007 83.9551 180.186 84.2548 180.646 84.7743C181.106 85.2938 181.405 85.4736 181.785 85.8932L186.261 90.8285C188.259 92.9465 194.433 98.681 197.63 98.0816C198.289 95.9636 196.91 94.0854 196.111 92.427C195.312 90.7686 194.533 89.0502 193.753 87.212C191.296 81.2177 190.177 76.5822 184.782 73.4252C182.784 72.1864 175.191 70.8477 172.414 70.2882C170.279 70.0318 168.184 69.5082 166.18 68.7297" fill="#35317B"/>
<path fill-rule="evenodd" clip-rule="evenodd" d="M129.915 97.6419C130.03 97.7786 130.157 97.9056 130.294 98.0215L136.288 101.678C138.047 102.697 141.344 105.095 143.262 105.115C153.132 105.235 165.381 112.008 173.892 116.084C176.47 117.323 178.568 118.082 180.986 119.421C183.428 120.803 186.172 121.565 188.978 121.639C189.437 121.639 189.977 121.639 190.437 121.639L191.436 121.359C190.297 120.32 189.178 119.641 188.039 118.742C183.423 115.085 178.868 111.968 174.432 108.472L168.118 103.077C167.598 102.557 167.099 102.257 166.519 101.738L163.502 98.7209C160.086 94.9445 156.629 98.5011 147.877 93.6257C145.699 92.4269 145.739 92.7466 143.242 93.306C138.649 94.3146 134.17 95.7874 129.875 97.7018" fill="#F7C205"/>
<path fill-rule="evenodd" clip-rule="evenodd" d="M29.9303 11.5644C28.8513 10.0459 27.9322 8.0678 26.8932 7.9679C26.4336 8.80709 29.3908 17.0392 29.9103 18.5577C31.269 22.414 31.1092 26.2704 32.2081 30.1466C32.707 31.8802 33.3763 33.5601 34.2062 35.1618C35.0054 36.8202 35.9645 38.2189 36.7038 39.7774C37.4431 41.3359 38.2623 42.8744 39.0416 44.5728C41.4393 49.8478 41.0397 49.6879 44.4963 47.2103C48.8522 44.0333 48.2927 44.6328 47.6533 42.0752C46.7142 38.3588 48.1728 34.0829 48.9521 30.4464C49.4716 28.1086 50.3507 25.0715 48.7922 23.2932C46.1747 20.2961 40.7 17.9383 36.6638 16.6596C34.337 16.1997 32.2804 14.8525 30.9293 12.9032C30.5097 12.3637 30.1901 12.0839 29.8304 11.5644" fill="#F7C205"/>
<path fill-rule="evenodd" clip-rule="evenodd" d="M105.278 85.7933C105.659 84.0293 106.139 82.2882 106.717 80.5783C108.132 75.8302 109.902 71.1949 112.012 66.7116C106.317 65.8924 94.8481 69.8886 89.8129 73.7449C87.9269 75.0741 86.2557 76.6846 84.8577 78.5203C88.2344 81.0379 89.713 81.2377 94.4685 82.6563C97.2857 83.4955 102.141 85.2539 105.278 85.7933Z" fill="#F7C205"/>
<path fill-rule="evenodd" clip-rule="evenodd" d="M50.2912 29.727C55.4263 29.1875 60.2816 16.5996 62.2797 12.2837C62.7462 11.4089 63.1469 10.5006 63.4785 9.56629C62.4278 8.86505 61.3257 8.24389 60.1817 7.70807C58.5433 6.78895 58.6632 6.4293 56.5851 7.12863L37.5634 13.1229C36.3046 13.4825 33.807 13.1229 33.3074 13.4825C33.5472 14.5016 34.9059 14.9611 35.825 15.2608C39.0522 16.0586 42.1477 17.317 45.0162 18.9973C52.6489 23.3731 50.7108 25.2712 50.2912 29.667" fill="#DC2C24"/>
<path fill-rule="evenodd" clip-rule="evenodd" d="M1.77731 62.3159C0.698345 63.255 0.958093 66.1123 4.97424 67.4909C12.1274 69.9686 31.5088 71.1274 43.6971 74.724C45.2574 75.3732 46.8678 75.8944 48.5125 76.2825C48.2729 75.0085 47.7086 73.8179 46.8741 72.8258C45.2756 70.8277 41.6391 65.7526 40.2405 64.254C38.2335 64.3518 36.2328 64.5518 34.2462 64.8535C24.2678 66.1536 14.1279 65.3574 4.47472 62.5157C3.69547 62.2759 2.47664 61.7165 1.77731 62.3159Z" fill="#F7C205"/>
<path fill-rule="evenodd" clip-rule="evenodd" d="M141.963 66.7917C144.501 66.2722 147.578 65.3331 150.175 64.6138C156.609 62.8555 160.166 60.9773 167.339 62.4758C168.777 62.7955 170.116 63.1552 171.495 63.5748C172.874 63.9944 173.992 64.354 173.973 66.0324C172.357 67.2258 170.503 68.0572 168.538 68.4701C171.768 69.3622 175.042 70.0825 178.348 70.628C181.53 70.9456 184.578 72.0738 187.2 73.9049C188.347 74.7717 189.34 75.8254 190.137 77.0219C190.542 77.5999 190.903 78.2077 191.216 78.8401C191.332 79.176 191.516 79.4842 191.757 79.7456C191.997 80.0069 192.289 80.2156 192.615 80.3587C193.913 81.1579 198.889 84.5946 200.087 84.4947C200.407 83.176 199.248 82.7364 198.549 81.9372C197.924 81.2312 197.257 80.564 196.551 79.9391C193.594 77.2217 186.421 69.2493 184.203 67.3711C181.226 64.8336 179.487 60.9972 174.872 60.0581C172.414 59.5586 159.347 59.9183 158.527 59.5586C157.708 59.199 158.108 58.6595 157.448 57.9801C155.57 57.6604 150.595 60.4178 148.877 61.217C147.558 61.8165 141.903 64.3141 141.084 64.9734L141.963 66.7917Z" fill="#DC2C24"/>
<path fill-rule="evenodd" clip-rule="evenodd" d="M60.3416 5.66998C60.6013 7.66806 63.039 7.84789 64.5576 9.06672C66.1213 10.1005 67.8055 10.9393 69.5728 11.5643C73.2022 12.6758 76.5909 14.4583 79.5632 16.8193C81.5613 18.4777 84.1588 21.9544 86.9161 24.4919L90.7125 28.1285C92.9304 30.0266 94.0493 28.1285 92.5308 25.7308C88.8834 19.5662 84.7262 13.7181 80.1027 8.24751C76.646 3.7718 77.7649 3.61195 70.6118 2.59293C66.8753 2.07343 59.7022 0.235189 60.4215 5.70994" fill="#35317B"/>
<path fill-rule="evenodd" clip-rule="evenodd" d="M142.643 106.094C143.123 107.526 143.923 108.831 144.98 109.91C145.48 110.609 145.2 110.55 145.939 110.949C147.498 111.808 149.716 112.648 151.374 113.467C158.487 116.923 165.561 120.7 172.434 124.336C174.432 125.375 181.286 129.431 183.164 129.292C183.603 127.953 181.326 125.156 180.446 124.157C178.094 121.281 175.411 118.693 172.454 116.444C164.861 112.448 151.654 106.134 142.643 106.094Z" fill="#DC2C24"/>
<path fill-rule="evenodd" clip-rule="evenodd" d="M24.7956 52.6851C20.9193 52.2256 17.3427 51.6861 13.5863 51.0267C10.3694 50.4672 5.93365 49.0286 2.79665 49.0286C3.02826 50.689 3.62168 52.2783 4.53499 53.6842C5.47409 55.0828 6.53308 55.4225 8.53116 55.982C18.7799 59.0444 29.2282 61.3944 39.8012 63.0152C39.6689 61.4043 39.1675 59.8455 38.3359 58.4596C37.5044 57.0736 36.3649 55.8977 35.0058 55.0229C31.4692 52.3055 30.0306 53.1447 24.7556 52.5453" fill="#DC2C24"/>
<path fill-rule="evenodd" clip-rule="evenodd" d="M108.515 78.3404C109.069 77.8913 109.572 77.382 110.014 76.8219L114.549 72.566C118.891 68.5327 124.379 65.9491 130.254 65.1731C135.309 64.6336 137.148 65.8724 140.524 66.4518C139.87 64.6092 138.814 62.9356 137.431 61.553C136.048 60.1704 134.375 59.1135 132.532 58.4595C127.707 57.3392 122.758 56.8356 117.806 56.9609C116.849 58.6431 116.002 60.385 115.269 62.1759C114.469 63.8743 113.47 65.5927 112.751 67.2311C110.963 70.7866 109.525 74.5071 108.455 78.3404" fill="#3BAA82"/>
<path fill-rule="evenodd" clip-rule="evenodd" d="M29.1912 2.67293C28.9115 3.91174 31.5889 9.28659 32.2882 10.6653C32.5363 11.4315 33.0749 12.0699 33.7884 12.4435C34.502 12.8171 35.3335 12.896 36.1046 12.6634C37.9228 12.4236 56.6649 6.38937 57.9237 5.76996C58.0158 4.60517 57.8095 3.43611 57.3242 2.37321C56.8047 1.29425 54.9665 1.73383 53.8276 1.75381C49.5517 1.87369 30.7497 2.0735 29.1712 2.67293" fill="#E15935"/>
<path fill-rule="evenodd" clip-rule="evenodd" d="M52.6487 52.0657C61.0407 51.8659 77.365 49.4482 84.9178 46.4111C78.9235 44.8926 65.7162 46.4111 57.8038 42.7946C56.7648 42.315 55.8057 41.6557 54.9865 41.296C53.9737 43.8278 52.4733 46.136 50.5707 48.0895L52.6487 52.0657Z" fill="#DC2C24"/>
<path fill-rule="evenodd" clip-rule="evenodd" d="M68.853 70.1483C66.1264 71.2032 63.4585 72.4038 60.8607 73.7449C56.8645 75.743 56.2451 75.743 52.8683 77.2815C55.6629 77.7303 58.431 78.3306 61.1604 79.0798C65.4962 80.2986 69.5124 83.0759 72.4495 79.7591C74.4476 77.3414 71.1308 76.4023 68.7531 70.1483" fill="#35317B"/>
<path fill-rule="evenodd" clip-rule="evenodd" d="M40.88 62.7553C43.7404 61.2994 46.3076 59.3282 48.4528 56.9409C53.8076 51.2863 51.1302 52.7049 49.9513 48.8486C48.8724 49.1483 45.8153 50.8467 42.6783 51.6859C39.8976 52.531 37.0274 53.0474 34.1265 53.2244C36.7839 55.1226 40.6602 58.0998 40.88 62.7553Z" fill="#3BAA82"/>
<path fill-rule="evenodd" clip-rule="evenodd" d="M63.3187 12.4037C73.0205 15.9606 81.1241 22.8802 86.1568 31.9051L89.2938 32.1448C88.7037 29.2833 87.3662 26.6292 85.4175 24.4522C83.4195 22.574 81.781 20.456 79.743 18.458C76.3063 15.0013 69.333 12.2439 64.3178 10.3257L63.3187 12.4037Z" fill="#E15935"/>
<path fill-rule="evenodd" clip-rule="evenodd" d="M128.816 98.3412C127.469 98.8262 126.198 99.4989 125.04 100.339C123.877 101.072 122.769 101.887 121.723 102.777C125.619 103.624 129.467 104.678 133.252 105.934C137.148 107.253 140.804 108.951 143.522 109.93C143.102 109.151 142.723 108.791 142.223 107.932C141.724 107.073 141.744 106.214 141.144 105.674L128.816 98.3412Z" fill="#35317B"/>
<path fill-rule="evenodd" clip-rule="evenodd" d="M23.7365 14.9412C27.9325 21.1752 27.8726 23.0534 30.3102 28.1885C30.3728 28.3664 30.4603 28.5346 30.57 28.688C30.57 28.688 30.57 28.8678 30.57 28.8279C30.57 28.7879 30.57 28.9477 30.6899 29.0077C30.4768 25.9013 30.0293 22.8155 29.3512 19.7765C28.9715 18.9773 27.7527 18.6776 26.394 17.3389C25.576 16.4965 24.7157 15.6962 23.8165 14.9412" fill="#DC2C24"/>
</svg>
