<svg width="115" height="50" viewBox="0 0 115 50" fill="none" xmlns="http://www.w3.org/2000/svg">
<g clip-path="url(#clip0_132_2004)">
<path d="M35.7317 34.776C35.7595 34.9178 35.765 34.9935 35.7885 35.0609C36.3015 36.5158 36.8227 37.9666 37.3259 39.4242C37.5741 40.1399 37.789 40.8681 38.0177 41.5907C38.2229 42.239 38.4309 42.8859 38.6318 43.5356C38.8287 44.1729 39.0186 44.8115 39.2127 45.4488C39.228 45.4984 39.246 45.5466 39.2612 45.5933C39.4012 45.6746 39.5496 45.6429 39.6923 45.6443C40.7986 45.6471 41.9049 45.6456 43.0111 45.6456C43.1415 45.6456 43.2732 45.6456 43.4381 45.6456C43.4187 45.7296 43.4187 45.7943 43.3896 45.8411C42.7006 46.9725 41.9312 48.0489 41.0911 49.0743C40.9816 49.2078 40.8624 49.2698 40.6877 49.2684C40.1609 49.2615 39.6341 49.2684 39.1073 49.2657C38.8952 49.2643 38.6942 49.296 38.4891 49.3606C37.9096 49.5437 37.3232 49.5533 36.7451 49.3482C36.5801 49.2891 36.4165 49.2629 36.2433 49.2657C36.1116 49.2684 35.9799 49.2657 35.8482 49.2657C24.9713 49.2657 14.0931 49.2657 3.2162 49.2643C3.03182 49.2643 2.8322 49.2945 2.67 49.2326C2.52443 49.1775 2.41908 49.0151 2.2957 48.8981C2.13489 48.7453 1.96022 48.6022 1.81743 48.4329C1.63305 48.2127 1.47501 47.9718 1.30588 47.7392C1.14369 47.5176 0.987039 47.2932 0.819298 47.0772C0.529564 46.7041 0.277259 46.3091 0.0526798 45.8948C0.0235676 45.8411 0.0166355 45.7751 0 45.72C0.0942682 45.6085 0.207943 45.6456 0.30637 45.6456C1.22825 45.6429 2.15014 45.6402 3.07203 45.6443C3.66398 45.6471 4.25592 45.6718 4.84648 45.6704C5.99155 45.6677 7.13525 45.6511 8.28032 45.6456C8.43557 45.6443 8.55479 45.6071 8.66158 45.4874C8.93188 45.1846 9.28679 45.0166 9.67215 44.9065C9.84964 44.8556 10.0284 44.8102 10.2003 44.7469C10.3348 44.6973 10.4734 44.6409 10.5857 44.5555C10.9032 44.3174 11.2373 44.3381 11.5451 44.5253C11.7738 44.6643 12.0067 44.7042 12.2576 44.7028C12.5861 44.7001 12.9161 44.6959 13.2447 44.6835C13.673 44.6684 14.0348 44.506 14.3274 44.1922C14.4064 44.1068 14.4868 44.0132 14.5866 43.9568C14.9539 43.7476 15.2049 43.4324 15.4142 43.0814C15.7109 42.5859 15.9534 42.0642 16.1711 41.5315C16.4386 40.8777 16.7145 40.2267 16.9474 39.5619C17.2108 38.8103 17.4313 38.0437 17.6725 37.2839C17.7598 37.01 17.8499 36.7361 17.9414 36.4635C18.0204 36.2268 18.0911 35.9887 18.0898 35.7368C18.0883 35.5813 18.098 35.4147 18.0481 35.2729C17.7889 34.5283 17.7487 33.7657 17.8042 32.9894C17.8582 32.231 17.7806 31.4754 17.7224 30.7197C17.642 29.6764 17.4645 28.6455 17.3356 27.6076C17.3328 27.5815 17.3287 27.5553 17.3245 27.5305C17.2358 27.0061 17.2302 27.0102 16.8739 26.6042C15.8259 25.4122 14.8347 24.1762 13.9184 22.8796C13.2197 21.8913 12.6305 20.8453 12.0649 19.7813C11.6102 18.9265 11.3717 18.0085 11.2525 17.0532C11.1361 16.1242 11.1444 15.1992 11.3399 14.2839C11.4383 13.8255 11.5839 13.3754 11.7363 12.9308C11.9138 12.4119 12.1384 11.9081 12.3145 11.3892C12.6458 10.4161 12.826 9.41546 12.7511 8.3831C12.7192 7.94953 12.6 7.53522 12.3921 7.14983C11.8874 6.21801 11.1708 5.48437 10.2627 4.93931C9.85237 4.69293 9.39216 4.57868 8.91803 4.51124C8.49658 4.45068 8.24709 4.61585 8.09178 5.00813C8.06823 5.06869 8.05295 5.13339 8.02245 5.1912C8.00859 5.21872 7.9684 5.23249 7.92957 5.26139C7.90466 5.21735 7.87416 5.18707 7.87273 5.15403C7.85751 4.89251 7.84229 4.63236 7.8367 4.37085C7.82284 3.74045 8.07097 3.22704 8.56175 2.83338C8.97071 2.50441 9.39073 2.19059 9.80249 1.86575C9.97718 1.72811 10.1588 1.59323 10.3099 1.43218C10.5331 1.19543 10.8075 1.04265 11.1014 0.929788C11.3704 0.826556 11.6504 0.738464 11.9346 0.694418C12.6361 0.585681 13.3403 0.472815 14.0543 0.505849C14.4743 0.525119 14.8971 0.548518 15.3116 0.620092C15.7136 0.688913 16.0893 0.848578 16.4262 1.0922C17.1304 1.6001 17.7931 2.15618 18.4072 2.76869C19.4136 3.77348 20.3119 4.86498 21.044 6.08312C21.2907 6.49329 21.5998 6.84426 21.9492 7.16359C22.7283 7.87385 23.4062 8.6722 24.0397 9.50903C24.6164 10.2715 25.1959 11.0341 25.7518 11.8118C26.2994 12.5799 26.7971 13.3823 27.2074 14.2329C27.4694 14.7752 27.7314 15.3162 27.9768 15.8653C28.1334 16.2164 28.3289 16.5398 28.5757 16.8302C29.3076 17.696 29.858 18.6788 30.4292 19.6491C30.5609 19.8735 30.6967 20.1034 30.87 20.2961C31.7239 21.2472 32.4794 22.2685 33.0686 23.3985C33.4457 24.1225 33.9115 24.7859 34.3523 25.4659C34.9873 26.4459 35.5903 27.4411 36.0214 28.5285C36.1434 28.834 36.3084 29.1148 36.4956 29.3846C37.0931 30.2435 37.5242 31.1753 37.7695 32.1911C37.807 32.3439 37.8499 32.4953 37.9054 32.6412C37.9429 32.7362 37.9941 32.8353 38.0648 32.9069C38.3088 33.1532 38.471 33.4519 38.6305 33.7533C38.9854 34.4264 39.2473 35.1394 39.5052 35.8524C39.5398 35.9474 39.5426 36.052 39.5579 36.1346C39.4594 36.2447 39.3666 36.2061 39.2834 36.18C38.4322 35.9075 37.5866 35.6156 36.7728 35.244C36.4526 35.0968 36.1296 34.9536 35.7317 34.776ZM31.6934 47.2299C31.7184 47.2244 31.7572 47.2272 31.7641 47.2134C32.0095 46.7564 31.9762 46.2926 31.7918 45.8287C31.7503 45.7255 31.6504 45.6746 31.5382 45.6746C31.4605 45.6746 31.369 45.687 31.3496 45.7764C31.3372 45.8301 31.351 45.9127 31.3885 45.9512C31.6477 46.2279 31.7031 46.5678 31.7087 46.9244C31.7101 47.0276 31.7031 47.1308 31.7031 47.2382C31.6948 47.285 31.6851 47.3304 31.6726 47.3965C31.7558 47.3331 31.7184 47.2822 31.6934 47.2299ZM37.0556 39.4476C37.0584 39.4572 37.0639 39.4669 37.0626 39.4751C37.0611 39.4834 37.0542 39.4917 37.0501 39.4999C37.0542 39.4834 37.0584 39.4669 37.0626 39.4504C37.0293 39.3802 36.9904 39.3114 36.9641 39.2384C36.5829 38.169 36.2058 37.098 35.8246 36.03C35.7414 35.796 35.6555 35.5633 35.5584 35.3362C35.4586 35.1036 35.302 34.9109 35.0704 34.7939C34.9969 34.7568 34.9069 34.7554 34.8556 34.8242C34.8209 34.8697 34.7973 34.9523 34.8154 35.0018C34.8764 35.1738 34.9512 35.3404 35.0302 35.5042C35.3671 36.1965 35.7081 36.8875 36.0478 37.5798C36.3237 38.1428 36.5995 38.7044 36.8782 39.2673C36.9156 39.3444 36.9378 39.4435 37.0556 39.4476ZM30.4929 36.7278C30.4902 36.787 30.4874 36.8462 30.4832 36.9053C30.4957 36.9053 30.5082 36.904 30.5192 36.904C30.5082 36.8475 30.4984 36.7898 30.4874 36.7333C30.4874 36.6425 30.4957 36.5502 30.486 36.4594C30.418 35.7974 30.3473 35.1367 30.2753 34.476C30.2378 34.125 30.199 33.7754 30.1574 33.4244C30.1061 32.9963 30.0521 32.5696 29.9966 32.143C29.9606 31.8663 29.7998 31.6639 29.5877 31.4974C29.4947 31.4244 29.3922 31.368 29.248 31.4217C29.248 31.4946 29.2369 31.5717 29.2494 31.6447C29.327 32.1085 29.3991 32.5724 29.4906 33.0321C29.7069 34.1071 29.9966 35.1642 30.2766 36.2241C30.3168 36.3754 30.3529 36.5282 30.4 36.6783C30.4097 36.7003 30.4624 36.7099 30.4929 36.7278ZM8.20826 3.82716C8.24566 3.83266 8.29971 3.85606 8.31915 3.84092C8.36767 3.79963 8.40507 3.74182 8.43974 3.68814C8.61996 3.41148 8.85149 3.17887 9.09962 2.96414C9.16342 2.90908 9.23828 2.83338 9.35606 2.91046C9.36302 2.96414 9.37824 3.02746 9.38104 3.09077C9.39352 3.38395 9.53355 3.61244 9.74011 3.80927C9.80665 3.87258 9.87735 3.93177 9.93692 4.00059C9.96606 4.035 9.97575 4.08593 9.99793 4.13685C9.85933 4.22907 9.73179 4.21806 9.60288 4.19191C9.41986 4.15475 9.24101 4.16851 9.01643 4.24421C9.41434 4.34882 9.77198 4.21118 10.1033 4.28964C10.2697 4.45893 10.4069 4.63925 10.5816 4.77276C11.2512 5.28754 11.8528 5.87114 12.3893 6.51944C12.5293 6.68876 12.6568 6.88009 12.7483 7.07964C13.1504 7.96057 13.2613 8.88278 13.1143 9.83798C12.9826 10.6941 12.74 11.5186 12.4461 12.3334C11.9928 13.5915 11.6656 14.8812 11.6088 16.2273C11.5631 17.3161 11.7086 18.3649 12.173 19.3587C12.6943 20.4764 13.2945 21.5472 14.0362 22.5383C14.6018 23.2939 15.1286 24.0744 15.7275 24.8066C16.5398 25.8018 17.3467 26.8011 18.2131 27.7521C18.6276 28.2077 19.0795 28.6303 19.4899 29.0887C20.5421 30.2614 21.6512 31.3763 22.7906 32.4636C22.8309 32.5022 22.8821 32.5311 22.9972 32.6137C22.9431 32.4636 22.9293 32.3866 22.8918 32.3246C22.4178 31.529 22.2584 30.6096 21.8813 29.7768C21.866 29.4658 21.7094 29.2043 21.568 28.94C21.4765 28.7707 21.4404 28.6014 21.4488 28.4142C21.4529 28.3371 21.4653 28.2504 21.4376 28.183C21.3351 27.9297 21.2838 27.6572 21.116 27.4287C20.9815 27.2456 20.9136 27.0281 20.9275 26.8011C20.9386 26.6235 20.8914 26.4652 20.8235 26.3083C20.7556 26.1527 20.6793 26 20.6183 25.8417C20.5767 25.7329 20.5255 25.6173 20.5268 25.5045C20.5324 25.1025 20.3785 24.7378 20.2856 24.3593C20.1844 23.9463 20.0153 23.572 19.666 23.3008C19.605 23.254 19.562 23.1838 19.5093 23.1246C18.5846 22.0854 17.7349 20.9857 16.8781 19.8928C16.1378 18.9486 15.5528 17.9135 15.105 16.8041C14.9581 16.4407 14.8472 16.0636 14.7002 15.7002C14.4244 15.0175 14.4382 14.3224 14.5713 13.6177C14.7987 12.4202 15.2852 11.3259 15.916 10.2895C16.1143 9.96461 16.3361 9.65769 16.5856 9.36865C16.996 8.8924 17.5144 8.71069 18.1383 8.78915C18.6581 8.85385 19.1225 9.06443 19.5842 9.29019C19.964 9.47597 20.3092 9.71412 20.646 9.96739C20.8984 10.156 21.1507 10.3459 21.403 10.5331C21.5222 10.6212 21.6539 10.6776 21.8078 10.6556C21.909 10.6418 21.9811 10.5882 22.0088 10.4918C22.0393 10.3817 22.0545 10.2675 21.9728 10.1601C21.9215 10.1766 21.8826 10.1821 21.8508 10.2C21.726 10.273 21.6275 10.2344 21.5347 10.1394C21.4321 10.0348 21.4085 9.91373 21.4556 9.77883C21.5028 9.64257 21.6012 9.56547 21.7412 9.53932C21.9908 9.4925 22.207 9.60674 22.3054 9.86142C22.4275 10.1725 22.4538 10.5001 22.3803 10.8262C22.3082 11.1497 22.092 11.308 21.7607 11.3314C21.4723 11.3507 21.2616 11.2351 21.0758 11.0204C20.4284 10.273 19.6188 9.74718 18.7136 9.35625C18.0675 9.07683 17.2399 9.18971 16.7229 9.76366C16.5565 9.94814 16.3888 10.1353 16.2529 10.3418C15.69 11.2007 15.2562 12.1242 14.9359 13.096C14.6795 13.8751 14.6615 14.6624 14.9498 15.4428C15.0856 15.8103 15.2326 16.175 15.3657 16.5425C15.6859 17.4235 16.1864 18.2067 16.7007 18.9816C17.1734 19.6918 17.7557 20.3181 18.2769 20.9925C18.9603 21.8762 19.7242 22.6869 20.5033 23.4839C20.7972 23.7853 21.1202 24.0537 21.4973 24.2492C21.9173 24.468 22.3401 24.6703 22.8059 24.7874C23.6114 24.9897 24.4196 25.1617 25.2513 25.2017C25.6617 25.2223 26.0665 25.1893 26.463 25.0777C26.535 25.0571 26.6016 25.02 26.6639 24.9924C26.6695 24.9332 26.6792 24.8933 26.6751 24.8562C26.6224 24.4005 26.5378 23.9519 26.402 23.5141C26.2772 23.1122 26.1275 22.7227 25.8378 22.4034C25.8031 22.3662 25.7823 22.3153 25.7629 22.2671C25.7393 22.2038 25.8238 22.0909 25.8904 22.1019C25.9805 22.1171 26.0692 22.1405 26.1552 22.1694C26.6501 22.3359 27.163 22.351 27.6774 22.3387C27.877 22.3332 27.9435 22.2699 27.949 22.0799C27.9532 21.9381 27.9463 21.7909 27.9144 21.6532C27.8714 21.4633 27.8132 21.2733 27.7397 21.093C27.572 20.6814 27.389 20.2754 27.2129 19.868C27.1672 19.7634 27.1256 19.656 27.0757 19.5377C27.3516 19.4344 27.5554 19.612 27.7799 19.6409C28.0087 19.6712 28.2263 19.7882 28.4911 19.7372C28.4911 19.6712 28.4994 19.6216 28.4897 19.5735C28.4176 19.228 28.3441 18.8839 28.2679 18.5384C28.1958 18.2108 28.0419 17.9286 27.798 17.6919C27.7356 17.6313 27.6912 17.5556 27.6344 17.4826C27.8825 17.2376 28.2388 17.3767 28.5036 17.1909C28.4647 17.1234 28.4398 17.0642 28.401 17.0161C27.8395 16.3223 27.267 15.6396 26.6141 15.0285C26.2494 14.6872 25.8765 14.3568 25.5105 14.0196C25.4385 13.9522 25.3428 13.8943 25.329 13.7512C25.4025 13.7443 25.4731 13.714 25.5189 13.736C25.6824 13.8173 25.8446 13.9067 25.993 14.0113C26.1649 14.1324 26.3201 14.2742 26.4865 14.4022C26.5337 14.438 26.5932 14.4587 26.682 14.5041C26.6972 14.3953 26.7374 14.3127 26.7125 14.2591C26.4907 13.7718 26.2952 13.2667 26.0193 12.8097C25.2444 11.5324 24.3683 10.3225 23.4395 9.1498C23.3576 9.04796 23.2703 8.9502 23.1816 8.85385C22.6507 8.27164 22.0837 7.72656 21.4681 7.23242C21.2519 7.05897 21.0633 6.85802 20.9136 6.62541C20.7002 6.29646 20.4936 5.96199 20.2829 5.63027C19.6147 4.57593 18.8855 3.57114 17.9539 2.72464C17.8569 2.63655 17.7654 2.54296 17.6711 2.45211C17.2372 2.03093 16.7714 1.6469 16.2765 1.29867C15.9756 1.0867 15.6554 0.891248 15.277 0.856837C14.8195 0.815545 14.3579 0.763239 13.8989 0.779756C13.3084 0.801779 12.7206 0.880236 12.1328 0.946304C11.6989 0.995855 11.2817 1.11423 10.8866 1.3028C10.8034 1.34271 10.7091 1.37575 10.6495 1.43906C10.4069 1.6937 10.1754 1.95797 9.93835 2.22087L9.94804 2.20848C9.6181 2.33924 9.33668 2.54433 9.05942 2.76043C8.68512 3.05086 8.35798 3.37294 8.21099 3.83954C8.22075 3.86845 8.22901 3.89873 8.21099 3.83954C8.23734 3.88634 8.22211 3.85606 8.20826 3.82716ZM23.6322 33.997C23.549 34.22 23.4741 34.4264 23.3965 34.6329C23.1969 35.1573 23.0069 35.6873 22.7934 36.2061C22.4011 37.1614 21.8923 38.0643 21.5125 39.0265C21.4307 39.2343 21.3101 39.4242 21.1465 39.5797C21.0841 39.6376 21.0038 39.6761 20.9372 39.7202C20.7944 39.6279 20.7625 39.4972 20.714 39.3774C20.5573 38.9893 20.4048 38.5997 20.2427 38.2144C20.1235 37.9308 19.9682 37.7202 19.7699 37.5482C19.7187 37.606 19.6646 37.6596 19.6188 37.7202C19.2362 38.2213 18.9049 38.7525 18.6262 39.3169C18.5333 39.5041 18.4391 39.6913 18.3337 39.8716C18.0343 40.3809 17.7764 40.9066 17.6378 41.4861C17.6115 41.599 17.5518 41.705 17.4992 41.8096C17.2344 42.3367 17.0223 42.8846 16.8684 43.4544C16.831 43.592 16.806 43.7365 16.8032 43.8783C16.7963 44.2679 17.0861 44.5665 17.4784 44.5968C18.0426 44.6409 18.6055 44.6959 19.1697 44.7289C19.5509 44.751 19.9376 44.7331 20.2926 44.5748C20.6114 44.4316 20.9275 44.4248 21.2546 44.5129C21.3558 44.5404 21.4571 44.5679 21.5568 44.5996C21.7994 44.6767 22.0448 44.6946 22.2971 44.6698C22.4926 44.6505 22.6909 44.6409 22.8877 44.6423C23.2162 44.6436 23.5448 44.6546 23.8733 44.667C24.0452 44.6726 24.1769 44.6161 24.2796 44.4757C24.3724 44.3505 24.4736 44.2293 24.5845 44.1206C24.7273 43.9802 24.8341 43.8205 24.9117 43.6375C25.0919 43.2149 25.2222 42.7758 25.3151 42.3285C25.48 41.5357 25.6381 40.7415 25.7823 39.9459C25.9403 39.0815 25.9583 38.2061 25.9625 37.3307C25.9639 37.1559 25.9237 37.0031 25.8114 36.8586C25.1502 36.0121 24.5152 35.1463 23.9343 34.2433C23.8733 34.147 23.8221 34.0314 23.6322 33.997ZM29.6986 36.5021C29.7083 35.9116 29.6182 35.3941 29.51 34.8834C29.2633 33.7203 28.9929 32.5628 28.742 31.3997C28.6893 31.1574 28.584 30.9579 28.4024 30.7968C28.2263 30.6399 28.0461 30.4858 27.8603 30.3412C27.1575 29.7907 26.445 29.2524 25.749 28.695C25.1349 28.2022 24.5263 27.7012 23.9343 27.1823C23.0665 26.4212 22.2154 25.6394 21.3572 24.8672C21.3087 24.8231 21.2616 24.7777 21.2062 24.7419C21.1202 24.6855 21.0273 24.6111 20.9191 24.6855C20.8194 24.7543 20.8152 24.8713 20.8429 24.9704C20.8873 25.1328 20.9428 25.2939 21.0162 25.4452C21.0952 25.6091 21.1992 25.7619 21.2907 25.9201C21.3794 26.0743 21.4251 26.2546 21.3531 26.4101C21.2352 26.662 21.3364 26.8685 21.4348 27.0791C21.5014 27.2209 21.5943 27.3489 21.6761 27.4838C21.7829 27.6572 21.8341 27.8444 21.787 28.0453C21.7579 28.1665 21.7634 28.2779 21.8244 28.3867C21.9408 28.5972 21.9866 28.8258 22.0046 29.0639C22.0115 29.1534 22.0448 29.2415 22.074 29.3282C22.4025 30.3219 22.7629 31.3006 23.2176 32.2462C23.5531 32.944 23.9094 33.6281 24.3281 34.2764C24.719 34.8806 25.1626 35.4505 25.5743 36.041C26.2966 37.0747 27.1214 38.0244 27.9615 38.9618C28.0309 39.0389 28.1112 39.1076 28.1931 39.1723C28.3095 39.2632 28.4357 39.2521 28.5659 39.1985C28.7088 39.1379 28.7933 39.025 28.8557 38.8916C29.0498 38.4772 29.2328 38.0574 29.438 37.6473C29.6279 37.2632 29.7429 36.8682 29.6986 36.5021ZM39.3652 47.4736C39.3347 47.1818 39.3361 46.9161 39.2765 46.6656C39.1614 46.1838 39.0172 45.7076 38.8731 45.2327C38.6942 44.6464 38.4891 44.0669 38.3185 43.4764C38.191 43.036 38.0233 42.612 37.85 42.1894C37.6115 41.61 37.3647 41.0346 37.1097 40.4635C36.7645 39.6871 36.4179 38.9122 36.0533 38.1455C35.8343 37.6858 35.5848 37.2398 35.3435 36.7911C35.0455 36.2392 34.7239 35.6982 34.4424 35.138C34.1472 34.5503 33.7327 34.07 33.2003 33.6942C32.912 33.4905 32.5931 33.3308 32.2826 33.1602C32.1786 33.1037 32.0733 33.1519 32.0178 33.2537C31.9513 33.3749 31.9457 33.5029 31.9735 33.635C32.1509 34.5035 32.2909 35.3803 32.5654 36.2268C32.6902 36.6122 32.8108 37.0003 32.894 37.3954C33.0742 38.2501 33.26 39.1035 33.4582 39.9541C33.6038 40.5777 33.7757 41.193 33.9767 41.7999C34.0834 42.122 34.1998 42.4413 34.2955 42.7676C34.4771 43.3938 34.6324 44.0284 34.8265 44.6505C34.9734 45.1185 35.0386 45.6209 35.3519 46.0283C35.3671 46.0476 35.3671 46.0779 35.374 46.1026C35.4559 46.3504 35.5334 46.5996 35.618 46.8473C35.783 47.3276 35.9258 47.8163 36.2252 48.243C36.4082 48.5045 36.6176 48.7371 36.8837 48.9105C37.2677 49.1597 37.6892 49.2987 38.155 49.2409C38.6429 49.1803 39.0353 48.9794 39.2099 48.4852C39.2321 48.4233 39.2543 48.3614 39.2626 48.2967C39.3 48.0145 39.3333 47.7296 39.3652 47.4736ZM39.0075 35.7932C39.0339 35.4794 38.9576 35.2413 38.8703 35.0142C38.7538 34.71 38.6041 34.4182 38.4724 34.1195C38.3379 33.8153 38.1453 33.5483 37.904 33.3267C37.6143 33.0624 37.3121 32.8078 36.9919 32.5807C36.0506 31.9131 35.0926 31.2703 34.1513 30.6027C33.2419 29.9586 32.3436 29.2992 31.4439 28.6427C30.9143 28.2559 30.3709 27.8843 29.8691 27.4645C29.1024 26.8245 28.2873 26.2532 27.4555 25.7041C27.0729 25.4522 26.657 25.3173 26.1829 25.415C25.9528 25.4631 25.7129 25.4797 25.4773 25.4797C24.7149 25.477 23.9524 25.51 23.1941 25.3944C23.1178 25.3833 23.036 25.3847 22.9903 25.4687C23.0582 25.7825 23.0568 25.7839 23.2509 25.9711C24.2629 26.9442 25.3303 27.854 26.4588 28.6909C26.9648 29.0653 27.4708 29.4411 27.9795 29.8113C28.4245 30.1361 28.871 30.4582 29.3201 30.7775C29.5766 30.9592 29.8358 31.1395 30.1019 31.3075C30.4902 31.5511 30.8838 31.7864 31.2803 32.0177C32.04 32.4609 32.7969 32.9069 33.5649 33.3335C34.1042 33.6336 34.6573 33.9089 35.2063 34.1897C36.3181 34.7581 37.4562 35.2647 38.6318 35.69C38.7386 35.7327 38.8537 35.7533 39.0075 35.7932ZM30.5761 33.1422C30.583 33.1422 30.5914 33.1436 30.5983 33.1436C30.6149 33.3514 30.6288 33.5606 30.6481 33.7685C30.7452 34.7705 30.8547 35.7712 30.9379 36.7732C31.0377 37.9721 31.2013 39.1641 31.3552 40.3561C31.4744 41.2892 31.6061 42.2211 31.7406 43.1516C31.8335 43.7985 31.9319 44.444 32.0442 45.0882C32.0816 45.3016 32.1024 45.5287 32.2673 45.7049C32.3159 45.7572 32.3256 45.848 32.3478 45.9237C32.4864 46.3876 32.6597 46.839 32.851 47.2836C33.0576 47.7653 33.3875 48.1535 33.7757 48.4907C33.9503 48.6421 34.1735 48.7413 34.3787 48.8582C34.5118 48.934 34.6587 48.9353 34.7987 48.8802C35.1536 48.7412 35.3837 48.499 35.4544 48.1122C35.5113 47.8025 35.4322 47.5162 35.3366 47.2299C35.1356 46.6216 34.9235 46.0173 34.7378 45.4034C34.3593 44.1523 34.0072 42.8942 33.6204 41.6458C33.2863 40.5694 33.0686 39.4683 32.8122 38.374C32.3866 36.5668 31.8445 34.7912 31.2637 33.0266C31.2193 32.8904 31.1653 32.7541 31.0946 32.6302C31.0377 32.5311 30.9573 32.4403 30.87 32.3632C30.7771 32.2806 30.6412 32.3233 30.626 32.4416C30.5983 32.6756 30.5914 32.9096 30.5761 33.1422ZM26.5794 22.72C26.5711 22.7915 26.5586 22.8287 26.5614 22.8658C26.6016 23.3916 26.7956 23.8803 26.9454 24.3785C26.9675 24.4515 27.0147 24.5203 27.059 24.5836C27.1783 24.7543 27.3031 24.9181 27.4639 25.0599C27.8465 25.3985 28.1986 25.7715 28.584 26.106C29.316 26.7419 30.0867 27.3323 30.8658 27.9104C31.297 28.2312 31.7253 28.556 32.1606 28.8698C32.808 29.3378 33.4596 29.803 34.1125 30.2641C34.5728 30.589 35.033 30.9165 35.5057 31.2249C36.0117 31.5552 36.5274 31.8677 37.0459 32.1774C37.1776 32.2558 37.2996 32.3659 37.4895 32.3852C37.4895 32.3136 37.5048 32.2476 37.4868 32.1911C37.2691 31.4919 37.0182 30.8037 36.6578 30.1623C36.5427 29.9572 36.4165 29.7576 36.2738 29.5704C35.8205 28.973 35.2618 28.4734 34.7211 27.9586C34.2941 27.5525 33.838 27.1782 33.3889 26.7942C33.2101 26.6414 33.0146 26.5065 32.8316 26.3592C32.302 25.9298 31.7794 25.4934 31.2456 25.0681C30.8159 24.724 30.3792 24.3881 29.937 24.0592C29.4116 23.6669 28.8779 23.2856 28.3497 22.8975C28.0489 22.6759 27.7106 22.6016 27.3446 22.6332C27.1007 22.6566 26.8539 22.6897 26.5794 22.72ZM18.1272 33.0473C18.1119 33.2991 18.098 33.4946 18.0911 33.6901C18.069 34.3218 18.2602 34.8697 18.7288 35.3128C18.8328 35.412 18.9354 35.5166 19.0186 35.6308C19.2889 36.0011 19.5592 36.3699 19.8129 36.7512C20.1969 37.3293 20.5532 37.924 20.7611 38.5929C20.7694 38.6176 20.7764 38.6424 20.7874 38.6672C20.8873 38.8888 21.0994 38.9191 21.2519 38.725C21.3156 38.6438 21.36 38.5461 21.4058 38.4524C21.6192 38.0189 21.8314 37.584 22.042 37.149C22.4011 36.4057 22.6797 35.6308 22.8933 34.8366C22.964 34.5751 22.9764 34.2957 22.9903 34.0245C22.9958 33.9158 22.957 33.785 22.8933 33.6955C22.5383 33.1932 22.1835 32.6908 21.8036 32.2077C21.4141 31.7149 21.012 31.2304 20.5837 30.7707C20.0583 30.2049 19.5038 29.6667 18.9576 29.1203C18.8758 29.0377 18.7732 28.9744 18.6762 28.9084C18.5653 28.8326 18.4516 28.8561 18.3421 28.918C18.2325 28.9813 18.1687 29.0736 18.1493 29.1988C18.105 29.4823 18.0481 29.7617 18.0565 30.0521C18.069 30.4692 18.0509 30.8877 18.0495 31.3047C18.0495 31.4878 18.0551 31.6694 18.0634 31.8525C18.0828 32.2696 18.1078 32.6853 18.1272 33.0473ZM31.6463 44.8625C31.656 44.8184 31.6768 44.7689 31.6726 44.7221C31.6588 44.5528 31.638 44.3835 31.6172 44.2156C31.5215 43.4902 31.4134 42.7662 31.333 42.0394C31.2388 41.1929 31.1015 40.3574 30.827 39.5481C30.7813 39.4118 30.7549 39.27 30.7133 39.1324C30.5331 38.5323 30.3501 37.9322 30.1671 37.3321C30.1491 37.2729 30.1449 37.1986 30.041 37.1903C29.9315 37.3307 29.8788 37.5069 29.822 37.6748C29.5779 38.3946 29.2009 39.0567 28.9305 39.7656C28.9167 39.8014 28.8959 39.8358 28.8751 39.8702C28.8196 39.9611 28.7268 39.9872 28.6409 39.917C28.4384 39.7504 28.2443 39.5742 28.0461 39.4022C27.9698 39.3347 27.8922 39.2687 27.8188 39.2054C27.6649 39.2797 27.6385 39.416 27.59 39.533C27.5152 39.7146 27.4542 39.9005 27.3807 40.0821C27.2642 40.374 27.1783 40.674 27.1173 40.9837C27.0077 41.5343 26.883 42.0821 26.7541 42.6285C26.6612 43.0236 26.5822 43.4172 26.5378 43.8219C26.5101 44.0724 26.5767 44.2844 26.6875 44.495C26.7333 44.5817 26.8012 44.6367 26.8941 44.6656C27.1436 44.7455 27.3918 44.8418 27.6593 44.8391C28.1847 44.8335 28.7115 44.8308 29.2369 44.8074C29.431 44.7992 29.6237 44.7358 29.8136 44.689C29.9661 44.6519 30.1144 44.5845 30.2683 44.561C30.6482 44.5032 31.0266 44.4702 31.34 44.7703C31.4203 44.8459 31.5174 44.8858 31.6463 44.8625ZM14.2442 44.8432C14.0778 44.868 13.9489 44.8983 13.8186 44.9052C13.3722 44.93 12.9244 44.963 12.478 44.9616C12.1134 44.9602 11.7378 44.9767 11.4009 44.7812C11.3482 44.751 11.2733 44.751 11.2082 44.7469C10.9365 44.7276 10.8588 44.7854 10.8172 45.0621C10.7978 45.1887 10.8062 45.3208 10.8117 45.4502C10.8145 45.4984 10.8353 45.5589 10.8699 45.592C10.9905 45.709 11.1167 45.8246 11.2498 45.9278C11.3219 45.9829 11.4134 46.0035 11.5118 45.9719C11.674 45.9182 11.8389 45.8728 12.0025 45.8219C12.8745 45.5562 13.7617 45.3938 14.6808 45.4061C15.6013 45.4185 16.5232 45.4076 17.4423 45.464C17.8485 45.4887 18.2575 45.4667 18.6581 45.5755C18.7247 45.5933 18.8272 45.5782 18.8786 45.5355C19.128 45.3346 19.4192 45.2134 19.702 45.0758C19.7589 45.0483 19.7754 45.0098 19.7394 44.93C19.6327 44.9354 19.5163 44.9396 19.3998 44.9478C19.2292 44.9602 19.0588 44.9823 18.8882 44.9891C18.349 45.0098 17.8111 45.0263 17.2718 45.0428C17.1928 45.0455 17.1138 45.0483 17.0348 45.0414C16.9211 45.0318 16.8379 44.9836 16.8144 44.857C16.8005 44.7827 16.7866 44.6946 16.7409 44.6423C16.4913 44.3573 16.4526 44.0394 16.5551 43.6898C16.5731 43.6279 16.5773 43.5604 16.5967 43.4984C16.8587 42.6643 17.0791 41.8137 17.4881 41.0319C17.5602 40.8929 17.6143 40.7442 17.6794 40.6024C18.141 39.6059 18.5763 38.597 19.1558 37.6583C19.1766 37.6252 19.1987 37.5922 19.2127 37.555C19.3402 37.2261 19.3956 36.9026 19.1669 36.5874C19.0588 36.4388 18.9686 36.2791 18.8633 36.1291C18.8106 36.0561 18.7454 35.99 18.6747 35.9323C18.604 35.8745 18.4765 35.8965 18.4308 35.9763C18.3795 36.0657 18.3337 36.1621 18.3004 36.2598C18.0495 36.9879 17.7834 37.7133 17.5588 38.4497C17.3564 39.1132 17.1263 39.7656 16.8712 40.4097C16.4345 41.515 16.02 42.6313 15.3435 43.6237C15.3366 43.6347 15.3282 43.6457 15.3227 43.6567C15.1758 43.9444 14.9609 44.1702 14.6808 44.3311C14.4812 44.4482 14.319 44.5913 14.2442 44.8432ZM35.4392 28.0811C35.4212 27.949 35.4239 27.8568 35.3948 27.7769C35.3491 27.6558 35.284 27.5402 35.2243 27.4246C34.8542 26.702 34.3995 26.0289 33.96 25.3475C33.8325 25.1494 33.7188 24.9387 33.5622 24.7653C33.0894 24.2409 32.6029 23.7275 32.1121 23.2182C31.7392 22.8328 31.3413 22.4694 30.9712 22.0813C30.3612 21.4426 29.6459 20.9334 28.9486 20.3993C28.8973 20.3594 28.8418 20.3181 28.7808 20.2988C28.645 20.2548 28.5064 20.2038 28.365 20.1956C28.2014 20.186 28.0267 20.1144 27.8548 20.241C27.859 20.3098 27.852 20.3897 27.8714 20.4612C27.9283 20.676 28.0087 20.8838 28.0586 21.0999C28.2138 21.773 28.5784 22.318 29.0692 22.7915C29.3146 23.0283 29.553 23.2719 29.7983 23.5073C29.9689 23.6697 30.1408 23.8321 30.3238 23.9794C30.7203 24.3015 31.1278 24.6112 31.5257 24.9319C31.954 25.2774 32.3769 25.6297 32.8025 25.9779C33.2586 26.351 33.716 26.7212 34.1721 27.0928C34.5062 27.3668 34.8375 27.6434 35.1716 27.9146C35.2396 27.971 35.3227 28.0095 35.4392 28.0811ZM24.4265 44.9161C23.8651 44.9161 23.2994 44.9148 22.7352 44.9176C22.5245 44.9189 22.3138 44.9148 22.1045 44.9354C21.8632 44.9602 21.6414 44.9368 21.4141 44.8363C21.1271 44.7083 20.8235 44.7193 20.5338 44.8515C20.4769 44.8776 20.4146 44.9176 20.3841 44.9684C20.2427 45.2107 20.348 45.508 20.6059 45.614C20.6419 45.6291 20.6821 45.6388 20.7209 45.6429C20.9164 45.6663 21.1119 45.7117 21.3059 45.7062C21.8577 45.6883 22.4039 45.592 22.9584 45.6057C23.0097 45.6071 23.0624 45.5851 23.1137 45.5824C23.2703 45.5713 23.4283 45.5534 23.585 45.5589C23.7943 45.5658 24.0037 45.5961 24.2144 45.6112C24.6455 45.6415 25.0683 45.7516 25.5064 45.7351C25.9528 45.7173 26.4006 45.7393 26.8414 45.6388C27.6177 45.6374 28.3927 45.6236 29.169 45.6429C29.4809 45.6512 29.7901 45.7517 30.1034 45.7737C30.6939 45.815 30.5484 45.9017 30.9213 45.4309C31.1167 45.1846 30.9892 44.8804 30.6759 44.8157C30.4236 44.7634 30.1741 44.7881 29.9398 44.8845C29.6292 45.0111 29.3076 45.0524 28.9777 45.0621C28.3858 45.0785 27.7952 45.1033 27.2032 45.1157C27.0077 45.1199 26.8123 45.0951 26.6307 45.0841C26.4907 44.8625 26.3645 44.6643 26.2398 44.466C26.1691 44.3532 26.1302 44.2349 26.1552 44.0944C26.2384 43.6182 26.2994 43.1392 26.395 42.6657C26.517 42.0642 26.6709 41.4696 26.7998 40.8695C26.9024 40.3973 26.9967 39.9239 27.0799 39.4476C27.1297 39.1586 27.0937 38.8722 26.9551 38.6094C26.9024 38.5089 26.8261 38.4112 26.7388 38.3382C26.5863 38.2116 26.413 38.2377 26.2911 38.3974C26.2453 38.4566 26.2134 38.5365 26.2037 38.6094C26.1774 38.8159 26.1566 39.025 26.151 39.2329C26.1372 39.7711 26.047 40.2983 25.9237 40.8199C25.8516 41.1255 25.7781 41.4297 25.7074 41.7353C25.5743 42.3079 25.4398 42.8805 25.3137 43.453C25.2444 43.7668 25.0975 44.0394 24.9103 44.2954C24.7647 44.4922 24.6081 44.6835 24.4265 44.9161ZM22.5009 46.4096C22.4344 46.6463 22.476 46.8941 22.469 47.1377C22.4621 47.373 22.4635 47.6071 22.469 47.8424C22.4732 48.0861 22.4468 48.3324 22.494 48.5705C22.5578 48.5871 22.5952 48.6049 22.6312 48.6049C23.4852 48.6064 24.3406 48.6064 25.1945 48.6036C25.2416 48.6036 25.2888 48.5719 25.3276 48.5568C25.383 47.9939 25.365 46.6656 25.3012 46.4027C24.9671 46.3449 22.835 46.3463 22.5009 46.4096ZM16.1018 48.5761C16.4428 48.5761 16.7852 48.5747 17.1263 48.5761C17.3744 48.5761 17.5879 48.488 17.7695 48.3228C18.1133 48.0103 18.227 47.4846 18.0495 47.0248C17.8874 46.6036 17.5241 46.3504 17.0431 46.3394C16.6882 46.3311 16.3333 46.3366 15.9784 46.338C15.7025 46.338 15.4253 46.3284 15.1508 46.3407C14.5644 46.3669 14.1458 46.7895 14.1194 47.3703C14.1166 47.435 14.1194 47.5011 14.1194 47.5658C14.1208 48.0626 14.5422 48.6009 15.1536 48.5788C15.4696 48.5665 15.7857 48.5761 16.1018 48.5761ZM28.6353 18.5714C28.6519 18.7641 28.6519 18.8687 28.6727 18.9678C28.7573 19.3766 28.9652 19.7248 29.2549 20.0181C29.7152 20.4833 30.1921 20.9347 30.6579 21.3944C31.1986 21.9285 31.735 22.4653 32.2757 22.9994C32.3782 23.0999 32.4892 23.1934 32.5959 23.2898C32.6056 23.298 32.6209 23.3077 32.6292 23.305C32.6389 23.3008 32.6444 23.2843 32.6666 23.2512C32.5307 23.0297 32.3894 22.7956 32.2466 22.563C31.7239 21.711 31.1154 20.9264 30.3986 20.2259C29.8926 19.7317 29.395 19.228 28.8903 18.7311C28.8418 18.6815 28.7683 18.654 28.6353 18.5714ZM25.6936 48.5843C25.9431 48.6188 26.1704 48.6325 26.3908 48.5788C26.4491 48.1893 26.445 46.7193 26.3853 46.3986C26.1497 46.3531 25.9112 46.3215 25.6811 46.4233C25.6422 46.8431 25.6478 48.2402 25.6936 48.5843ZM8.6768 46.5279C8.72948 46.4715 8.76135 46.4481 8.77663 46.4178C9.02476 45.9168 9.43788 45.6223 9.96606 45.4681C10.0284 45.4502 10.0894 45.4227 10.1463 45.3924C10.2225 45.3525 10.2336 45.2657 10.1893 45.1914C10.1186 45.0745 10.0049 45.0304 9.88567 45.0607C9.6583 45.1199 9.42956 45.1846 9.21746 45.2809C9.00258 45.38 8.82099 45.5273 8.80434 45.7998C8.79881 45.8865 8.74334 45.9705 8.71283 46.0572C8.66574 46.1935 8.62965 46.3311 8.6768 46.5279ZM18.8384 47.3276C18.8384 47.1763 18.8328 47.0593 18.8397 46.9436C18.8647 46.4523 19.0532 46.0627 19.5273 45.848C19.6091 45.8108 19.6882 45.7585 19.7547 45.698C19.8184 45.6402 19.8184 45.5576 19.7796 45.4819C19.738 45.4006 19.6632 45.3786 19.58 45.4006C19.2473 45.4915 18.9867 45.6897 18.8342 45.9898C18.6262 46.4013 18.622 46.839 18.7552 47.2795C18.7579 47.2864 18.7759 47.2905 18.8384 47.3276ZM29.7526 19.0959C29.7748 19.0793 29.797 19.0614 29.8192 19.0449C29.535 18.6127 29.2508 18.1791 28.9638 17.7469C28.8959 17.6437 28.7864 17.5831 28.6686 17.5776C28.5854 17.5749 28.4939 17.6079 28.4204 17.6506C28.365 17.6836 28.3996 17.791 28.4897 17.886C28.5341 17.9327 28.5854 17.974 28.6325 18.0194C28.9513 18.3264 29.2688 18.6334 29.5863 18.9403C29.6404 18.994 29.6971 19.0449 29.7526 19.0959Z" fill="black"/>
<path d="M14.8511 3.30181C14.8844 3.07057 14.919 2.83795 14.9495 2.60671C14.9523 2.58469 14.9343 2.55854 14.9149 2.5021C14.8802 2.55165 14.8483 2.58193 14.8386 2.61772C14.8164 2.69205 14.7984 2.76913 14.7915 2.84758C14.7485 3.33484 14.499 3.73262 14.2314 4.12215C14.2148 4.14693 14.1718 4.15381 14.1012 4.1896C14.1289 4.05058 14.2106 3.98176 14.2564 3.89642C14.2994 3.81521 14.3493 3.73813 14.3908 3.6583C14.4394 3.56608 14.4879 3.47248 14.5253 3.37613C14.5627 3.27978 14.5919 3.17793 14.6182 3.07745C14.6418 2.98936 14.6598 2.89989 14.6723 2.80904C14.6847 2.70719 14.6875 2.60533 14.7014 2.41401C14.6224 2.52825 14.578 2.5668 14.5669 2.61359C14.524 2.80354 14.5045 3.00037 14.4505 3.18756C14.3631 3.489 14.237 3.77667 14.0304 4.0203C13.993 4.06572 13.9403 4.09875 13.8502 4.17583C13.8585 3.99277 13.9639 3.9212 14.0138 3.82622C14.0692 3.72299 14.1372 3.62527 14.1884 3.52065C14.2342 3.42706 14.2675 3.32795 14.298 3.22747C14.3313 3.11599 14.3645 3.00174 14.3811 2.88612C14.3964 2.77876 14.4366 2.66589 14.3493 2.50485C14.237 3.03891 14.097 3.50964 13.7726 3.90055C13.7268 3.9556 13.6727 4.0024 13.573 4.10288C13.5882 3.87577 13.7227 3.79044 13.7781 3.66931C13.8322 3.55094 13.9084 3.4422 13.9583 3.32245C14.0138 3.19031 14.0512 3.05129 14.0956 2.91641C14.1358 2.7939 14.1718 2.67003 14.1372 2.49109C14.0803 2.55165 14.0387 2.57643 14.0263 2.61222C13.9985 2.69893 13.986 2.78978 13.9639 2.87787C13.8807 3.20959 13.749 3.52065 13.5466 3.7987C13.5036 3.85788 13.444 3.90605 13.3276 4.02718C13.3747 3.83448 13.3996 3.73125 13.4246 3.62802C13.4371 3.62664 13.4565 3.62939 13.4634 3.62251C13.6991 3.372 13.8474 2.96321 13.8211 2.63286C13.8211 2.62735 13.8044 2.62185 13.7754 2.60396C13.7227 2.78152 13.6769 2.95495 13.6215 3.12562C13.5646 3.29768 13.4967 3.46697 13.4343 3.63765C13.347 3.7051 13.2583 3.77254 13.1418 3.86338C13.1349 3.76153 13.1293 3.70097 13.1252 3.63903C13.2929 3.5881 13.2971 3.40916 13.3928 3.30318C13.3928 3.255 13.3928 3.20545 13.3928 3.15728C13.3872 3.15728 13.383 3.15866 13.3775 3.15866C13.3816 3.20683 13.3858 3.25638 13.39 3.30456C13.2333 3.35962 13.1557 3.48074 13.1141 3.63077C13.0794 3.64729 13.042 3.6583 13.0101 3.67894C12.4736 4.02305 11.8789 3.95836 11.4436 3.50001C11.3451 3.39678 11.2689 3.2729 11.1857 3.1559C11.1178 3.06093 11.0624 2.95495 10.9861 2.86685C10.8073 2.66177 10.5675 2.65488 10.3692 2.84758C10.3249 2.89163 10.2985 2.95357 10.2583 3.01551C10.3054 3.127 10.3568 3.23023 10.3956 3.33896C10.4233 3.41605 10.3498 3.4945 10.2639 3.48762C10.0975 3.47523 9.95611 3.42017 9.88678 3.25363C9.81745 3.08433 9.82441 2.91778 9.94642 2.77601C10.0143 2.69755 10.1058 2.6425 10.1821 2.57092C10.2264 2.52963 10.2597 2.47595 10.2999 2.4264C10.2999 2.4264 10.2902 2.43741 10.2916 2.43741C10.354 2.42915 10.4191 2.43465 10.4746 2.41401C11.3507 2.09605 12.2518 1.96943 13.1848 2.02723C13.8558 2.06853 14.517 2.16213 15.1714 2.31216C15.2448 2.32867 15.3141 2.36584 15.3973 2.39887C15.3876 2.93568 15.2088 3.40503 14.9454 3.84825C14.822 4.05608 14.7097 4.27494 14.4408 4.4346C14.4643 4.20887 14.6362 4.14143 14.7 4.00928C14.7679 3.86889 14.8691 3.74363 14.937 3.60324C15.005 3.46285 15.0549 3.31282 15.0992 3.16278C15.1409 3.02101 15.2074 2.87649 15.1312 2.67553C15.0799 2.83795 15.048 2.96321 14.998 3.08158C14.9648 3.16141 14.9495 3.26189 14.8428 3.29079L14.8511 3.30181ZM12.9422 2.97834C12.9311 2.63424 12.6912 2.39199 12.3599 2.35345C12.0383 2.31629 11.7125 2.49935 11.6307 2.765C11.6224 2.78978 11.6197 2.81593 11.6155 2.84208C11.567 3.15866 11.7458 3.45046 12.0466 3.54681C12.3793 3.6528 12.7481 3.50551 12.8798 3.20545C12.9145 3.12287 12.9269 3.03065 12.9422 2.97834Z" fill="black"/>
<path d="M12.4612 2.93304C12.4668 3.03352 12.3808 3.13262 12.2796 3.14501C12.1812 3.1574 12.08 3.07068 12.0689 2.9647C12.0578 2.85734 12.1382 2.76512 12.2477 2.75823C12.3586 2.75135 12.4557 2.82981 12.4612 2.93304Z" fill="black"/>
</g>
<path d="M57.4071 17.6484H60.8158C60.765 16.7174 60.4815 15.979 59.9652 15.4331C59.4532 14.8872 58.7443 14.6143 57.8387 14.6143C56.4973 14.6143 55.6509 15.2638 55.2997 16.563L54.0936 16.2456C54.3221 15.395 54.7601 14.7306 55.4076 14.2524C56.0593 13.7743 56.8676 13.5352 57.8324 13.5352C58.7465 13.5352 59.5336 13.7594 60.1937 14.208C60.8539 14.6566 61.3427 15.23 61.66 15.9282C61.9816 16.6265 62.1425 17.3988 62.1425 18.2451C62.189 19.6289 61.8526 20.7948 61.1332 21.7427C60.418 22.6864 59.3262 23.1582 57.8578 23.1582C55.8054 23.1582 54.5105 22.1299 53.973 20.0732L55.16 19.7622C55.5367 21.3364 56.4655 22.1235 57.9467 22.1235C58.7803 22.1235 59.4637 21.8231 59.9969 21.2222C60.5302 20.617 60.82 19.7918 60.8666 18.7466H57.4071V17.6484Z" fill="black"/>
<path d="M62.8884 16.2583H68.3665V17.2041H66.1956V22.9995H65.0593V17.2041H62.8884V16.2583Z" fill="black"/>
<path d="M69.3346 16.2583H70.4772V19.064H73.6447V16.2583H74.7872V22.9995H73.6447V20.0098H70.4772V22.9995H69.3346V16.2583Z" fill="black"/>
<path d="M75.9585 19.6289C75.9585 18.3805 76.3055 17.4559 76.9995 16.855C77.5793 16.3556 78.286 16.106 79.1196 16.106C80.0464 16.106 80.8039 16.4106 81.3921 17.02C81.9803 17.6252 82.2744 18.4631 82.2744 19.5337C82.2744 20.4012 82.1432 21.0846 81.8809 21.584C81.6227 22.0791 81.244 22.4642 80.7446 22.7393C80.2495 23.0143 79.7079 23.1519 79.1196 23.1519C78.176 23.1519 77.4121 22.8493 76.8281 22.2441C76.2484 21.639 75.9585 20.7673 75.9585 19.6289ZM77.1328 19.6289C77.1328 20.4922 77.3211 21.1396 77.6978 21.5713C78.0744 21.9987 78.5484 22.2124 79.1196 22.2124C79.6867 22.2124 80.1585 21.9966 80.5352 21.5649C80.9118 21.1333 81.1001 20.4753 81.1001 19.5908C81.1001 18.7572 80.9097 18.1266 80.5288 17.6992C80.1522 17.2676 79.6825 17.0518 79.1196 17.0518C78.5484 17.0518 78.0744 17.2655 77.6978 17.6929C77.3211 18.1203 77.1328 18.7656 77.1328 19.6289Z" fill="black"/>
<path d="M83.0458 20.2065V19.0576H86.556V20.2065H83.0458Z" fill="black"/>
<path d="M87.6956 16.2583H93.0149V22.9995H91.8723V17.2041H88.8382V22.9995H87.6956V16.2583Z" fill="black"/>
<path d="M99.0041 22.168C98.5809 22.5277 98.1725 22.7816 97.779 22.9297C97.3896 23.0778 96.9707 23.1519 96.5221 23.1519C95.7816 23.1519 95.2124 22.972 94.8146 22.6123C94.4168 22.2484 94.2179 21.785 94.2179 21.2222C94.2179 20.8921 94.292 20.5916 94.4401 20.3208C94.5924 20.0457 94.7892 19.8257 95.0304 19.6606C95.2759 19.4956 95.5509 19.3708 95.8556 19.2861C96.0799 19.2269 96.4184 19.1698 96.8712 19.1147C97.7938 19.0047 98.473 18.8735 98.9088 18.7212C98.9131 18.5646 98.9152 18.4652 98.9152 18.4229C98.9152 17.9574 98.8073 17.6294 98.5915 17.439C98.2995 17.1808 97.8657 17.0518 97.2902 17.0518C96.7528 17.0518 96.355 17.147 96.0968 17.3374C95.8429 17.5236 95.6546 17.8558 95.5319 18.334L94.4147 18.1816C94.5163 17.7035 94.6834 17.3184 94.9162 17.0264C95.1489 16.7301 95.4853 16.5037 95.9254 16.3472C96.3656 16.1864 96.8755 16.106 97.4552 16.106C98.0308 16.106 98.4984 16.1737 98.8581 16.3091C99.2178 16.4445 99.4823 16.6159 99.6515 16.8232C99.8208 17.0264 99.9393 17.2845 100.007 17.5977C100.045 17.7923 100.064 18.1436 100.064 18.6514V20.1748C100.064 21.237 100.087 21.9098 100.134 22.1934C100.185 22.4727 100.282 22.7414 100.426 22.9995H99.2326C99.1141 22.7625 99.0379 22.4854 99.0041 22.168ZM98.9088 19.6162C98.4941 19.7855 97.8721 19.9294 97.0426 20.0479C96.5729 20.1156 96.2407 20.1917 96.0461 20.2764C95.8514 20.361 95.7012 20.4858 95.5954 20.6509C95.4896 20.8117 95.4367 20.9915 95.4367 21.1904C95.4367 21.4951 95.5509 21.749 95.7794 21.9521C96.0122 22.1553 96.3507 22.2568 96.7951 22.2568C97.2352 22.2568 97.6266 22.1616 97.9694 21.9712C98.3122 21.7765 98.564 21.512 98.7248 21.1777C98.8475 20.9196 98.9088 20.5387 98.9088 20.0352V19.6162Z" fill="black"/>
<path d="M101.711 25.583V16.2583H102.752V17.1343C102.998 16.7915 103.275 16.5355 103.584 16.3662C103.893 16.1927 104.267 16.106 104.708 16.106C105.283 16.106 105.791 16.2541 106.231 16.5503C106.671 16.8465 107.003 17.2655 107.228 17.8071C107.452 18.3446 107.564 18.9349 107.564 19.5781C107.564 20.2679 107.439 20.89 107.189 21.4443C106.944 21.9945 106.584 22.4176 106.11 22.7139C105.641 23.0059 105.146 23.1519 104.625 23.1519C104.244 23.1519 103.901 23.0715 103.597 22.9106C103.296 22.7498 103.049 22.5467 102.854 22.3013V25.583H101.711ZM102.746 19.667C102.746 20.5345 102.922 21.1756 103.273 21.5903C103.624 22.005 104.05 22.2124 104.549 22.2124C105.057 22.2124 105.49 21.9987 105.85 21.5713C106.214 21.1396 106.396 20.4731 106.396 19.5718C106.396 18.7127 106.218 18.0695 105.863 17.6421C105.512 17.2147 105.091 17.001 104.6 17.001C104.113 17.001 103.681 17.2295 103.305 17.6865C102.932 18.1393 102.746 18.7995 102.746 19.667Z" fill="black"/>
<path d="M108.811 16.2583H109.954V19.1719C110.318 19.1719 110.572 19.1021 110.716 18.9624C110.864 18.8228 111.08 18.4165 111.363 17.7437C111.587 17.2104 111.769 16.8592 111.909 16.6899C112.049 16.5207 112.21 16.4064 112.392 16.3472C112.573 16.2879 112.865 16.2583 113.267 16.2583H113.496V17.2041L113.179 17.1978C112.878 17.1978 112.686 17.2422 112.601 17.3311C112.512 17.4242 112.377 17.7013 112.195 18.1626C112.021 18.6027 111.863 18.9074 111.719 19.0767C111.575 19.2459 111.353 19.4004 111.052 19.54C111.543 19.6712 112.025 20.1283 112.499 20.9111L113.75 22.9995H112.493L111.274 20.9111C111.025 20.4922 110.807 20.2171 110.621 20.0859C110.434 19.9505 110.212 19.8828 109.954 19.8828V22.9995H108.811V16.2583Z" fill="black"/>
<path d="M55.5917 33.6479L57.2357 36.5425H56.309L54.2841 33.6479L56.309 30.7534H57.2484L55.5917 33.6479ZM58.0482 33.6479L59.724 36.5425H58.7592L56.7723 33.6479L58.7592 30.7534H59.724L58.0482 33.6479Z" fill="black"/>
<path d="M60.5208 36.9995L64.0945 27.6938H65.4211L69.2297 36.9995H67.8269L66.7415 34.1812H62.8503L61.8284 36.9995H60.5208ZM63.2058 33.1782H66.3606L65.3894 30.6011C65.0932 29.8182 64.8731 29.175 64.7293 28.6714C64.6108 29.2681 64.4436 29.8605 64.2278 30.4487L63.2058 33.1782Z" fill="black"/>
<path d="M69.944 30.2583H75.2633V36.9995H74.1207V31.2041H71.0866V36.9995H69.944V30.2583Z" fill="black"/>
<path d="M81.2525 34.5303L82.376 34.6763C82.2533 35.4507 81.938 36.0579 81.4302 36.498C80.9266 36.9339 80.3067 37.1519 79.5703 37.1519C78.6478 37.1519 77.9051 36.8514 77.3423 36.2505C76.7837 35.6453 76.5044 34.7799 76.5044 33.6543C76.5044 32.9264 76.625 32.2896 76.8662 31.7437C77.1074 31.1978 77.4735 30.7894 77.9644 30.5186C78.4595 30.2435 78.9969 30.106 79.5767 30.106C80.3088 30.106 80.9076 30.2922 81.3731 30.6646C81.8386 31.0327 82.1369 31.5575 82.2681 32.2388L81.1572 32.4102C81.0514 31.9574 80.8631 31.6167 80.5923 31.3882C80.3257 31.1597 80.002 31.0454 79.6211 31.0454C79.0456 31.0454 78.578 31.2528 78.2183 31.6675C77.8586 32.078 77.6787 32.7297 77.6787 33.6226C77.6787 34.5282 77.8522 35.1862 78.1992 35.5967C78.5462 36.0072 78.999 36.2124 79.5576 36.2124C80.0062 36.2124 80.3807 36.0749 80.6812 35.7998C80.9816 35.5247 81.1721 35.1016 81.2525 34.5303Z" fill="black"/>
<path d="M83.2299 30.2583H84.3725V33.064H87.5399V30.2583H88.6825V36.9995H87.5399V34.0098H84.3725V36.9995H83.2299V30.2583Z" fill="black"/>
<path d="M96.6966 30.2583H97.8391V36.9995H96.6966V30.2583ZM90.3045 30.2583H91.447V32.8926H92.8943C93.838 32.8926 94.5637 33.0767 95.0716 33.4448C95.5836 33.8088 95.8396 34.3123 95.8396 34.9556C95.8396 35.5184 95.6259 36.0008 95.1985 36.4028C94.7753 36.8006 94.0961 36.9995 93.1609 36.9995H90.3045V30.2583ZM91.447 36.0601H92.6468C93.3704 36.0601 93.8867 35.9712 94.1956 35.7935C94.5045 35.6157 94.659 35.3385 94.659 34.9619C94.659 34.6699 94.5447 34.4097 94.3162 34.1812C94.0877 33.9526 93.582 33.8384 92.7991 33.8384H91.447V36.0601Z" fill="black"/>
<path d="M103.657 33.6479L102 30.7534H102.94L104.965 33.6479L102.94 36.5425H102.007L103.657 33.6479ZM101.2 33.6479L99.5246 30.7534H100.483L102.476 33.6479L100.483 36.5425H99.5246L101.2 33.6479Z" fill="black"/>
<defs>
<clipPath id="clip0_132_2004">
<rect width="44" height="49" fill="white" transform="translate(0 0.5)"/>
</clipPath>
</defs>
</svg>
