<svg width="401" height="180" viewBox="0 0 401 180" fill="none" xmlns="http://www.w3.org/2000/svg">
<path d="M93.6903 150.049C80.9276 150.05 68.4513 146.274 57.8389 139.2C47.2266 132.125 38.9549 122.069 34.07 110.303C29.1852 98.537 27.9064 85.5898 30.3955 73.0987C32.8847 60.6076 39.0299 49.1336 48.054 40.1276C57.0781 31.1217 68.5758 24.9884 81.0932 22.5034C93.6105 20.0183 106.585 21.2931 118.376 26.1666C130.168 31.04 140.246 39.2932 147.337 49.8825C154.427 60.4717 158.212 72.9214 158.212 85.6571C158.192 102.728 151.389 119.094 139.293 131.165C127.197 143.236 110.797 150.027 93.6903 150.049ZM93.6903 24.3482C81.5389 24.3482 69.6603 27.9439 59.5568 34.6806C49.4533 41.4173 41.5785 50.9925 36.9284 62.1952C32.2782 73.3979 31.0615 85.7251 33.4322 97.6179C35.8028 109.511 41.6542 120.435 50.2466 129.009C58.8389 137.583 69.7863 143.422 81.7042 145.788C93.6221 148.154 105.975 146.939 117.202 142.299C128.428 137.659 138.024 129.801 144.775 119.718C151.526 109.636 155.129 97.7829 155.129 85.6571C155.111 69.4024 148.632 53.8186 137.114 42.3248C125.596 30.8311 109.979 24.366 93.6903 24.3482Z" fill="#2B547C"/>
<path d="M121.97 47.7067C122.798 46.618 123.643 46.722 124.422 47.2847C124.788 47.5544 125.037 47.9525 125.12 48.3986C125.203 48.8447 125.114 49.3056 124.869 49.6884C111.998 70.8933 85.9737 86.5875 85.9737 86.5875L85.8756 91.6639L85.7959 95.9147L85.183 128.08C85.183 128.545 84.9977 128.992 84.6678 129.321C84.3379 129.65 83.8905 129.835 83.424 129.835C82.9574 129.835 82.51 129.65 82.1801 129.321C81.8502 128.992 81.6649 128.545 81.6649 128.08L81.052 95.7801C79.5074 94.6344 77.9935 93.46 76.5103 92.2572L75.8545 121.389C75.8545 121.854 75.6691 122.301 75.3392 122.63C75.0093 122.959 74.5619 123.144 74.0954 123.144C73.6288 123.144 73.1814 122.959 72.8515 122.63C72.5216 122.301 72.3363 121.854 72.3363 121.389L71.6253 88.0737C67.5784 84.4545 63.7589 80.5899 60.1883 76.5018C59.8632 76.1669 59.6848 75.7167 59.6922 75.2505C59.6997 74.7842 59.8925 74.34 60.2282 74.0156C60.5638 73.6912 61.0149 73.5131 61.4822 73.5206C61.9494 73.528 62.3946 73.7204 62.7197 74.0554C68.3467 79.3753 74.4434 84.1776 80.9355 88.404L80.862 84.1226C73.1045 77.8965 66.1611 70.7232 60.1945 62.771C59.9158 62.4078 59.7902 61.9505 59.8443 61.4964C59.8985 61.0422 60.1281 60.6271 60.4844 60.3393C60.8406 60.0516 61.2953 59.9139 61.7518 59.9557C62.2082 59.9975 62.6302 60.2154 62.9281 60.563C69.3984 67.9489 76.796 74.4716 84.9379 79.9697L85.134 79.8658C86.1106 79.3398 87.0831 78.8077 88.0515 78.2694L89.1057 77.6578C84.3696 74.0695 79.9188 70.1209 75.7932 65.8474C70.7772 60.6577 66.2626 55.0079 62.309 48.9728C62.0432 48.59 61.9407 48.1175 62.0241 47.6592C62.1074 47.201 62.3698 46.7946 62.7534 46.5294C63.137 46.2641 63.6105 46.1619 64.0697 46.245C64.5289 46.3282 64.9362 46.59 65.202 46.9728C69.3136 52.5961 73.9429 57.8237 79.0294 62.5875C83.5575 66.9161 88.4662 70.8299 93.6964 74.2817C93.6964 74.2817 107.603 66.5875 121.97 47.7067Z" fill="#2B547C"/>
<path d="M103.669 86.2387C106.562 84.1408 109.185 81.8411 111.9 79.5109C114.615 77.1806 117.067 74.6852 119.519 72.098C122.27 69.1664 124.846 66.0765 127.235 62.8442C127.375 62.6506 127.474 62.4307 127.526 62.1978C127.578 61.9649 127.582 61.7239 127.538 61.4894C127.494 61.2549 127.402 61.0318 127.269 60.8337C127.136 60.6355 126.964 60.4664 126.763 60.3366C125.96 59.7983 124.747 60.2081 124.122 60.9482C110 77.0644 90.9689 87.4619 90.9689 87.4619L91.1528 89.2295L91.7657 132.465C91.7657 132.931 91.9511 133.377 92.2809 133.706C92.6108 134.035 93.0583 134.22 93.5248 134.22C93.9913 134.22 94.4388 134.035 94.7686 133.706C95.0985 133.377 95.2839 132.931 95.2839 132.465L96.4239 91.0766C99.0839 89.4497 101.131 88.1041 103.669 86.2387Z" fill="#2B547C"/>
<path d="M127.143 74.0607C126.983 73.8947 126.791 73.762 126.579 73.67C126.367 73.578 126.139 73.5287 125.908 73.5247C125.677 73.5207 125.447 73.5622 125.232 73.6468C125.017 73.7315 124.821 73.8575 124.655 74.0179C122.93 75.6815 121.165 77.2982 119.359 78.868C117.553 80.4379 115.704 81.9506 113.812 83.4063C110.041 86.3205 106.11 89.024 102.038 91.5041L100.745 92.3604L100.788 93.816L101.811 127.993C101.811 128.459 101.997 128.905 102.327 129.235C102.657 129.564 103.104 129.749 103.57 129.749C104.037 129.749 104.484 129.564 104.814 129.235C105.144 128.905 105.33 128.459 105.33 127.993L106.378 95.5775C107.714 94.605 109.154 93.4307 110.454 92.4093L111.122 121.284C111.148 121.732 111.345 122.154 111.673 122.462C112 122.77 112.434 122.942 112.884 122.942C113.334 122.942 113.767 122.77 114.095 122.462C114.422 122.154 114.619 121.732 114.646 121.284L115.627 88.342V88.2686L116.711 87.3145C118.554 85.6835 120.35 83.9893 122.099 82.2319C123.846 80.4949 125.537 78.2503 127.186 76.4215C127.474 76.0932 127.63 75.6694 127.622 75.2328C127.614 74.7963 127.443 74.3784 127.143 74.0607Z" fill="#2B547C"/>
<path d="M92.2254 67.7977L93.9293 69.2411L95.5965 67.7549C101.883 62.172 107.556 55.9371 112.519 49.1555C112.794 48.7893 112.914 48.3306 112.855 47.8771C112.796 47.4236 112.561 47.0111 112.202 46.7273C111.843 46.4436 111.386 46.311 110.93 46.3579C110.474 46.4047 110.055 46.6273 109.761 46.9781C104.959 52.592 99.622 57.7272 93.8252 62.3115C87.8025 57.7841 82.2705 52.641 77.3193 46.9659C77.0215 46.6183 76.5994 46.4004 76.143 46.3586C75.6866 46.3168 75.2319 46.4545 74.8756 46.7422C74.5194 47.03 74.2897 47.4451 74.2356 47.8993C74.1814 48.3534 74.3071 48.8107 74.5857 49.1739C79.7317 56.0353 85.6504 62.2841 92.2254 67.7977Z" fill="#2B547C"/>
<path d="M194.766 45.1807V62.7892H190.108V53.4314L186.326 59.2174H183.654L179.872 53.407V62.7892H175.208V45.1807H179.621L184.99 53.4314L190.359 45.1807H194.766Z" fill="#2B547C"/>
<path d="M207.165 44.8008C213.466 44.8008 216.617 49.0821 216.617 53.9751C216.617 58.8681 213.466 63.1494 207.165 63.1494C200.865 63.1494 197.714 58.8681 197.714 53.9751C197.714 49.0821 200.871 44.8008 207.165 44.8008ZM207.165 49.0821C204.101 49.0821 202.501 51.1739 202.501 53.9751C202.501 56.7763 204.113 58.8681 207.165 58.8681C210.218 58.8681 211.83 56.7824 211.83 53.9751C211.83 51.1678 210.23 49.076 207.165 49.076V49.0821Z" fill="#2B547C"/>
<path d="M228.268 44.8009C230.035 44.7919 231.782 45.1698 233.386 45.908V50.3116C232.158 49.3658 230.646 48.8615 229.096 48.8804C226.301 48.8804 223.53 50.4095 223.53 54.2321C223.53 57.6572 226.301 59.0639 229.047 59.0639C230.679 59.1346 232.277 58.5862 233.521 57.5288V62.0548C231.912 62.8041 230.154 63.1824 228.378 63.1618C223.543 63.1618 218.725 60.5196 218.725 54.2321C218.713 47.596 223.506 44.8009 228.268 44.8009Z" fill="#2B547C"/>
<path d="M236.585 62.7892V45.1807H241.25V51.8473H243.468L247.477 45.1807H252.644L247.097 53.7434L252.895 62.777H247.728L243.438 55.9819H241.244V62.777L236.585 62.7892Z" fill="#2B547C"/>
<path d="M262.573 44.8008C268.874 44.8008 272.024 49.0821 272.024 53.9751C272.024 58.8681 268.874 63.1494 262.573 63.1494C256.272 63.1494 253.122 58.8681 253.122 53.9751C253.122 49.0821 256.272 44.8008 262.573 44.8008ZM262.573 49.0821C259.508 49.0821 257.909 51.1739 257.909 53.9751C257.909 56.7763 259.527 58.8681 262.573 58.8681C265.619 58.8681 267.237 56.7824 267.237 53.9751C267.237 51.1678 265.625 49.076 262.573 49.076V49.0821Z" fill="#2B547C"/>
<path d="M282.94 45.1807C286.795 45.1807 289.118 46.5874 289.118 49.6333C289.175 50.4718 288.946 51.3048 288.471 51.9982C287.995 52.6917 287.299 53.2051 286.495 53.4559C287.471 53.6792 288.338 54.2362 288.946 55.0304C289.554 55.8246 289.864 56.806 289.823 57.8045C289.823 61.8045 285.992 62.7892 282.64 62.7892H274.978V45.1807H282.94ZM282.787 55.4681H279.612V59.1379H282.787C284.203 59.1379 285.134 58.6853 285.134 57.303C285.134 55.9207 284.203 55.4681 282.787 55.4681ZM282.511 48.8259H279.637V52.0736H282.511C283.737 52.0736 284.454 51.462 284.454 50.4406C284.454 49.4192 283.78 48.8259 282.511 48.8259Z" fill="#2B547C"/>
<path d="M301.42 44.8009C303.184 44.7918 304.929 45.1697 306.531 45.908V50.3116C305.304 49.3654 303.792 48.861 302.241 48.8805C299.446 48.8805 296.669 50.4095 296.669 54.2321C296.669 57.6572 299.446 59.0639 302.186 59.0639C303.822 59.1365 305.425 58.588 306.672 57.5288V62.0548C305.063 62.8035 303.305 63.1818 301.53 63.1618C296.688 63.1618 291.876 60.5196 291.876 54.2321C291.864 47.596 296.651 44.8009 301.42 44.8009Z" fill="#2B547C"/>
<path d="M309.737 62.7892V45.1807H314.426V51.8473H316.644L320.653 45.1807H325.82L320.304 53.7434L326.071 62.7892H320.904L316.614 55.9941H314.426V62.7892H309.737Z" fill="#2B547C"/>
<path d="M326.396 62.7892L333.328 45.1807H338.366L345.298 62.7892H340.511L339.5 60.0186H332.2L331.189 62.7892H326.396ZM333.579 56.2693H338.115L336.276 51.1929C336.066 50.614 335.914 50.0158 335.823 49.407C335.734 50.0164 335.582 50.6149 335.369 51.1929L333.579 56.2693Z" fill="#2B547C"/>
<path d="M346.058 62.7892L350.821 56.4223C349.72 56.0863 348.762 55.3956 348.096 54.4582C347.431 53.5208 347.095 52.3896 347.143 51.2418C347.143 46.8382 350.545 45.1807 354.375 45.1807H361.81V62.7892H357.146V57.0522H355.509L351.354 62.7892H346.058ZM354.449 53.2785H357.17V49.2051H354.449C352.862 49.2051 351.954 49.884 351.954 51.2418C351.954 52.5996 352.862 53.2785 354.449 53.2785Z" fill="#2B547C"/>
<path d="M173.572 96.6359L180.504 79.0273H185.542L192.455 96.6359H187.669L186.657 93.8714H179.37L178.358 96.6359H173.572ZM180.755 90.0977H185.29L183.452 85.0151C183.239 84.4372 183.087 83.8386 182.998 83.2292C182.91 83.8386 182.758 84.4372 182.545 85.0151L180.755 90.0977Z" fill="#2B547C"/>
<path d="M202.808 85.2786C206.387 85.2786 209.55 86.563 209.55 90.9666C209.55 95.3703 206.399 96.6486 202.808 96.6486H194.668V79.04H208.054V83.1807H199.332V85.2663L202.808 85.2786ZM202.759 92.618C203.843 92.618 204.751 92.3183 204.751 90.9605C204.751 89.6027 203.843 89.2969 202.759 89.2969H199.332V92.618H202.759Z" fill="#2B547C"/>
<path d="M210.144 96.6357L216.194 87.4614L210.524 79.0088H215.967L219.166 84.1892L222.372 79.0088H227.815L222.145 87.4614L228.195 96.6357H222.746L219.166 90.7274L215.587 96.6357H210.144Z" fill="#2B547C"/>
<path d="M228.446 96.6364L235.36 79.04H240.398L247.348 96.6364H242.561L241.55 93.8718H234.244L233.233 96.6364H228.446ZM235.629 90.0981H240.165L238.326 85.0156C238.113 84.4376 237.961 83.8391 237.873 83.2296C237.784 83.8391 237.632 84.4376 237.419 85.0156L235.629 90.0981Z" fill="#2B547C"/>
<path d="M255.494 97.0279C253.217 97.0226 250.958 96.6296 248.813 95.8658V91.4683C250.766 92.4448 252.93 92.9279 255.114 92.875C256.775 92.875 258.24 92.4713 258.24 91.1135C258.24 89.9576 257.308 89.6334 255.892 89.6334H251.712V85.6089H255.592C256.818 85.6089 257.535 85.2053 257.535 84.3245C257.535 83.3215 256.628 82.7894 254.636 82.7894C252.702 82.8163 250.801 83.2983 249.089 84.1961V79.7985C250.971 79.0352 252.984 78.6427 255.016 78.6426C259.374 78.6426 262.199 80.2267 262.199 83.5355C262.224 84.3805 261.964 85.2093 261.46 85.8892C260.957 86.569 260.239 87.0605 259.423 87.2848C261.39 87.8964 262.904 89.3215 262.904 91.8352C262.941 95.8414 259.098 97.0279 255.494 97.0279Z" fill="#2B547C"/>
<path d="M274.586 78.6663C276.353 78.6543 278.101 79.0323 279.704 79.7733V84.1709C278.476 83.2251 276.964 82.7208 275.414 82.7397C272.619 82.7397 269.848 84.2749 269.848 88.0975C269.848 91.5164 272.619 92.9232 275.365 92.9232C277.001 92.997 278.604 92.4483 279.851 91.388V95.9201C278.241 96.6665 276.484 97.0447 274.709 97.0272C269.873 97.0272 265.055 94.3849 265.055 88.0975C265.043 81.4553 269.836 78.6663 274.586 78.6663Z" fill="#2B547C"/>
<path d="M282.916 96.6364V79.04H287.58V85.7067H289.799L293.807 79.04H298.974L293.427 87.6027L299.225 96.6364H294.058L289.768 89.8474H287.58V96.6364H282.916Z" fill="#2B547C"/>
<path d="M299.575 96.6359L306.507 79.0273H311.551L318.483 96.6359H313.69L312.685 93.8714H305.373L304.368 96.6359H299.575ZM306.758 90.0977H311.3L309.461 85.0151C309.245 84.4381 309.093 83.8392 309.007 83.2292C308.918 83.839 308.764 84.4376 308.548 85.0151L306.758 90.0977Z" fill="#2B547C"/>
<path d="M319.237 96.6359L323.999 90.2751C322.898 89.9379 321.94 89.246 321.274 88.3076C320.609 87.3692 320.274 86.2371 320.322 85.0885C320.322 80.6909 323.724 79.0273 327.554 79.0273H334.989V96.6359H330.361V90.8989H328.719L324.557 96.6359H319.237ZM327.634 87.1252H330.361V83.0518H327.64C326.053 83.0518 325.146 83.7307 325.146 85.0885C325.146 86.4463 326.071 87.1374 327.634 87.1374V87.1252Z" fill="#2B547C"/>
<path d="M174.068 134.159V126.483H176.084C178.352 122.459 178.861 117.554 178.861 112.905H191.463V126.483H193.73V134.159H189.697V130.489H178.107V134.159H174.068ZM181 126.483H186.798V117.052H183.121C182.9 120.489 182.391 123.921 181.006 126.483H181Z" fill="#2B547C"/>
<path d="M207.827 130.508V123.315C207.827 122.361 207.827 121.254 207.925 120.422L201.036 130.508H196.629V112.905H201.288V120.098C201.288 121.077 201.288 122.184 201.189 123.015L208.097 112.905H212.504V130.508H207.827Z" fill="#2B547C"/>
<path d="M214.68 130.508L221.612 112.905H226.656L233.588 130.508H228.795L227.79 127.743H220.478L219.473 130.508H214.68ZM221.875 123.969H226.417L224.578 118.887C224.361 118.31 224.209 117.711 224.125 117.101C224.035 117.71 223.883 118.309 223.671 118.887L221.875 123.969Z" fill="#2B547C"/>
<path d="M243.622 112.538C245.386 112.529 247.131 112.907 248.733 113.645V118.043C247.506 117.095 245.995 116.588 244.443 116.606C241.648 116.606 238.872 118.141 238.872 121.963C238.872 125.382 241.648 126.795 244.388 126.795C246.024 126.865 247.626 126.317 248.874 125.26V129.786C247.264 130.532 245.507 130.91 243.732 130.893C238.89 130.893 234.079 128.251 234.079 121.963C234.066 115.315 238.853 112.538 243.622 112.538Z" fill="#2B547C"/>
<path d="M251.939 130.508V112.905H267.844V130.508H263.186V117.052H256.603V130.508H251.939Z" fill="#2B547C"/>
<path d="M280.219 112.538C286.52 112.538 289.67 116.819 289.67 121.712C289.67 126.605 286.52 130.887 280.219 130.887C273.918 130.887 270.768 126.605 270.768 121.712C270.768 116.819 273.918 112.538 280.219 112.538ZM280.219 116.819C277.154 116.819 275.555 118.905 275.555 121.712C275.555 124.52 277.167 126.605 280.219 126.605C283.271 126.605 284.883 124.52 284.883 121.712C284.883 118.905 283.265 116.819 280.219 116.819Z" fill="#2B547C"/>
<path d="M299.605 112.905C303.963 112.905 307.291 114.312 307.291 118.942C307.291 123.572 303.963 124.948 299.605 124.979H297.264V130.483H292.6V112.905H299.605ZM299.826 116.93H297.264V120.954H299.808C301.223 120.954 302.48 120.526 302.48 118.942C302.48 117.358 301.242 116.93 299.826 116.93Z" fill="#2B547C"/>
<path d="M306.685 130.508L313.617 112.905H318.661L325.587 130.508H320.8L319.795 127.743H312.483L311.478 130.508H306.685ZM313.868 123.969H318.404L316.565 118.887C316.353 118.309 316.201 117.71 316.111 117.101C316.027 117.711 315.875 118.31 315.658 118.887L313.868 123.969Z" fill="#2B547C"/>
</svg>
