<svg width="232" height="106" viewBox="0 0 232 106" fill="none" xmlns="http://www.w3.org/2000/svg">
<path d="M35.4172 30.4385H16.4958L15.5235 63.7193L16.8697 67.9822C16.8697 67.9822 18.8142 72.6191 19.1134 72.6191C19.4125 72.6191 22.5536 75.835 22.5536 75.835L27.1905 78.3778L32.7996 79.724L35.5668 78.9761" fill="white"/>
<path d="M32.7248 30.4395V79.725L35.8659 79.351L40.7272 77.257L44.9153 74.1158L47.4581 70.8251L49.0287 67.0109C49.0287 67.0109 49.5522 64.6177 49.5522 63.9446C49.5522 63.3463 49.4774 59.0086 49.4774 59.0086V30.589L32.7248 30.4395Z" fill="#009848"/>
<path d="M42.2977 62.0002H39.2314C39.2314 62.0002 37.5861 58.4103 33.4727 58.4103C29.3594 58.4103 27.2653 62.0002 27.2653 62.0002H23.825C20.6839 58.2607 16.3462 62.1497 16.3462 62.1497V61.1775C17.3932 59.9809 19.5621 59.3078 21.5814 59.5321C21.6562 59.5321 21.6562 59.4573 21.5814 59.4573C19.2629 58.0364 16.3462 59.9809 16.3462 59.9809V58.9338C19.936 57.1389 22.5536 58.4103 23.3015 58.7095C23.3763 58.7095 23.4511 58.7095 23.3763 58.6347C22.7032 56.2415 23.825 55.4188 24.0494 54.8953C24.1242 54.5961 24.0494 54.1474 24.0494 53.923C23.9746 53.4743 23.825 53.1003 23.6755 52.876C22.8528 51.455 21.4318 52.4272 21.1326 52.7264V52.8012L22.0301 53.4743C22.1049 53.4743 22.1049 53.5491 22.1797 53.4743C22.8528 53.3995 23.3015 54.1474 23.4511 54.4465C23.4511 54.5213 23.4511 54.5961 23.3763 54.5961H17.9915C17.9167 54.5961 17.9167 54.5213 17.9915 54.5213C18.1411 54.4465 18.3655 54.297 18.8142 53.8482C19.0386 50.6323 21.5066 48.3887 21.5066 48.3887H30.1072V49.3609H29.2846V50.034H28.2375C29.4341 51.0811 29.4341 53.6239 29.5837 53.7734C29.7333 53.8482 30.2568 54.4465 30.2568 54.4465L31.9022 55.344C31.9022 55.344 32.0517 55.4188 32.2013 55.4936C32.3509 55.5684 34.2954 55.5684 34.2954 55.5684C34.2954 55.5684 35.9407 53.5491 38.5583 53.4743C40.5028 53.3995 41.6246 54.6709 41.9986 55.1196C42.0734 55.1944 42.1482 55.2692 42.223 55.4188C42.2977 55.4936 42.4473 55.5684 42.5221 55.4936C43.27 55.2692 43.7187 54.7457 44.6162 54.6709C45.2893 54.5961 45.8128 55.1196 46.5607 55.344C47.6825 55.7179 48.9539 54.5213 48.9539 54.5213C48.9539 54.5213 48.9539 55.1196 48.9539 56.391C47.7573 56.4658 46.4111 56.2414 44.691 56.2414C43.8683 56.2414 43.1204 56.3162 42.6717 56.3162C42.5969 56.3162 42.5221 56.391 42.5221 56.4658C42.5221 57.2885 42.3725 58.3355 41.849 59.3078C41.849 59.3078 41.849 59.3826 41.9238 59.3826C43.7187 58.7095 44.4666 57.812 44.6162 57.5876C44.6162 57.5876 44.691 57.5129 44.7658 57.5876C46.9346 59.3826 49.1035 57.5876 49.1035 57.5876V58.5599C48.2808 59.1582 46.3363 59.1582 46.0372 59.1582L49.1783 60.5792V61.8506C44.9901 58.1859 42.2977 62.0002 42.2977 62.0002Z" fill="#E8C438"/>
<path d="M38.9323 50.8565C38.9323 50.8565 39.2314 50.5573 39.4558 50.4077C39.6054 50.2582 39.6802 50.1834 39.755 50.1086C39.9793 49.8094 39.9045 49.1363 39.9793 48.8372C40.0541 48.538 40.0541 48.3885 40.0541 48.1641C40.0541 48.0145 39.9793 47.5658 40.0541 47.2666C40.0541 47.2666 39.9045 47.1918 39.9045 47.2666C39.6802 47.6406 39.6054 47.9397 39.6054 48.1641C39.6054 48.1641 39.6054 48.2389 39.6054 48.3137C39.3062 48.6876 39.1567 49.3607 39.1567 49.4355C39.1567 49.5103 39.3062 49.7347 39.3062 49.7347L38.7827 50.2582L38.9323 50.8565Z" fill="#E8C438"/>
<path d="M33.024 37.4696V36.8713C33.024 36.8713 33.7718 36.4226 33.8466 35.9739C33.8466 35.5251 33.8466 35.3756 33.8466 35.3756C33.8466 35.3756 33.7718 35.3008 33.6971 35.3008C33.6223 35.3008 32.7996 35.3756 32.5005 35.5251C32.3509 35.5999 32.2013 35.8243 32.2013 35.9739C32.2013 36.1235 32.2013 37.2453 32.2013 37.2453L33.024 37.4696Z" fill="#E8C438"/>
<path d="M35.7164 45.8459C35.9407 45.9207 36.0155 45.6215 36.1651 45.9207C36.1651 45.9207 36.2399 46.2946 35.866 46.519C35.492 46.6685 35.0433 46.5937 34.8937 46.2198C34.8189 45.9954 34.7441 45.6215 34.9685 45.4719C35.1928 45.3223 35.4172 45.0232 35.5668 45.1728L35.866 44.9484C35.866 44.4997 35.7912 43.9014 35.7912 43.9014C35.7912 43.9014 35.7912 43.9014 35.866 43.9014C36.0155 43.9762 36.539 44.2005 36.4642 44.8736C36.4642 44.8736 36.4643 45.3223 36.2399 45.5467C36.0155 45.7711 36.0155 45.6215 35.866 45.5467C35.866 45.5467 35.866 45.3971 35.866 45.2476C35.866 45.2476 35.7912 45.2476 35.6416 45.3971C35.5668 45.4719 35.5668 45.7711 35.7164 45.8459Z" fill="#E8C438"/>
<path d="M35.5668 43.8262V44.5741C35.5668 44.5741 35.492 44.6489 35.2676 44.7985C34.9685 44.948 34.7441 45.0976 34.6693 45.2472C34.6693 45.2472 34.5198 45.322 34.5198 45.2472C34.2206 45.0228 33.9962 44.7985 33.9962 44.6489C33.9962 44.5741 33.9962 44.5741 34.071 44.4993C34.1458 44.3497 34.6693 44.2001 34.6693 44.2001V43.8262C34.6693 43.8262 34.6693 43.8262 34.7441 43.8262C34.8189 43.7514 35.1929 43.8262 35.5668 43.8262Z" fill="#E8C438"/>
<path d="M31.5282 51.1555C31.5282 51.1555 31.5282 50.2581 31.5282 50.1085H31.8273C31.8273 50.1085 31.8273 50.1085 31.8273 50.0337C31.8273 49.8841 31.6778 49.585 31.3038 49.585C30.9299 49.585 30.7803 49.8841 30.7803 50.0337V50.1085C30.7803 50.1085 30.8551 50.1085 31.0795 50.1085C31.0795 50.1833 31.1542 51.1555 31.1542 51.1555H31.5282Z" fill="#E8C438"/>
<path d="M38.7827 49.959L39.1567 51.1556C39.1567 51.1556 38.6332 51.3052 38.4836 51.3799C37.9601 51.5295 37.3617 51.6791 37.0626 51.7539C36.6887 51.8287 35.9408 51.9783 35.6416 51.9783C35.3425 51.9783 35.2677 51.9035 35.1181 51.4547C34.8937 51.006 34.6694 50.0338 34.5946 49.4355C34.5946 49.1363 34.5946 48.538 34.5946 48.538H34.5198C34.2954 48.7624 33.6223 49.585 33.6223 51.0808C33.6223 51.0808 33.6223 51.1556 33.5475 51.1556H32.4257C32.4257 51.1556 32.5005 49.2859 31.8274 48.3884C31.1543 47.491 30.6308 46.9674 31.0795 46.1448C31.7526 44.9482 32.2761 44.2003 32.2761 44.2003C32.2761 44.2003 32.3509 44.0507 32.2761 43.9011C32.2761 43.6768 32.2761 43.1532 32.2014 42.4054C32.1266 41.4331 32.1266 40.0869 32.1266 39.0399C32.1266 38.4416 32.1266 37.8433 32.1266 37.3945H33.4728C33.5475 37.3945 33.5475 37.4693 33.5475 37.4693C33.5475 37.4693 33.0988 38.5164 33.2484 39.5634C33.398 40.6104 33.2484 40.9096 33.1736 41.2835C33.0988 41.807 33.0988 42.5549 33.398 43.0784C33.6971 43.602 33.8467 44.4994 33.0988 44.9482C33.0988 44.9482 33.0988 45.0977 33.0988 45.2473C33.398 46.1448 33.6223 46.5187 34.2206 46.9674C34.2206 46.9674 34.2954 47.117 34.5198 47.117C34.5946 47.117 34.6694 47.117 34.7442 47.0422C34.819 47.0422 34.8937 46.9674 35.0433 46.9674C35.3425 46.9674 35.5668 47.1918 35.7164 47.491C35.7912 47.5657 35.866 47.7901 35.866 47.8649C35.866 48.538 35.6416 48.9119 35.866 49.5102C35.9408 49.7346 36.0156 49.8842 36.0903 50.0338C36.1651 50.2581 36.0903 50.6321 36.0903 50.8564C36.0903 50.9312 36.2399 50.9312 36.3147 51.006C36.7634 50.5573 36.9878 50.6321 37.5113 50.6321C37.8853 50.4825 38.7827 49.959 38.7827 49.959Z" fill="#E8C438"/>
<path d="M31.4534 50.9316H31.9769C31.9769 50.9316 31.9021 52.2778 31.3786 53.1753C30.8551 52.3526 30.7803 50.9316 30.7803 50.9316H31.3038H31.4534Z" fill="#E8C438"/>
<path d="M30.0324 54.3713L30.1072 54.2965C31.0795 53.6234 31.7526 53.7729 31.9769 52.9503C32.2013 52.2024 32.2761 51.6789 32.2761 51.5293C32.2761 51.5293 32.2761 51.5293 32.3509 51.5293H33.4727C33.4727 51.5293 33.5475 51.5293 33.5475 51.6041V55.9418C33.5475 55.9418 33.3231 55.9418 33.2483 55.9418" fill="#E8C438"/>
<path d="M33.4727 55.5683H32.2761C32.2761 55.5683 31.4534 56.1666 30.5559 56.4657C29.6585 56.7649 29.0602 57.1388 28.8358 57.3632C28.6114 57.5876 28.0879 58.1859 28.0879 58.1859L27.4896 58.3354C27.4896 58.3354 27.714 57.8119 28.0879 56.7649C28.5366 55.5683 29.1349 54.97 30.0324 54.2969" fill="#E8C438"/>
<path d="M33.4727 55.5683H32.2761C32.2761 55.5683 31.4534 56.1666 30.5559 56.4657C29.6585 56.7649 29.0602 57.1388 28.8358 57.3632C28.6114 57.5876 28.0879 58.1859 28.0879 58.1859L27.4896 58.3354C27.4896 58.3354 27.714 57.8119 28.0879 56.7649C28.5366 55.5683 29.1349 54.97 30.0324 54.2969" stroke="white" stroke-width="0.186971"/>
<path d="M30.9299 65.2155C30.9299 65.8138 31.0047 66.3373 31.1543 66.4869C31.229 66.5617 31.3786 66.6365 31.5282 66.7113H30.1072C29.9576 66.7113 29.7333 66.6365 29.6585 66.4869C29.5089 66.2625 29.4341 65.739 29.4341 65.2155C29.4341 64.692 29.3593 64.1685 29.2098 63.9441C29.135 63.8693 28.9854 63.7945 28.8358 63.7197H30.2568C30.4064 63.7197 30.6307 63.7945 30.7055 63.9441C30.8551 64.0937 30.8551 64.6172 30.9299 65.2155Z" fill="#E8C438"/>
<path d="M29.6585 70.0026C30.2568 70.0026 30.7803 69.9278 30.9299 69.7782C31.0047 69.7035 31.0795 69.5539 31.1543 69.4043V70.8253C31.1543 70.9748 31.0795 71.1992 30.9299 71.274C30.7055 71.4236 30.182 71.4984 29.6585 71.4984C29.135 71.4984 28.6115 71.5732 28.3871 71.7227C28.3123 71.7975 28.2375 71.9471 28.1627 72.0967V70.6757C28.1627 70.5261 28.2375 70.3018 28.3871 70.227C28.5367 70.0774 29.135 70.0774 29.6585 70.0026Z" fill="#E8C438"/>
<path d="M35.7912 66.4876C35.1929 66.4876 34.6694 66.5624 34.5198 66.712C34.445 66.7868 34.3702 66.9364 34.2954 67.0859V65.665C34.2954 65.5154 34.3702 65.291 34.5198 65.2162C34.7441 65.0666 35.2677 64.9919 35.7912 64.9919C36.3147 64.9919 36.8382 64.9171 37.0626 64.7675C37.1374 64.6927 37.2122 64.5431 37.2869 64.3936V65.8145C37.2869 65.9641 37.2122 66.1885 37.0626 66.2633C36.8382 66.4128 36.3147 66.4876 35.7912 66.4876Z" fill="#E8C438"/>
<path d="M34.4449 71.2741C34.4449 70.6758 34.3701 70.1523 34.2206 70.0027C34.1458 69.9279 33.9962 69.8531 33.8466 69.7783H35.2676C35.4172 69.7783 35.6415 69.8531 35.7163 70.0027C35.8659 70.227 35.9407 70.7506 35.9407 71.2741C35.9407 71.7976 36.0155 72.3211 36.1651 72.5455C36.2398 72.6203 36.3894 72.6951 36.539 72.7699H35.118C34.9685 72.7699 34.7441 72.6951 34.6693 72.5455C34.5197 72.3959 34.5197 71.8724 34.4449 71.2741Z" fill="#E8C438"/>
<path d="M32.7248 65.5901C31.9769 65.5901 31.7526 65.0666 31.9021 64.4683C32.0517 63.496 32.7996 62.2246 32.7996 62.2246C32.7996 62.2246 33.4727 63.496 33.6971 64.4683C33.6971 65.0666 33.4727 65.5901 32.7248 65.5901Z" fill="#E8C438"/>
<path d="M35.3424 68.2822C35.3424 67.5343 35.8659 67.3099 36.4642 67.3847C37.4365 67.5343 38.7079 68.2822 38.7079 68.2822C38.7079 68.2822 37.4365 68.9553 36.4642 69.1796C35.8659 69.2544 35.4172 68.9553 35.3424 68.2822Z" fill="#E8C438"/>
<path d="M32.7248 70.8994C33.4727 70.8994 33.6971 71.4229 33.6223 72.0212C33.4727 72.9935 32.7248 74.2649 32.7248 74.2649C32.7248 74.2649 32.0517 72.9935 31.8274 72.0212C31.7526 71.4229 31.9769 70.9742 32.7248 70.8994Z" fill="#E8C438"/>
<path d="M30.0324 68.2075C30.0324 68.9554 29.5089 69.1798 28.9106 69.105C27.9383 68.9554 26.6669 68.2075 26.6669 68.2075C26.6669 68.2075 27.9383 67.5344 28.9106 67.31C29.5089 67.2353 30.0324 67.5344 30.0324 68.2075Z" fill="#E8C438"/>
<path d="M31.8274 68.2822C31.8274 67.7587 32.2013 67.3848 32.7248 67.3848C33.2483 67.3848 33.6223 67.7587 33.6223 68.2822C33.6223 68.8057 33.2483 69.1797 32.7248 69.1797C32.2013 69.1797 31.8274 68.731 31.8274 68.2822Z" fill="#E8C438"/>
<path d="M32.2013 66.4868C32.2013 66.1877 32.4257 66.0381 32.65 66.0381C32.9492 66.0381 33.0988 66.2624 33.0988 66.4868C33.0988 66.7112 32.8744 66.9355 32.65 66.9355C32.4257 67.0103 32.2013 66.786 32.2013 66.4868Z" fill="#E8C438"/>
<path d="M34.445 67.7588C34.7441 67.7588 34.8937 67.9832 34.8937 68.2075C34.8937 68.5067 34.6693 68.6563 34.445 68.6563C34.1458 68.6563 33.9962 68.4319 33.9962 68.2075C33.9962 67.9832 34.2206 67.7588 34.445 67.7588Z" fill="#E8C438"/>
<path d="M33.1735 70.0023C33.1735 70.3014 32.9492 70.451 32.7248 70.451C32.4256 70.451 32.2761 70.2267 32.2761 70.0023C32.2761 69.7031 32.5004 69.5536 32.7248 69.5536C32.9492 69.4788 33.1735 69.7031 33.1735 70.0023Z" fill="#E8C438"/>
<path d="M30.9299 68.7305C30.6307 68.7305 30.4811 68.5061 30.4811 68.2817C30.4811 67.9826 30.7055 67.833 30.9299 67.833C31.229 67.833 31.3786 68.0574 31.3786 68.2817C31.4534 68.5061 31.229 68.7305 30.9299 68.7305Z" fill="#E8C438"/>
<path d="M22.0301 40.2359C22.0301 40.6099 22.1049 40.909 22.1797 41.0586C22.2545 41.1334 22.3292 41.1334 22.404 41.2082H21.5066C21.357 41.2082 21.2822 41.1334 21.2074 41.0586C21.1326 40.909 21.0578 40.6099 21.0578 40.2359C21.0578 39.862 20.9831 39.5628 20.9083 39.4132C20.8335 39.3385 20.7587 39.3385 20.6839 39.2637H21.5814C21.7309 39.2637 21.8057 39.3385 21.8805 39.4132C22.0301 39.5628 22.0301 39.862 22.0301 40.2359Z" fill="#E8C438"/>
<path d="M21.2822 43.3027C21.6561 43.3027 21.9553 43.2279 22.1049 43.1531C22.1796 43.0783 22.1796 43.0035 22.2544 42.9287V43.8262C22.2544 43.9757 22.1796 44.0505 22.1049 44.1253C21.9553 44.2001 21.6561 44.2749 21.2822 44.2749C20.9082 44.2749 20.6091 44.3497 20.4595 44.4245C20.3847 44.4993 20.3847 44.5741 20.3099 44.6488V43.7514C20.3099 43.6018 20.3847 43.527 20.4595 43.4522C20.5343 43.3027 20.9082 43.3027 21.2822 43.3027Z" fill="#E8C438"/>
<path d="M25.1712 41.0591C24.7973 41.0591 24.4981 41.1339 24.3485 41.2087C24.2738 41.2834 24.2738 41.3582 24.199 41.433V40.5356C24.199 40.386 24.2738 40.3112 24.3485 40.2364C24.4981 40.1616 24.7973 40.0868 25.1712 40.0868C25.5452 40.0868 25.8443 40.012 25.9939 39.9373C26.0687 39.8625 26.0687 39.7877 26.1435 39.7129V40.6104C26.1435 40.7599 26.0687 40.8347 25.9939 40.9095C25.8443 40.9843 25.4704 40.9843 25.1712 41.0591Z" fill="#E8C438"/>
<path d="M24.3485 44.0504C24.3485 43.6764 24.2737 43.3773 24.1989 43.2277C24.1242 43.1529 24.0494 43.1529 23.9746 43.0781H24.872C25.0216 43.0781 25.0964 43.1529 25.1712 43.2277C25.246 43.3773 25.3208 43.6764 25.3208 44.0504C25.3208 44.4243 25.3956 44.7235 25.4703 44.873C25.5451 44.9478 25.6199 44.9478 25.6947 45.0226H24.7973C24.6477 45.0226 24.5729 44.9478 24.4981 44.873C24.3485 44.7983 24.3485 44.4243 24.3485 44.0504Z" fill="#E8C438"/>
<path d="M23.2267 40.4613C22.7779 40.4613 22.6284 40.1621 22.7031 39.7882C22.7779 39.1899 23.2267 38.3672 23.2267 38.3672C23.2267 38.3672 23.6754 39.1899 23.7502 39.7882C23.825 40.1621 23.6754 40.4613 23.2267 40.4613Z" fill="#E8C438"/>
<path d="M24.872 42.1815C24.872 41.7328 25.1712 41.5832 25.5451 41.658C26.1434 41.7328 26.9661 42.1815 26.9661 42.1815C26.9661 42.1815 26.1434 42.6303 25.5451 42.705C25.1712 42.7798 24.872 42.6303 24.872 42.1815Z" fill="#E8C438"/>
<path d="M23.1519 43.8262C23.6006 43.8262 23.7502 44.1253 23.6754 44.4993C23.6006 45.0976 23.1519 45.9202 23.1519 45.9202C23.1519 45.9202 22.7032 45.0976 22.6284 44.4993C22.5536 44.2001 22.7032 43.8262 23.1519 43.8262Z" fill="#E8C438"/>
<path d="M21.5066 42.181C21.5066 42.6298 21.2074 42.7793 20.8335 42.7045C20.2352 42.6298 19.4125 42.181 19.4125 42.181C19.4125 42.181 20.2352 41.7323 20.8335 41.6575C21.2074 41.5079 21.5066 41.6575 21.5066 42.181Z" fill="#E8C438"/>
<path d="M22.6284 42.1813C22.6284 41.8822 22.8527 41.583 23.2267 41.583C23.5258 41.583 23.825 41.8074 23.825 42.1813C23.825 42.4805 23.6006 42.7796 23.2267 42.7796C22.8527 42.7048 22.6284 42.4805 22.6284 42.1813Z" fill="#E8C438"/>
<path d="M22.8528 41.0599C22.8528 40.9103 23.0023 40.7607 23.1519 40.7607C23.3015 40.7607 23.4511 40.9103 23.4511 41.0599C23.4511 41.2095 23.3015 41.359 23.1519 41.359C23.0023 41.359 22.8528 41.2095 22.8528 41.0599Z" fill="#E8C438"/>
<path d="M24.2737 41.8818C24.4233 41.8818 24.5729 42.0314 24.5729 42.181C24.5729 42.3306 24.4233 42.4801 24.2737 42.4801C24.1242 42.4801 23.9746 42.3306 23.9746 42.181C23.9746 41.9566 24.1242 41.8818 24.2737 41.8818Z" fill="#E8C438"/>
<path d="M23.5258 43.2279C23.5258 43.3774 23.3762 43.527 23.2267 43.527C23.0771 43.527 22.9275 43.3774 22.9275 43.2279C22.9275 43.0783 23.0771 42.9287 23.2267 42.9287C23.3762 42.9287 23.5258 43.0783 23.5258 43.2279Z" fill="#E8C438"/>
<path d="M22.1048 42.4801C21.9553 42.4801 21.8057 42.3306 21.8057 42.181C21.8057 42.0314 21.9553 41.8818 22.1048 41.8818C22.2544 41.8818 22.404 42.0314 22.404 42.181C22.404 42.3306 22.2544 42.4801 22.1048 42.4801Z" fill="#E8C438"/>
<path d="M40.8768 40.2359C40.8768 40.6099 40.9516 40.909 41.0263 41.0586C41.1011 41.1334 41.1759 41.1334 41.2507 41.2082H40.3533C40.2037 41.2082 40.1289 41.1334 40.0541 41.0586C39.9793 40.909 39.9045 40.6099 39.9045 40.2359C39.9045 39.862 39.8297 39.5628 39.7549 39.4132C39.6802 39.3385 39.6054 39.3385 39.5306 39.2637H40.428C40.5776 39.2637 40.6524 39.3385 40.7272 39.4132C40.802 39.5628 40.8768 39.862 40.8768 40.2359Z" fill="#E8C438"/>
<path d="M40.054 43.3027C40.428 43.3027 40.7271 43.2279 40.8767 43.1531C40.9515 43.0783 40.9515 43.0035 41.0263 42.9287V43.8262C41.0263 43.9757 40.9515 44.0505 40.8767 44.1253C40.7271 44.2001 40.428 44.2749 40.054 44.2749C39.6801 44.2749 39.3809 44.3497 39.2314 44.4245C39.1566 44.4993 39.1566 44.5741 39.0818 44.6488V43.7514C39.0818 43.6018 39.1566 43.527 39.2314 43.4522C39.3809 43.3027 39.7549 43.3027 40.054 43.3027Z" fill="#E8C438"/>
<path d="M43.9431 41.0591C43.5691 41.0591 43.27 41.1339 43.1204 41.2087C43.0456 41.2834 43.0456 41.3582 42.9708 41.433V40.5356C42.9708 40.386 43.0456 40.3112 43.1204 40.2364C43.27 40.1616 43.5691 40.0868 43.9431 40.0868C44.317 40.0868 44.6162 40.012 44.7657 39.9373C44.8405 39.8625 44.8405 39.7877 44.9153 39.7129V40.6104C44.9153 40.7599 44.8405 40.8347 44.7657 40.9095C44.6162 40.9843 44.317 40.9843 43.9431 41.0591Z" fill="#E8C438"/>
<path d="M43.1204 44.0504C43.1204 43.6764 43.0456 43.3773 42.9708 43.2277C42.896 43.1529 42.8212 43.1529 42.7464 43.0781H43.6439C43.7935 43.0781 43.8682 43.1529 43.943 43.2277C44.0178 43.3773 44.0926 43.6764 44.0926 44.0504C44.0926 44.4243 44.1674 44.7235 44.2422 44.873C44.317 44.9478 44.3918 44.9478 44.4666 45.0226H43.5691C43.4195 45.0226 43.3447 44.9478 43.2699 44.873C43.1952 44.7983 43.1204 44.4243 43.1204 44.0504Z" fill="#E8C438"/>
<path d="M41.9986 40.4613C41.5499 40.4613 41.4003 40.1621 41.4751 39.7882C41.6247 39.1899 41.9986 38.3672 41.9986 38.3672C41.9986 38.3672 42.4473 39.1899 42.5221 39.7882C42.5969 40.1621 42.4473 40.4613 41.9986 40.4613Z" fill="#E8C438"/>
<path d="M43.7187 42.1815C43.7187 41.7328 44.0179 41.5832 44.3918 41.658C44.9901 41.7328 45.8128 42.1815 45.8128 42.1815C45.8128 42.1815 44.9901 42.6303 44.3918 42.705C44.0179 42.7798 43.7187 42.6303 43.7187 42.1815Z" fill="#E8C438"/>
<path d="M41.9986 43.8262C42.4473 43.8262 42.5969 44.1253 42.5221 44.4993C42.4473 45.0976 41.9986 45.9202 41.9986 45.9202C41.9986 45.9202 41.5499 45.0976 41.4751 44.4993C41.4003 44.2001 41.5499 43.8262 41.9986 43.8262Z" fill="#E8C438"/>
<path d="M40.3532 42.181C40.3532 42.6298 40.054 42.7793 39.6801 42.7045C39.0818 42.6298 38.2591 42.181 38.2591 42.181C38.2591 42.181 39.0818 41.7323 39.6801 41.6575C39.9793 41.5079 40.2784 41.6575 40.3532 42.181Z" fill="#E8C438"/>
<path d="M41.4003 42.1813C41.4003 41.8822 41.6247 41.583 41.9986 41.583C42.2978 41.583 42.5969 41.8074 42.5969 42.1813C42.5969 42.4805 42.3726 42.7796 41.9986 42.7796C41.6995 42.7048 41.4003 42.4805 41.4003 42.1813Z" fill="#E8C438"/>
<path d="M41.6994 41.0599C41.6994 40.9103 41.849 40.7607 41.9985 40.7607C42.1481 40.7607 42.2977 40.9103 42.2977 41.0599C42.2977 41.2095 42.1481 41.359 41.9985 41.359C41.849 41.359 41.6994 41.2095 41.6994 41.0599Z" fill="#E8C438"/>
<path d="M43.1204 41.8818C43.27 41.8818 43.4195 42.0314 43.4195 42.181C43.4195 42.3306 43.27 42.4801 43.1204 42.4801C42.9708 42.4801 42.8212 42.3306 42.8212 42.181C42.8212 41.9566 42.9708 41.8818 43.1204 41.8818Z" fill="#E8C438"/>
<path d="M42.2977 43.2279C42.2977 43.3774 42.1481 43.527 41.9985 43.527C41.849 43.527 41.6994 43.3774 41.6994 43.2279C41.6994 43.0783 41.849 42.9287 41.9985 42.9287C42.1481 42.9287 42.2977 43.0783 42.2977 43.2279Z" fill="#E8C438"/>
<path d="M40.8767 42.4801C40.7272 42.4801 40.5776 42.3306 40.5776 42.181C40.5776 42.0314 40.7272 41.8818 40.8767 41.8818C41.0263 41.8818 41.1759 42.0314 41.1759 42.181C41.1759 42.3306 41.1011 42.4801 40.8767 42.4801Z" fill="#E8C438"/>
<path d="M36.3894 57.5127C36.4642 57.5875 36.3894 57.6623 36.3146 57.6623C35.6415 57.7371 34.5945 57.6623 34.2953 57.7371C33.9962 57.8119 32.1265 57.9615 31.603 57.9615C31.0794 58.0363 29.808 58.0363 29.5837 58.0363C29.3593 58.0363 27.9383 58.1111 27.4148 58.2606C28.3871 57.6623 28.2375 57.438 28.6114 57.064C28.9854 56.6901 29.8828 56.0918 30.8551 56.5405C31.5282 56.7649 31.7525 56.6153 32.5752 56.7649C33.0239 56.8397 33.3979 56.7649 33.3979 56.7649C33.3979 56.7649 33.4727 56.6153 33.8466 56.3161C33.9214 56.2413 33.9962 56.3161 34.071 56.3909C34.2953 56.7649 34.5945 56.9892 34.9684 56.9892C35.5667 57.064 35.8659 57.1388 36.3894 57.5127Z" fill="#E8C438"/>
<path d="M36.3894 57.5127C36.4642 57.5875 36.3894 57.6623 36.3146 57.6623C35.6415 57.7371 34.5945 57.6623 34.2953 57.7371C33.9962 57.8119 32.1265 57.9615 31.603 57.9615C31.0794 58.0363 29.808 58.0363 29.5837 58.0363C29.3593 58.0363 27.9383 58.1111 27.4148 58.2606C28.3871 57.6623 28.2375 57.438 28.6114 57.064C28.9854 56.6901 29.8828 56.0918 30.8551 56.5405C31.5282 56.7649 31.7525 56.6153 32.5752 56.7649C33.0239 56.8397 33.3979 56.7649 33.3979 56.7649C33.3979 56.7649 33.4727 56.6153 33.8466 56.3161C33.9214 56.2413 33.9962 56.3161 34.071 56.3909C34.2953 56.7649 34.5945 56.9892 34.9684 56.9892C35.5667 57.064 35.8659 57.1388 36.3894 57.5127Z" stroke="white" stroke-width="0.186971"/>
<path d="M50.3001 62.5235C50.3001 72.246 42.3725 80.1735 32.6501 80.1735C22.9276 80.1735 15 72.246 15 62.5235V62.5983V29.6914H50.3001V62.5983V62.5235ZM16.4958 31.1872V62.5235C16.4958 71.4233 23.7502 78.6778 32.6501 78.6778C41.5499 78.6778 48.8043 71.4233 48.8043 62.5235V31.1872H16.4958Z" fill="#E8C438"/>
<path d="M32.7248 36.3469H35.118C35.1928 36.3469 35.3424 36.2721 35.3424 36.1973C35.492 35.8234 35.9407 35.0755 36.6886 35.0755C37.6608 35.0755 38.4087 35.9729 38.7827 36.3469C39.3062 36.9452 39.9793 37.4687 40.8019 37.5435C41.0263 37.5435 41.3255 37.5435 41.475 37.3939C41.6994 37.2443 41.7742 36.9452 41.6994 36.7208C41.6246 36.4965 41.4002 36.2721 41.1759 36.2721C40.8767 36.2721 40.6524 36.4965 40.6524 36.7956C40.6524 36.9452 40.7271 37.0948 40.8767 37.1696C40.8767 37.1696 40.6524 37.2443 40.2036 37.02C39.0818 36.4965 38.7827 35.1503 37.8852 34.4772C37.3617 34.0284 36.3894 34.0284 35.8659 34.4772C35.492 34.7763 35.1928 35.2251 35.0432 35.6738C34.9684 35.7486 34.8937 35.8234 34.8189 35.8234H32.7248H30.5559C30.4811 35.8234 30.3316 35.7486 30.3316 35.6738C30.1072 35.2251 29.8828 34.7763 29.5089 34.4772C28.9854 34.0284 28.0131 34.1032 27.4896 34.4772C26.5921 35.1503 26.2182 36.4965 25.1712 37.02C24.7224 37.2443 24.4981 37.1696 24.4981 37.1696C24.6477 37.0948 24.7224 36.9452 24.7224 36.7956C24.7224 36.4965 24.4981 36.2721 24.1989 36.2721C23.9746 36.2721 23.7502 36.4965 23.6754 36.7208C23.6006 37.02 23.7502 37.2443 23.8998 37.3939C24.1241 37.5435 24.3485 37.6183 24.5729 37.5435C25.3955 37.4687 26.0686 36.9452 26.5922 36.3469C26.9661 35.9729 27.714 35.0755 28.6862 35.0755C29.4341 35.0755 29.8828 35.8234 30.0324 36.1973C30.1072 36.2721 30.182 36.3469 30.2568 36.3469H32.7248Z" fill="#E8C438"/>
<path d="M70.3186 53.4574H67.8589V53.1754C67.9561 53.1236 68.0695 53.0782 68.1991 53.0393C68.3288 53.0004 68.4811 52.968 68.6561 52.9421V47.1766C68.5265 47.1507 68.3936 47.1183 68.2575 47.0794C68.1214 47.034 67.9885 46.9854 67.8589 46.9336V46.6516H74.2757V46.9336C74.1525 46.9984 74.0229 47.0502 73.8868 47.0891C73.7507 47.1215 73.6146 47.1507 73.4785 47.1766V52.9421C73.7377 52.9745 74.0035 53.0523 74.2757 53.1754V53.4574H71.8159V53.1754C71.9585 53.0847 72.2016 53.0069 72.5451 52.9421V47.1572H69.5895V52.9421C69.8422 52.9939 70.0853 53.0717 70.3186 53.1754V53.4574Z" fill="black"/>
<path d="M74.9541 51.0267C74.9541 50.6184 75.0059 50.2587 75.1096 49.9475C75.2198 49.6299 75.3754 49.3642 75.5763 49.1503C75.7772 48.9299 76.0171 48.7646 76.2958 48.6545C76.581 48.5378 76.8953 48.4794 77.2388 48.4794C77.6407 48.4794 77.9875 48.541 78.2792 48.6642C78.5708 48.7873 78.8074 48.9623 78.9889 49.1892C79.1769 49.4096 79.313 49.6753 79.3972 49.9864C79.488 50.2976 79.5334 50.6443 79.5334 51.0267C79.5334 51.8434 79.3259 52.4721 78.9111 52.9129C78.4963 53.3537 77.9389 53.574 77.2388 53.574C76.8499 53.574 76.5129 53.5157 76.2277 53.399C75.9425 53.2759 75.7059 53.1041 75.518 52.8837C75.33 52.6569 75.1874 52.3879 75.0902 52.0768C74.9994 51.7592 74.9541 51.4092 74.9541 51.0267ZM75.8874 51.0267C75.8874 51.3184 75.9134 51.5939 75.9652 51.8532C76.0235 52.1124 76.111 52.3393 76.2277 52.5337C76.3509 52.7217 76.5097 52.8708 76.7041 52.981C76.8986 53.0911 77.1319 53.1462 77.4041 53.1462C77.7541 53.1462 78.0393 52.9745 78.2597 52.6309C78.4866 52.2874 78.6 51.7527 78.6 51.0267C78.6 50.7286 78.5708 50.4531 78.5125 50.2003C78.4606 49.9411 78.3764 49.7174 78.2597 49.5295C78.143 49.335 77.994 49.1827 77.8125 49.0725C77.631 48.9623 77.4139 48.9072 77.1611 48.9072C76.7787 48.9072 76.4708 49.079 76.2374 49.4225C76.0041 49.7661 75.8874 50.3008 75.8874 51.0267Z" fill="black"/>
<path d="M84.0809 52.7768C83.9642 53.0036 83.773 53.1949 83.5073 53.3504C83.248 53.4995 82.9434 53.574 82.5934 53.574C82.2109 53.574 81.8771 53.5157 81.5919 53.399C81.3132 53.2759 81.0799 53.1041 80.8919 52.8837C80.704 52.6569 80.5614 52.3879 80.4641 52.0768C80.3734 51.7592 80.328 51.4092 80.328 51.0267C80.328 50.2036 80.5289 49.5748 80.9308 49.1406C81.3327 48.6998 81.8804 48.4794 82.5739 48.4794C82.8915 48.4794 83.1735 48.5086 83.4198 48.567C83.6726 48.6188 83.8864 48.6901 84.0614 48.7808C84.042 48.9947 84.0064 49.2346 83.9545 49.5003C83.9026 49.7661 83.8378 49.9864 83.7601 50.1614H83.4975L83.0892 49.0045C83.0438 48.9721 82.992 48.9494 82.9336 48.9364C82.8753 48.917 82.7781 48.9072 82.642 48.9072C82.2012 48.9072 81.8609 49.0693 81.6211 49.3934C81.3813 49.711 81.2614 50.2522 81.2614 51.017C81.2614 51.2633 81.2938 51.5031 81.3586 51.7365C81.4299 51.9698 81.5336 52.1805 81.6697 52.3684C81.8123 52.5499 81.9873 52.6958 82.1947 52.806C82.4086 52.9161 82.6549 52.9712 82.9336 52.9712C83.1605 52.9712 83.3582 52.9388 83.5267 52.874C83.6952 52.8092 83.8378 52.7314 83.9545 52.6407L84.0809 52.7768Z" fill="black"/>
<path d="M84.8569 51.0267C84.8569 50.6184 84.9088 50.2587 85.0125 49.9475C85.1227 49.6299 85.2783 49.3642 85.4792 49.1503C85.6801 48.9299 85.9199 48.7646 86.1986 48.6545C86.4838 48.5378 86.7982 48.4794 87.1417 48.4794C87.5436 48.4794 87.8904 48.541 88.182 48.6642C88.4737 48.7873 88.7103 48.9623 88.8918 49.1892C89.0797 49.4096 89.2159 49.6753 89.3001 49.9864C89.3909 50.2976 89.4362 50.6443 89.4362 51.0267C89.4362 51.8434 89.2288 52.4721 88.814 52.9129C88.3992 53.3537 87.8417 53.574 87.1417 53.574C86.7528 53.574 86.4158 53.5157 86.1306 53.399C85.8454 53.2759 85.6088 53.1041 85.4209 52.8837C85.2329 52.6569 85.0903 52.3879 84.9931 52.0768C84.9023 51.7592 84.8569 51.4092 84.8569 51.0267ZM85.7903 51.0267C85.7903 51.3184 85.8162 51.5939 85.8681 51.8532C85.9264 52.1124 86.0139 52.3393 86.1306 52.5337C86.2537 52.7217 86.4125 52.8708 86.607 52.981C86.8014 53.0911 87.0348 53.1462 87.307 53.1462C87.657 53.1462 87.9422 52.9745 88.1626 52.6309C88.3894 52.2874 88.5029 51.7527 88.5029 51.0267C88.5029 50.7286 88.4737 50.4531 88.4154 50.2003C88.3635 49.9411 88.2793 49.7174 88.1626 49.5295C88.0459 49.335 87.8968 49.1827 87.7154 49.0725C87.5339 48.9623 87.3167 48.9072 87.0639 48.9072C86.6815 48.9072 86.3737 49.079 86.1403 49.4225C85.907 49.7661 85.7903 50.3008 85.7903 51.0267Z" fill="black"/>
<path d="M90.8337 52.6212C90.9244 52.4657 91.0055 52.2583 91.0768 51.999C91.1481 51.7397 91.2064 51.4545 91.2518 51.1434C91.3036 50.8323 91.3425 50.5082 91.3684 50.1712C91.3944 49.8276 91.4073 49.4971 91.4073 49.1795C91.2777 49.1406 91.1578 49.092 91.0476 49.0336C90.9439 48.9753 90.8467 48.9137 90.7559 48.8489V48.5961H94.7324V48.8489C94.525 48.9656 94.3111 49.0434 94.0907 49.0822V52.981C94.2268 53.0134 94.3467 53.049 94.4505 53.0879C94.5542 53.1268 94.6481 53.1689 94.7324 53.2143V53.4574H92.6421V53.2143C92.7976 53.1041 92.9888 53.0263 93.2157 52.981V49.0239H91.9323C91.9258 49.3674 91.9064 49.7336 91.874 50.1225C91.8416 50.505 91.793 50.8841 91.7282 51.2601C91.6633 51.6295 91.5791 51.9795 91.4754 52.3101C91.3717 52.6342 91.2453 52.9064 91.0962 53.1268C90.973 53.3148 90.8402 53.4444 90.6976 53.5157C90.555 53.5935 90.4221 53.6194 90.299 53.5935C90.2017 53.4833 90.1077 53.3407 90.017 53.1657C89.9327 52.9842 89.8841 52.8189 89.8712 52.6698L90.0073 52.4268L90.8337 52.6212Z" fill="black"/>
<path d="M97.0072 50.5795C97.1173 50.5665 97.2405 50.5503 97.3766 50.5309C97.5127 50.5114 97.7104 50.5017 97.9697 50.5017C98.5012 50.5017 98.9193 50.6152 99.2239 50.842C99.5285 51.0689 99.6808 51.4254 99.6808 51.9115C99.6808 52.1708 99.629 52.4009 99.5253 52.6018C99.4281 52.7962 99.2919 52.9615 99.1169 53.0976C98.9419 53.2273 98.7313 53.3277 98.485 53.399C98.2387 53.4638 97.9697 53.4963 97.678 53.4963C97.503 53.4963 97.3053 53.4898 97.0849 53.4768C96.871 53.4638 96.6409 53.4574 96.3946 53.4574H95.4905V53.2143C95.5877 53.1624 95.6914 53.1203 95.8016 53.0879C95.9118 53.049 96.022 53.0134 96.1321 52.981V49.0822C96.009 49.0563 95.8956 49.0239 95.7919 48.985C95.6881 48.9461 95.5877 48.9008 95.4905 48.8489V48.5961H97.5905V48.8489C97.435 48.9396 97.2405 49.0174 97.0072 49.0822V50.5795ZM97.0072 53.0393C97.0914 53.0458 97.1757 53.0523 97.2599 53.0587C97.3442 53.0652 97.4317 53.0685 97.5225 53.0685C97.8984 53.0685 98.1901 52.9745 98.3975 52.7865C98.6114 52.5985 98.7183 52.3036 98.7183 51.9018C98.7183 51.7203 98.6892 51.568 98.6308 51.4448C98.5725 51.3152 98.4947 51.2147 98.3975 51.1434C98.3003 51.0656 98.1836 51.0105 98.0475 50.9781C97.9178 50.9457 97.7785 50.9295 97.6294 50.9295C97.5257 50.9295 97.4187 50.9328 97.3086 50.9392C97.2049 50.9392 97.1044 50.949 97.0072 50.9684V53.0393Z" fill="black"/>
<path d="M104.2 52.7768C104.083 53.0036 103.892 53.1949 103.626 53.3504C103.367 53.4995 103.062 53.574 102.712 53.574C102.33 53.574 101.996 53.5157 101.711 53.399C101.432 53.2759 101.199 53.1041 101.011 52.8837C100.823 52.6569 100.68 52.3879 100.583 52.0768C100.492 51.7592 100.447 51.4092 100.447 51.0267C100.447 50.2036 100.648 49.5748 101.05 49.1406C101.452 48.6998 101.999 48.4794 102.693 48.4794C103.011 48.4794 103.293 48.5086 103.539 48.567C103.792 48.6188 104.006 48.6901 104.181 48.7808C104.161 48.9947 104.125 49.2346 104.074 49.5003C104.022 49.7661 103.957 49.9864 103.879 50.1614H103.617L103.208 49.0045C103.163 48.9721 103.111 48.9494 103.053 48.9364C102.994 48.917 102.897 48.9072 102.761 48.9072C102.32 48.9072 101.98 49.0693 101.74 49.3934C101.5 49.711 101.38 50.2522 101.38 51.017C101.38 51.2633 101.413 51.5031 101.478 51.7365C101.549 51.9698 101.653 52.1805 101.789 52.3684C101.931 52.5499 102.106 52.6958 102.314 52.806C102.528 52.9161 102.774 52.9712 103.053 52.9712C103.28 52.9712 103.477 52.9388 103.646 52.874C103.814 52.8092 103.957 52.7314 104.074 52.6407L104.2 52.7768Z" fill="black"/>
<path d="M108.068 53.4574H105.909V53.2143C106.11 53.1106 106.324 53.0328 106.551 52.981V49.0239H105.647L105.219 50.1906H104.966C104.934 49.9119 104.908 49.6397 104.889 49.3739C104.869 49.1017 104.856 48.8424 104.85 48.5961H109.128C109.121 48.8295 109.108 49.0855 109.089 49.3642C109.076 49.6364 109.05 49.9119 109.011 50.1906H108.758L108.33 49.0239H107.426V52.981C107.731 53.0587 107.945 53.1365 108.068 53.2143V53.4574Z" fill="black"/>
<path d="M114.077 52.0379C114.077 52.2971 114.019 52.5208 113.902 52.7087C113.786 52.8902 113.627 53.0393 113.426 53.156C113.231 53.2726 113.004 53.3601 112.745 53.4185C112.486 53.4703 112.214 53.4963 111.929 53.4963C111.721 53.4963 111.556 53.493 111.433 53.4865C111.31 53.4865 111.206 53.4833 111.122 53.4768C111.037 53.4703 110.966 53.4638 110.908 53.4574C110.849 53.4574 110.785 53.4574 110.713 53.4574H109.78V53.2143C109.981 53.1106 110.195 53.0328 110.422 52.981V49.0822C110.175 49.0369 109.961 48.9591 109.78 48.8489V48.5961H110.655C110.81 48.5961 110.943 48.5961 111.053 48.5961C111.164 48.5896 111.267 48.5832 111.365 48.5767C111.462 48.5702 111.559 48.567 111.656 48.567C111.754 48.5605 111.86 48.5572 111.977 48.5572C112.548 48.5572 112.992 48.6447 113.309 48.8197C113.627 48.9883 113.786 49.2864 113.786 49.7142C113.786 49.8698 113.753 50.0091 113.688 50.1323C113.623 50.2554 113.539 50.3624 113.436 50.4531C113.332 50.5439 113.215 50.6216 113.085 50.6865C112.956 50.7448 112.829 50.7869 112.706 50.8128C112.888 50.8258 113.06 50.8615 113.222 50.9198C113.39 50.9781 113.536 51.0591 113.659 51.1629C113.789 51.2601 113.889 51.3832 113.961 51.5323C114.038 51.6749 114.077 51.8434 114.077 52.0379ZM111.297 53.0393C111.387 53.0587 111.501 53.0685 111.637 53.0685C111.779 53.0685 111.896 53.0685 111.987 53.0685C112.369 53.0685 112.654 52.9874 112.842 52.8254C113.03 52.6569 113.124 52.4203 113.124 52.1157C113.124 51.7981 113.011 51.5615 112.784 51.4059C112.557 51.2439 112.266 51.1629 111.909 51.1629H111.297V53.0393ZM111.297 50.8712L112.376 50.774C112.492 50.7156 112.609 50.6087 112.726 50.4531C112.849 50.2911 112.91 50.0804 112.91 49.8212C112.91 49.5036 112.813 49.2864 112.619 49.1697C112.431 49.0466 112.152 48.985 111.783 48.985C111.711 48.985 111.63 48.9883 111.54 48.9947C111.449 48.9947 111.368 49.0045 111.297 49.0239V50.8712Z" fill="black"/>
<path d="M114.936 51.0267C114.936 50.6184 114.988 50.2587 115.091 49.9475C115.202 49.6299 115.357 49.3642 115.558 49.1503C115.759 48.9299 115.999 48.7646 116.278 48.6545C116.563 48.5378 116.877 48.4794 117.221 48.4794C117.623 48.4794 117.969 48.541 118.261 48.6642C118.553 48.7873 118.789 48.9623 118.971 49.1892C119.159 49.4096 119.295 49.6753 119.379 49.9864C119.47 50.2976 119.515 50.6443 119.515 51.0267C119.515 51.8434 119.308 52.4721 118.893 52.9129C118.478 53.3537 117.921 53.574 117.221 53.574C116.832 53.574 116.495 53.5157 116.21 53.399C115.924 53.2759 115.688 53.1041 115.5 52.8837C115.312 52.6569 115.169 52.3879 115.072 52.0768C114.981 51.7592 114.936 51.4092 114.936 51.0267ZM115.869 51.0267C115.869 51.3184 115.895 51.5939 115.947 51.8532C116.005 52.1124 116.093 52.3393 116.21 52.5337C116.333 52.7217 116.491 52.8708 116.686 52.981C116.88 53.0911 117.114 53.1462 117.386 53.1462C117.736 53.1462 118.021 52.9745 118.242 52.6309C118.468 52.2874 118.582 51.7527 118.582 51.0267C118.582 50.7286 118.553 50.4531 118.494 50.2003C118.442 49.9411 118.358 49.7174 118.242 49.5295C118.125 49.335 117.976 49.1827 117.794 49.0725C117.613 48.9623 117.396 48.9072 117.143 48.9072C116.76 48.9072 116.453 49.079 116.219 49.4225C115.986 49.7661 115.869 50.3008 115.869 51.0267Z" fill="black"/>
<path d="M124.288 52.9421C124.463 52.9615 124.628 52.9939 124.784 53.0393C124.939 53.0782 125.085 53.1236 125.221 53.1754V53.4574H122.557V53.1754C122.687 53.1106 122.82 53.062 122.956 53.0296C123.092 52.9972 123.225 52.968 123.355 52.9421V47.1766C123.205 47.1507 123.066 47.1183 122.936 47.0794C122.807 47.034 122.68 46.9854 122.557 46.9336V46.6516H123.432C123.692 46.6516 123.974 46.6387 124.278 46.6127C124.583 46.5868 124.875 46.5738 125.153 46.5738C125.471 46.5738 125.782 46.6095 126.087 46.6808C126.391 46.7456 126.66 46.859 126.894 47.0211C127.133 47.1831 127.325 47.4003 127.467 47.6725C127.616 47.9382 127.691 48.272 127.691 48.6739C127.691 49.0563 127.616 49.3836 127.467 49.6559C127.318 49.9281 127.117 50.1517 126.864 50.3267C126.618 50.5017 126.336 50.6314 126.019 50.7156C125.701 50.7934 125.374 50.8323 125.037 50.8323C125.004 50.8323 124.952 50.8323 124.881 50.8323C124.816 50.8323 124.745 50.8323 124.667 50.8323C124.589 50.8258 124.515 50.8193 124.443 50.8128C124.372 50.8064 124.32 50.7999 124.288 50.7934V52.9421ZM124.949 47.0794C124.793 47.0794 124.667 47.0827 124.57 47.0891C124.473 47.0956 124.379 47.1086 124.288 47.128V50.2781C124.32 50.2911 124.366 50.3008 124.424 50.3073C124.489 50.3073 124.554 50.3105 124.618 50.317C124.69 50.3235 124.758 50.3267 124.823 50.3267C124.887 50.3267 124.939 50.3267 124.978 50.3267C125.205 50.3267 125.419 50.2976 125.62 50.2392C125.821 50.1744 125.996 50.0739 126.145 49.9378C126.3 49.8017 126.424 49.6299 126.514 49.4225C126.605 49.2151 126.65 48.9656 126.65 48.6739C126.65 48.1424 126.498 47.7438 126.194 47.478C125.895 47.2123 125.481 47.0794 124.949 47.0794Z" fill="black"/>
<path d="M132.109 52.7768C132.057 52.887 131.976 52.9907 131.866 53.0879C131.756 53.1851 131.629 53.2694 131.487 53.3407C131.344 53.412 131.189 53.4671 131.02 53.506C130.852 53.5513 130.68 53.574 130.505 53.574C130.122 53.574 129.785 53.5157 129.494 53.399C129.202 53.2759 128.959 53.1041 128.764 52.8837C128.57 52.6569 128.421 52.3879 128.317 52.0768C128.22 51.7656 128.171 51.4156 128.171 51.0267C128.171 50.1971 128.363 49.5651 128.745 49.1309C129.127 48.6966 129.669 48.4794 130.369 48.4794C130.596 48.4794 130.819 48.5119 131.039 48.5767C131.26 48.635 131.454 48.7355 131.623 48.8781C131.798 49.0207 131.937 49.2119 132.041 49.4517C132.151 49.685 132.206 49.9767 132.206 50.3267C132.206 50.4369 132.2 50.5503 132.187 50.667C132.18 50.7772 132.164 50.8971 132.138 51.0267H129.105C129.105 51.299 129.137 51.555 129.202 51.7948C129.273 52.0282 129.377 52.2323 129.513 52.4073C129.649 52.5823 129.821 52.7217 130.028 52.8254C130.236 52.9226 130.479 52.9712 130.758 52.9712C130.984 52.9712 131.215 52.9388 131.448 52.874C131.681 52.8092 131.856 52.7249 131.973 52.6212L132.109 52.7768ZM130.33 48.9072C129.96 48.9072 129.678 49.0336 129.484 49.2864C129.289 49.5327 129.173 49.9702 129.134 50.599H131.273C131.279 50.5406 131.283 50.4855 131.283 50.4337C131.289 50.3753 131.292 50.3202 131.292 50.2684C131.292 49.8536 131.215 49.523 131.059 49.2767C130.903 49.0304 130.66 48.9072 130.33 48.9072Z" fill="black"/>
<path d="M136.814 52.7768C136.697 53.0036 136.506 53.1949 136.24 53.3504C135.981 53.4995 135.676 53.574 135.326 53.574C134.944 53.574 134.61 53.5157 134.325 53.399C134.046 53.2759 133.813 53.1041 133.625 52.8837C133.437 52.6569 133.294 52.3879 133.197 52.0768C133.106 51.7592 133.061 51.4092 133.061 51.0267C133.061 50.2036 133.262 49.5748 133.664 49.1406C134.066 48.6998 134.613 48.4794 135.307 48.4794C135.625 48.4794 135.907 48.5086 136.153 48.567C136.406 48.6188 136.62 48.6901 136.795 48.7808C136.775 48.9947 136.739 49.2346 136.688 49.5003C136.636 49.7661 136.571 49.9864 136.493 50.1614H136.231L135.822 49.0045C135.777 48.9721 135.725 48.9494 135.667 48.9364C135.608 48.917 135.511 48.9072 135.375 48.9072C134.934 48.9072 134.594 49.0693 134.354 49.3934C134.114 49.711 133.994 50.2522 133.994 51.017C133.994 51.2633 134.027 51.5031 134.092 51.7365C134.163 51.9698 134.267 52.1805 134.403 52.3684C134.545 52.5499 134.72 52.6958 134.928 52.806C135.142 52.9161 135.388 52.9712 135.667 52.9712C135.894 52.9712 136.091 52.9388 136.26 52.874C136.428 52.8092 136.571 52.7314 136.688 52.6407L136.814 52.7768Z" fill="black"/>
<path d="M139.661 53.4574H137.571V53.2143C137.694 53.143 137.807 53.0911 137.911 53.0587C138.015 53.0198 138.115 52.9939 138.212 52.981V49.0822C138.076 49.0498 137.953 49.0142 137.843 48.9753C137.733 48.9364 137.642 48.8943 137.571 48.8489V48.5961H142.753V48.8489C142.668 48.9008 142.574 48.9494 142.471 48.9947C142.367 49.0401 142.247 49.0693 142.111 49.0822V52.981C142.331 53.0198 142.545 53.0976 142.753 53.2143V53.4574H140.662V53.2143C140.727 53.1689 140.802 53.1268 140.886 53.0879C140.977 53.049 141.093 53.0134 141.236 52.981V49.0239H139.087V52.981C139.217 53.0198 139.327 53.0587 139.418 53.0976C139.509 53.1365 139.59 53.1754 139.661 53.2143V53.4574Z" fill="black"/>
<path d="M143.543 49.0822C143.446 49.0563 143.355 49.0239 143.271 48.985C143.193 48.9461 143.112 48.9008 143.028 48.8489V48.5961H145.06V48.8392C144.924 48.9299 144.739 49.0109 144.506 49.0822L145.75 51.9601L145.935 52.5629H145.955L146.1 51.9504L147.024 49.0822C146.83 49.0434 146.651 48.9656 146.489 48.8489V48.5961H148.152V48.8489C148.016 48.9396 147.831 49.0174 147.598 49.0822L146.081 53.4574C145.925 53.8722 145.776 54.206 145.634 54.4588C145.498 54.718 145.358 54.9222 145.216 55.0713C145.08 55.2204 144.937 55.3273 144.788 55.3921C144.645 55.4634 144.49 55.5153 144.321 55.5477C144.25 55.4245 144.185 55.2884 144.127 55.1393C144.075 54.9903 144.029 54.8477 143.991 54.7116L144.117 54.4782H145.128C145.167 54.4264 145.199 54.3745 145.225 54.3227C145.258 54.2773 145.29 54.219 145.323 54.1477C145.355 54.0764 145.391 53.9856 145.43 53.8754C145.468 53.7652 145.514 53.6259 145.566 53.4574L143.543 49.0822Z" fill="black"/>
<path d="M148.442 50.9101C148.442 50.0804 148.51 49.3869 148.647 48.8295C148.783 48.2656 148.987 47.8151 149.259 47.478C149.538 47.1345 149.888 46.8914 150.309 46.7488C150.73 46.6063 151.223 46.535 151.787 46.535L152.419 46.0488H152.672C152.665 46.1655 152.652 46.2919 152.633 46.428C152.613 46.5576 152.587 46.684 152.555 46.8072C152.529 46.9239 152.5 47.0276 152.467 47.1183C152.442 47.209 152.419 47.2739 152.399 47.3128C151.803 47.3128 151.298 47.3419 150.883 47.4003C150.468 47.4586 150.124 47.5785 149.852 47.76C149.58 47.9415 149.372 48.204 149.23 48.5475C149.094 48.891 149.003 49.3447 148.958 49.9087H149.006C149.084 49.7401 149.188 49.5781 149.317 49.4225C149.453 49.267 149.606 49.1309 149.774 49.0142C149.949 48.8975 150.134 48.8035 150.329 48.7322C150.523 48.6609 150.721 48.6253 150.922 48.6253C152.244 48.6253 152.905 49.4193 152.905 51.0073C152.905 51.3832 152.853 51.73 152.749 52.0476C152.646 52.3587 152.493 52.6277 152.292 52.8546C152.092 53.0814 151.848 53.2597 151.563 53.3893C151.278 53.5125 150.957 53.574 150.601 53.574C150.277 53.574 149.982 53.5157 149.716 53.399C149.45 53.2759 149.223 53.1009 149.035 52.874C148.847 52.6407 148.702 52.362 148.598 52.0379C148.494 51.7073 148.442 51.3314 148.442 50.9101ZM149.356 50.9101C149.356 51.3184 149.392 51.6652 149.463 51.9504C149.541 52.2291 149.645 52.4592 149.774 52.6407C149.904 52.8157 150.053 52.9453 150.222 53.0296C150.397 53.1074 150.578 53.1462 150.766 53.1462C151.155 53.1462 151.447 52.9712 151.641 52.6212C151.842 52.2712 151.942 51.7721 151.942 51.124C151.942 50.4628 151.816 49.98 151.563 49.6753C151.31 49.3707 150.96 49.2184 150.513 49.2184C150.345 49.2184 150.16 49.2702 149.959 49.3739C149.765 49.4776 149.599 49.617 149.463 49.792C149.431 49.954 149.405 50.1258 149.385 50.3073C149.366 50.4823 149.356 50.6832 149.356 50.9101Z" fill="black"/>
<path d="M154.305 52.6212C154.396 52.4657 154.477 52.2583 154.548 51.999C154.62 51.7397 154.678 51.4545 154.723 51.1434C154.775 50.8323 154.814 50.5082 154.84 50.1712C154.866 49.8276 154.879 49.4971 154.879 49.1795C154.749 49.1406 154.629 49.092 154.519 49.0336C154.415 48.9753 154.318 48.9137 154.227 48.8489V48.5961H158.204V48.8489C157.996 48.9656 157.783 49.0434 157.562 49.0822V52.981C157.698 53.0134 157.818 53.049 157.922 53.0879C158.026 53.1268 158.12 53.1689 158.204 53.2143V53.4574H156.114V53.2143C156.269 53.1041 156.46 53.0263 156.687 52.981V49.0239H155.404C155.397 49.3674 155.378 49.7336 155.345 50.1225C155.313 50.505 155.264 50.8841 155.2 51.2601C155.135 51.6295 155.051 51.9795 154.947 52.3101C154.843 52.6342 154.717 52.9064 154.568 53.1268C154.445 53.3148 154.312 53.4444 154.169 53.5157C154.026 53.5935 153.894 53.6194 153.77 53.5935C153.673 53.4833 153.579 53.3407 153.488 53.1657C153.404 52.9842 153.356 52.8189 153.343 52.6698L153.479 52.4268L154.305 52.6212Z" fill="black"/>
<path d="M158.962 48.5961H161.023V48.8489C160.952 48.8878 160.868 48.9267 160.77 48.9656C160.68 49.0045 160.569 49.0434 160.44 49.0822V51.7462L160.333 52.6504H160.381L160.761 51.9212L162.841 48.5961H164.154V48.8489C163.946 48.9656 163.732 49.0434 163.512 49.0822V52.981C163.635 53.0134 163.752 53.049 163.862 53.0879C163.972 53.1203 164.069 53.1624 164.154 53.2143V53.4574H162.093V53.2143C162.274 53.1106 162.469 53.0328 162.676 52.981V50.2003L162.773 49.4323H162.725L162.355 50.1614L160.294 53.4574H158.962V53.2143C159.072 53.1624 159.179 53.1203 159.283 53.0879C159.386 53.049 159.493 53.0134 159.604 52.981V49.0822C159.351 49.0434 159.137 48.9656 158.962 48.8489V48.5961Z" fill="black"/>
<path d="M167.696 48.5961H169.572V48.8489C169.507 48.9008 169.42 48.9461 169.31 48.985C169.206 49.0239 169.076 49.0693 168.921 49.1211C168.7 49.3869 168.467 49.6559 168.221 49.9281C167.974 50.2003 167.715 50.4726 167.443 50.7448C167.585 50.9003 167.735 51.0721 167.89 51.2601C168.052 51.448 168.214 51.6425 168.376 51.8434C168.538 52.0444 168.7 52.2421 168.862 52.4365C169.024 52.6309 169.183 52.8124 169.339 52.981L169.796 53.2143V53.4574H168.658L168.347 53.2337C168.055 52.8837 167.79 52.5337 167.55 52.1837C167.31 51.8337 167.067 51.4902 166.821 51.1531H166.432V52.981C166.561 53.0134 166.678 53.049 166.782 53.0879C166.892 53.1203 166.986 53.1624 167.064 53.2143V53.4574H164.915V53.2143C165.09 53.1106 165.304 53.0328 165.557 52.981V49.0822C165.33 49.0369 165.116 48.9591 164.915 48.8489V48.5961H166.908V48.8489C166.843 48.8943 166.772 48.9364 166.694 48.9753C166.623 49.0142 166.535 49.0498 166.432 49.0822V50.9003L166.879 50.8031C167.138 50.505 167.385 50.2263 167.618 49.967C167.851 49.7077 168.068 49.4258 168.269 49.1211C168.159 49.0758 168.055 49.0336 167.958 48.9947C167.867 48.9494 167.78 48.9008 167.696 48.8489V48.5961Z" fill="black"/>
<path d="M170.175 48.5961H172.236V48.8489C172.165 48.8878 172.081 48.9267 171.983 48.9656C171.893 49.0045 171.783 49.0434 171.653 49.0822V51.7462L171.546 52.6504H171.595L171.974 51.9212L174.054 48.5961H175.367V48.8489C175.159 48.9656 174.946 49.0434 174.725 49.0822V52.981C174.848 53.0134 174.965 53.049 175.075 53.0879C175.185 53.1203 175.283 53.1624 175.367 53.2143V53.4574H173.306V53.2143C173.487 53.1106 173.682 53.0328 173.889 52.981V50.2003L173.986 49.4323H173.938L173.568 50.1614L171.507 53.4574H170.175V53.2143C170.285 53.1624 170.392 53.1203 170.496 53.0879C170.6 53.049 170.707 53.0134 170.817 52.981V49.0822C170.564 49.0434 170.35 48.9656 170.175 48.8489V48.5961Z" fill="black"/>
<path d="M180.272 53.4574H178.113V53.1754C178.347 53.0717 178.58 52.9939 178.813 52.9421L181.273 46.535H181.555L184.015 52.9421C184.144 52.968 184.271 52.9972 184.394 53.0296C184.524 53.062 184.643 53.1106 184.754 53.1754V53.4574H182.265V53.1754C182.394 53.1236 182.527 53.0782 182.663 53.0393C182.799 53.0004 182.932 52.968 183.062 52.9421L182.401 51.1629H180.077L179.435 52.9421C179.708 52.981 179.986 53.0587 180.272 53.1754V53.4574ZM180.272 50.6573H182.236L181.467 48.5961L181.283 47.76H181.263L181.02 48.6156L180.272 50.6573Z" fill="black"/>
<path d="M185.149 50.9101C185.149 50.0804 185.217 49.3869 185.353 48.8295C185.489 48.2656 185.693 47.8151 185.965 47.478C186.244 47.1345 186.594 46.8914 187.015 46.7488C187.437 46.6063 187.929 46.535 188.493 46.535L189.125 46.0488H189.378C189.371 46.1655 189.358 46.2919 189.339 46.428C189.319 46.5576 189.294 46.684 189.261 46.8072C189.235 46.9239 189.206 47.0276 189.174 47.1183C189.148 47.209 189.125 47.2739 189.106 47.3128C188.509 47.3128 188.004 47.3419 187.589 47.4003C187.174 47.4586 186.831 47.5785 186.558 47.76C186.286 47.9415 186.079 48.204 185.936 48.5475C185.8 48.891 185.709 49.3447 185.664 49.9087H185.712C185.79 49.7401 185.894 49.5781 186.024 49.4225C186.16 49.267 186.312 49.1309 186.481 49.0142C186.656 48.8975 186.84 48.8035 187.035 48.7322C187.229 48.6609 187.427 48.6253 187.628 48.6253C188.95 48.6253 189.611 49.4193 189.611 51.0073C189.611 51.3832 189.559 51.73 189.456 52.0476C189.352 52.3587 189.2 52.6277 188.999 52.8546C188.798 53.0814 188.555 53.2597 188.269 53.3893C187.984 53.5125 187.663 53.574 187.307 53.574C186.983 53.574 186.688 53.5157 186.422 53.399C186.156 53.2759 185.93 53.1009 185.742 52.874C185.554 52.6407 185.408 52.362 185.304 52.0379C185.2 51.7073 185.149 51.3314 185.149 50.9101ZM186.062 50.9101C186.062 51.3184 186.098 51.6652 186.169 51.9504C186.247 52.2291 186.351 52.4592 186.481 52.6407C186.61 52.8157 186.759 52.9453 186.928 53.0296C187.103 53.1074 187.284 53.1462 187.472 53.1462C187.861 53.1462 188.153 52.9712 188.347 52.6212C188.548 52.2712 188.649 51.7721 188.649 51.124C188.649 50.4628 188.522 49.98 188.269 49.6753C188.017 49.3707 187.667 49.2184 187.219 49.2184C187.051 49.2184 186.866 49.2702 186.665 49.3739C186.471 49.4776 186.306 49.617 186.169 49.792C186.137 49.954 186.111 50.1258 186.092 50.3073C186.072 50.4823 186.062 50.6832 186.062 50.9101Z" fill="black"/>
<path d="M192.907 50.8517L194.443 52.981C194.534 53.0134 194.622 53.049 194.706 53.0879C194.797 53.1203 194.881 53.1624 194.959 53.2143V53.4574H192.966V53.224C193.056 53.1722 193.141 53.1268 193.218 53.0879C193.296 53.0425 193.374 53.0069 193.452 52.981L192.372 51.3865L191.284 52.981C191.374 53.0134 191.459 53.049 191.536 53.0879C191.614 53.1268 191.692 53.1689 191.77 53.2143V53.4574H190.107V53.2143C190.289 53.1041 190.47 53.0263 190.652 52.981L192.1 51.0462L190.642 49.0822C190.551 49.0498 190.467 49.0174 190.389 48.985C190.318 48.9461 190.243 48.9008 190.165 48.8489V48.5961H192.12V48.8392C192.042 48.891 191.964 48.9396 191.886 48.985C191.815 49.0239 191.734 49.0563 191.643 49.0822L192.654 50.5406L193.646 49.0822C193.426 49.0109 193.264 48.9332 193.16 48.8489V48.5961H194.784V48.8489C194.661 48.9332 194.479 49.0109 194.239 49.0822L192.907 50.8517Z" fill="black"/>
<path d="M199.038 52.1837C199.038 52.3263 199.041 52.4495 199.048 52.5532C199.054 52.6569 199.06 52.7671 199.067 52.8837L199.738 52.981V53.1851C199.576 53.2694 199.394 53.3439 199.193 53.4087C198.999 53.4736 198.811 53.5222 198.629 53.5546H198.386C198.322 53.4055 198.283 53.2435 198.27 53.0685C198.257 52.887 198.247 52.6893 198.241 52.4754H198.192C198.166 52.605 198.114 52.7379 198.036 52.874C197.965 53.0036 197.868 53.1203 197.745 53.224C197.628 53.3277 197.489 53.412 197.327 53.4768C197.165 53.5416 196.98 53.574 196.772 53.574C196.377 53.574 196.053 53.4541 195.8 53.2143C195.554 52.9745 195.431 52.6601 195.431 52.2712C195.431 51.9731 195.489 51.73 195.606 51.542C195.729 51.3476 195.907 51.1953 196.14 51.0851C196.374 50.9749 196.662 50.8971 197.006 50.8517C197.349 50.7999 197.748 50.761 198.202 50.7351C198.228 50.4564 198.234 50.2068 198.221 49.9864C198.215 49.7596 198.179 49.5684 198.114 49.4128C198.056 49.2508 197.965 49.1276 197.842 49.0434C197.725 48.9526 197.57 48.9072 197.375 48.9072C197.285 48.9072 197.181 48.9137 197.064 48.9267C196.954 48.9332 196.844 48.9591 196.734 49.0045L196.277 50.1712H196.024C195.959 49.9767 195.901 49.7758 195.849 49.5684C195.803 49.361 195.774 49.1568 195.761 48.9559C196.008 48.8068 196.28 48.6901 196.578 48.6058C196.883 48.5216 197.22 48.4794 197.589 48.4794C197.92 48.4794 198.182 48.5281 198.377 48.6253C198.578 48.716 198.73 48.8359 198.834 48.985C198.937 49.1341 199.005 49.2994 199.038 49.4809C199.07 49.6624 199.086 49.8438 199.086 50.0253C199.086 50.4142 199.077 50.7902 199.057 51.1531C199.044 51.5096 199.038 51.8532 199.038 52.1837ZM197.161 52.9712C197.323 52.9712 197.466 52.9388 197.589 52.874C197.712 52.8092 197.816 52.7314 197.9 52.6407C197.985 52.5499 198.053 52.4592 198.104 52.3684C198.156 52.2712 198.192 52.1902 198.211 52.1254V51.1045C197.835 51.1045 197.528 51.124 197.288 51.1629C197.048 51.2017 196.86 51.2633 196.724 51.3476C196.588 51.4318 196.494 51.5388 196.442 51.6684C196.39 51.7916 196.364 51.9342 196.364 52.0962C196.364 52.3749 196.435 52.5921 196.578 52.7476C196.721 52.8967 196.915 52.9712 197.161 52.9712Z" fill="black"/>
<path d="M201.953 53.1171C202.154 53.1171 202.326 53.0847 202.469 53.0198C202.618 52.955 202.738 52.8708 202.828 52.7671C202.919 52.6634 202.987 52.5467 203.033 52.4171C203.078 52.2809 203.101 52.1448 203.101 52.0087C203.101 51.6976 203.033 51.4869 202.896 51.3767C202.767 51.2666 202.589 51.192 202.362 51.1531L201.448 51.299C201.422 51.2147 201.406 51.1272 201.399 51.0365C201.399 50.9457 201.415 50.8582 201.448 50.774H202.44C202.498 50.748 202.556 50.7091 202.615 50.6573C202.679 50.599 202.738 50.5309 202.79 50.4531C202.848 50.3689 202.893 50.2716 202.926 50.1614C202.965 50.0513 202.984 49.9281 202.984 49.792C202.984 49.4809 202.896 49.2572 202.721 49.1211C202.553 48.9785 202.329 48.9072 202.051 48.9072C201.921 48.9072 201.801 48.917 201.691 48.9364C201.587 48.9494 201.519 48.9623 201.487 48.9753L201.049 50.0739H200.806C200.735 49.86 200.683 49.6461 200.651 49.4323C200.618 49.2184 200.599 49.0077 200.592 48.8003C200.722 48.729 200.92 48.6577 201.185 48.5864C201.451 48.5151 201.791 48.4794 202.206 48.4794C202.731 48.4794 203.136 48.5767 203.421 48.7711C203.713 48.9591 203.859 49.241 203.859 49.617C203.859 49.7725 203.827 49.9151 203.762 50.0448C203.697 50.1744 203.613 50.2911 203.509 50.3948C203.412 50.4985 203.298 50.586 203.169 50.6573C203.046 50.7286 202.922 50.7837 202.799 50.8226C203.156 50.855 203.454 50.9716 203.694 51.1726C203.934 51.367 204.053 51.6457 204.053 52.0087C204.053 52.5272 203.875 52.9194 203.519 53.1851C203.162 53.4444 202.689 53.574 202.099 53.574C201.723 53.574 201.393 53.5189 201.108 53.4087C200.829 53.2986 200.595 53.1592 200.408 52.9907L200.583 52.3393H200.777C200.861 52.43 200.955 52.5402 201.059 52.6698C201.163 52.793 201.266 52.9161 201.37 53.0393C201.506 53.0911 201.701 53.1171 201.953 53.1171Z" fill="black"/>
<path d="M204.944 48.5961H207.006V48.8489C206.934 48.8878 206.85 48.9267 206.753 48.9656C206.662 49.0045 206.552 49.0434 206.422 49.0822V51.7462L206.315 52.6504H206.364L206.743 51.9212L208.824 48.5961H210.136V48.8489C209.929 48.9656 209.715 49.0434 209.494 49.0822V52.981C209.618 53.0134 209.734 53.049 209.844 53.0879C209.955 53.1203 210.052 53.1624 210.136 53.2143V53.4574H208.075V53.2143C208.256 53.1106 208.451 53.0328 208.658 52.981V50.2003L208.756 49.4323H208.707L208.337 50.1614L206.276 53.4574H204.944V53.2143C205.055 53.1624 205.161 53.1203 205.265 53.0879C205.369 53.049 205.476 53.0134 205.586 52.981V49.0822C205.333 49.0434 205.119 48.9656 204.944 48.8489V48.5961Z" fill="black"/>
<path d="M211.141 50.0253C211.141 49.8049 211.176 49.604 211.247 49.4225C211.319 49.241 211.429 49.0855 211.578 48.9559C211.734 48.8262 211.928 48.7258 212.161 48.6545C212.401 48.5767 212.69 48.5378 213.027 48.5378C213.104 48.5378 213.211 48.541 213.348 48.5475C213.49 48.554 213.639 48.5605 213.795 48.567C213.95 48.5734 214.099 48.5799 214.242 48.5864C214.391 48.5929 214.508 48.5961 214.592 48.5961H215.292V48.8489C215.24 48.8943 215.166 48.9364 215.068 48.9753C214.978 49.0142 214.838 49.0498 214.65 49.0822V52.981C214.89 53.0523 215.104 53.13 215.292 53.2143V53.4574H213.202V53.2143C213.286 53.1624 213.373 53.1203 213.464 53.0879C213.561 53.049 213.665 53.0134 213.775 52.981V51.3379L213.066 51.4351C212.929 51.6619 212.777 51.9374 212.609 52.2615C212.44 52.5791 212.21 52.9032 211.918 53.2337L211.617 53.4574H210.518V53.2143L211.063 52.981C211.354 52.6763 211.601 52.3749 211.802 52.0768C212.003 51.7786 212.184 51.5258 212.346 51.3184C212.197 51.2925 212.051 51.2504 211.909 51.192C211.766 51.1272 211.636 51.0429 211.52 50.9392C211.41 50.829 211.319 50.6994 211.247 50.5503C211.176 50.4013 211.141 50.2263 211.141 50.0253ZM213.775 49.0239C213.691 49.0109 213.581 48.998 213.445 48.985C213.315 48.9721 213.205 48.9656 213.114 48.9656C212.712 48.9591 212.434 49.0531 212.278 49.2475C212.129 49.4355 212.054 49.685 212.054 49.9962C212.054 50.3138 212.171 50.5763 212.404 50.7837C212.644 50.9846 213.014 51.0851 213.513 51.0851H213.775V49.0239Z" fill="black"/>
<path d="M72.2534 63.7049C72.2534 63.9641 72.1951 64.1878 72.0784 64.3757C71.9617 64.5572 71.8029 64.7063 71.602 64.823C71.4076 64.9396 71.1807 65.0271 70.9214 65.0855C70.6622 65.1373 70.3899 65.1632 70.1047 65.1632C69.8973 65.1632 69.7321 65.16 69.6089 65.1535C69.4858 65.1535 69.382 65.1503 69.2978 65.1438C69.2135 65.1373 69.1422 65.1308 69.0839 65.1244C69.0256 65.1244 68.9607 65.1244 68.8894 65.1244H67.9561V64.8813C68.157 64.7776 68.3709 64.6998 68.5978 64.648V60.7492C68.3515 60.7039 68.1376 60.6261 67.9561 60.5159V60.2631H68.8311C68.9867 60.2631 69.1195 60.2631 69.2297 60.2631C69.3399 60.2566 69.4436 60.2501 69.5408 60.2437C69.6381 60.2372 69.7353 60.2339 69.8325 60.2339C69.9297 60.2275 70.0367 60.2242 70.1534 60.2242C70.7237 60.2242 71.1677 60.3117 71.4853 60.4867C71.8029 60.6553 71.9617 60.9534 71.9617 61.3812C71.9617 61.5368 71.9293 61.6761 71.8645 61.7993C71.7997 61.9224 71.7154 62.0294 71.6117 62.1201C71.508 62.2108 71.3914 62.2886 71.2617 62.3534C71.1321 62.4118 71.0057 62.4539 70.8825 62.4798C71.064 62.4928 71.2358 62.5285 71.3978 62.5868C71.5664 62.6451 71.7122 62.7261 71.8354 62.8298C71.965 62.9271 72.0655 63.0502 72.1367 63.1993C72.2145 63.3419 72.2534 63.5104 72.2534 63.7049ZM69.4728 64.7063C69.5635 64.7257 69.677 64.7355 69.8131 64.7355C69.9557 64.7355 70.0723 64.7355 70.1631 64.7355C70.5455 64.7355 70.8307 64.6544 71.0187 64.4924C71.2066 64.3239 71.3006 64.0873 71.3006 63.7826C71.3006 63.465 71.1872 63.2285 70.9603 63.0729C70.7335 62.9109 70.4418 62.8298 70.0853 62.8298H69.4728V64.7063ZM69.4728 62.5382L70.552 62.4409C70.6687 62.3826 70.7853 62.2757 70.902 62.1201C71.0251 61.9581 71.0867 61.7474 71.0867 61.4881C71.0867 61.1705 70.9895 60.9534 70.795 60.8367C70.6071 60.7136 70.3284 60.652 69.9589 60.652C69.8876 60.652 69.8066 60.6553 69.7159 60.6617C69.6251 60.6617 69.5441 60.6715 69.4728 60.6909V62.5382Z" fill="black"/>
<path d="M77.0902 64.6091C77.2652 64.6285 77.4305 64.6609 77.586 64.7063C77.7416 64.7452 77.8874 64.7905 78.0236 64.8424V65.1244H75.3596V64.8424C75.4892 64.7776 75.6221 64.729 75.7582 64.6966C75.8943 64.6642 76.0272 64.635 76.1568 64.6091V58.8436C76.0078 58.8177 75.8684 58.7853 75.7388 58.7464C75.6091 58.701 75.4828 58.6524 75.3596 58.6006V58.3186H76.2346C76.4939 58.3186 76.7758 58.3057 77.0805 58.2797C77.3851 58.2538 77.6768 58.2408 77.9555 58.2408C78.2731 58.2408 78.5842 58.2765 78.8889 58.3478C79.1935 58.4126 79.4625 58.526 79.6958 58.6881C79.9356 58.8501 80.1269 59.0672 80.2695 59.3395C80.4185 59.6052 80.4931 59.939 80.4931 60.3409C80.4931 60.7233 80.4185 61.0506 80.2695 61.3229C80.1204 61.5951 79.9194 61.8187 79.6667 61.9937C79.4204 62.1687 79.1384 62.2984 78.8208 62.3826C78.5032 62.4604 78.1759 62.4993 77.8388 62.4993C77.8064 62.4993 77.7546 62.4993 77.6833 62.4993C77.6185 62.4993 77.5472 62.4993 77.4694 62.4993C77.3916 62.4928 77.3171 62.4863 77.2458 62.4798C77.1745 62.4734 77.1226 62.4669 77.0902 62.4604V64.6091ZM77.7513 58.7464C77.5958 58.7464 77.4694 58.7496 77.3722 58.7561C77.2749 58.7626 77.1809 58.7756 77.0902 58.795V61.9451C77.1226 61.9581 77.168 61.9678 77.2263 61.9743C77.2911 61.9743 77.356 61.9775 77.4208 61.984C77.4921 61.9905 77.5601 61.9937 77.6249 61.9937C77.6898 61.9937 77.7416 61.9937 77.7805 61.9937C78.0074 61.9937 78.2213 61.9645 78.4222 61.9062C78.6231 61.8414 78.7981 61.7409 78.9472 61.6048C79.1028 61.4687 79.2259 61.2969 79.3167 61.0895C79.4074 60.8821 79.4528 60.6326 79.4528 60.3409C79.4528 59.8094 79.3004 59.4108 78.9958 59.145C78.6977 58.8793 78.2828 58.7464 77.7513 58.7464Z" fill="black"/>
<path d="M80.9736 62.6937C80.9736 62.2854 81.0255 61.9257 81.1292 61.6145C81.2394 61.2969 81.395 61.0312 81.5959 60.8173C81.7968 60.5969 82.0366 60.4316 82.3154 60.3214C82.6005 60.2048 82.9149 60.1464 83.2584 60.1464C83.6603 60.1464 84.0071 60.208 84.2987 60.3312C84.5904 60.4543 84.827 60.6293 85.0085 60.8562C85.1964 61.0766 85.3326 61.3423 85.4168 61.6534C85.5076 61.9645 85.5529 62.3113 85.5529 62.6937C85.5529 63.5104 85.3455 64.1391 84.9307 64.5799C84.5159 65.0206 83.9585 65.241 83.2584 65.241C82.8695 65.241 82.5325 65.1827 82.2473 65.066C81.9621 64.9429 81.7255 64.7711 81.5376 64.5507C81.3496 64.3239 81.207 64.0549 81.1098 63.7438C81.019 63.4262 80.9736 63.0761 80.9736 62.6937ZM81.907 62.6937C81.907 62.9854 81.9329 63.2609 81.9848 63.5201C82.0431 63.7794 82.1306 64.0063 82.2473 64.2007C82.3704 64.3887 82.5292 64.5378 82.7237 64.648C82.9181 64.7581 83.1515 64.8132 83.4237 64.8132C83.7737 64.8132 84.0589 64.6415 84.2793 64.2979C84.5062 63.9544 84.6196 63.4197 84.6196 62.6937C84.6196 62.3956 84.5904 62.1201 84.5321 61.8673C84.4802 61.6081 84.396 61.3844 84.2793 61.1965C84.1626 61.002 84.0135 60.8497 83.8321 60.7395C83.6506 60.6293 83.4334 60.5742 83.1807 60.5742C82.7982 60.5742 82.4904 60.746 82.257 61.0895C82.0237 61.433 81.907 61.9678 81.907 62.6937Z" fill="black"/>
<path d="M90.1005 64.4438C89.9838 64.6706 89.7926 64.8618 89.5269 65.0174C89.2676 65.1665 88.9629 65.241 88.6129 65.241C88.2305 65.241 87.8967 65.1827 87.6115 65.066C87.3328 64.9429 87.0995 64.7711 86.9115 64.5507C86.7235 64.3239 86.5809 64.0549 86.4837 63.7438C86.393 63.4262 86.3476 63.0761 86.3476 62.6937C86.3476 61.8706 86.5485 61.2418 86.9504 60.8076C87.3523 60.3668 87.9 60.1464 88.5935 60.1464C88.9111 60.1464 89.193 60.1756 89.4394 60.2339C89.6921 60.2858 89.906 60.3571 90.081 60.4478C90.0616 60.6617 90.0259 60.9016 89.9741 61.1673C89.9222 61.4331 89.8574 61.6534 89.7796 61.8284H89.5171L89.1088 60.6715C89.0634 60.639 89.0116 60.6164 88.9532 60.6034C88.8949 60.584 88.7977 60.5742 88.6616 60.5742C88.2208 60.5742 87.8805 60.7363 87.6407 61.0604C87.4009 61.378 87.281 61.9192 87.281 62.684C87.281 62.9303 87.3134 63.1701 87.3782 63.4035C87.4495 63.6368 87.5532 63.8475 87.6893 64.0354C87.8319 64.2169 88.0069 64.3628 88.2143 64.4729C88.4282 64.5831 88.6745 64.6382 88.9532 64.6382C89.1801 64.6382 89.3778 64.6058 89.5463 64.541C89.7148 64.4762 89.8574 64.3984 89.9741 64.3077L90.1005 64.4438Z" fill="black"/>
<path d="M94.6294 64.4438C94.5127 64.6706 94.3215 64.8618 94.0558 65.0174C93.7965 65.1665 93.4919 65.241 93.1419 65.241C92.7595 65.241 92.4256 65.1827 92.1405 65.066C91.8617 64.9429 91.6284 64.7711 91.4404 64.5507C91.2525 64.3239 91.1099 64.0549 91.0126 63.7438C90.9219 63.4262 90.8765 63.0761 90.8765 62.6937C90.8765 61.8706 91.0775 61.2418 91.4793 60.8076C91.8812 60.3668 92.4289 60.1464 93.1224 60.1464C93.44 60.1464 93.722 60.1756 93.9683 60.2339C94.2211 60.2858 94.435 60.3571 94.61 60.4478C94.5905 60.6617 94.5549 60.9016 94.503 61.1673C94.4512 61.4331 94.3863 61.6534 94.3086 61.8284H94.0461L93.6377 60.6715C93.5923 60.639 93.5405 60.6164 93.4822 60.6034C93.4238 60.584 93.3266 60.5742 93.1905 60.5742C92.7497 60.5742 92.4094 60.7363 92.1696 61.0604C91.9298 61.378 91.8099 61.9192 91.8099 62.684C91.8099 62.9303 91.8423 63.1701 91.9071 63.4035C91.9784 63.6368 92.0821 63.8475 92.2182 64.0354C92.3608 64.2169 92.5358 64.3628 92.7432 64.4729C92.9571 64.5831 93.2034 64.6382 93.4822 64.6382C93.709 64.6382 93.9067 64.6058 94.0752 64.541C94.2438 64.4762 94.3863 64.3984 94.503 64.3077L94.6294 64.4438Z" fill="black"/>
<path d="M95.386 60.2631H97.4472V60.5159C97.3759 60.5548 97.2916 60.5937 97.1944 60.6326C97.1037 60.6715 96.9935 60.7103 96.8638 60.7492V63.4132L96.7569 64.3174H96.8055L97.1847 63.5882L99.2653 60.2631H100.578V60.5159C100.37 60.6326 100.157 60.7103 99.9361 60.7492V64.648C100.059 64.6804 100.176 64.716 100.286 64.7549C100.396 64.7873 100.494 64.8294 100.578 64.8813V65.1244H98.5167V64.8813C98.6981 64.7776 98.8926 64.6998 99.1 64.648V61.8673L99.1972 61.0992H99.1486L98.7792 61.8284L96.718 65.1244H95.386V64.8813C95.4962 64.8294 95.6031 64.7873 95.7069 64.7549C95.8106 64.716 95.9175 64.6804 96.0277 64.648V60.7492C95.7749 60.7103 95.561 60.6326 95.386 60.5159V60.2631Z" fill="black"/>
<path d="M101.339 60.2631H103.4V60.5159C103.329 60.5548 103.245 60.5937 103.148 60.6326C103.057 60.6715 102.947 60.7103 102.817 60.7492V63.4132L102.71 64.3174H102.759L103.138 63.5882L105.218 60.2631H106.531V60.5159C106.324 60.6326 106.11 60.7103 105.889 60.7492V64.648C106.012 64.6804 106.129 64.716 106.239 64.7549C106.349 64.7873 106.447 64.8294 106.531 64.8813V65.1244H104.47V64.8813C104.651 64.7776 104.846 64.6998 105.053 64.648V61.8673L105.15 61.0992H105.102L104.732 61.8284L102.671 65.1244H101.339V64.8813C101.449 64.8294 101.556 64.7873 101.66 64.7549C101.764 64.716 101.871 64.6804 101.981 64.648V60.7492C101.728 60.7103 101.514 60.6326 101.339 60.5159V60.2631ZM104.032 59.6798C103.708 59.6798 103.442 59.6474 103.235 59.5825C103.028 59.5112 102.862 59.4205 102.739 59.3103C102.616 59.2001 102.529 59.0737 102.477 58.9311C102.431 58.7821 102.409 58.633 102.409 58.4839C102.512 58.3996 102.626 58.3381 102.749 58.2992C102.872 58.2603 103.002 58.2344 103.138 58.2214L103.381 58.3478V59.2131C103.472 59.252 103.579 59.2811 103.702 59.3006C103.825 59.3135 103.938 59.32 104.042 59.32C104.107 59.32 104.211 59.3135 104.353 59.3006C104.496 59.2876 104.612 59.2682 104.703 59.2423V58.3478L104.946 58.2214C105.082 58.2344 105.209 58.2635 105.325 58.3089C105.449 58.3543 105.549 58.4126 105.627 58.4839C105.627 58.633 105.601 58.7821 105.549 58.9311C105.497 59.0737 105.41 59.2001 105.286 59.3103C105.17 59.4205 105.008 59.5112 104.8 59.5825C104.599 59.6474 104.343 59.6798 104.032 59.6798Z" fill="black"/>
<path d="M111.065 64.4438C110.948 64.6706 110.757 64.8618 110.491 65.0174C110.232 65.1665 109.927 65.241 109.577 65.241C109.195 65.241 108.861 65.1827 108.576 65.066C108.297 64.9429 108.064 64.7711 107.876 64.5507C107.688 64.3239 107.545 64.0549 107.448 63.7438C107.357 63.4262 107.312 63.0761 107.312 62.6937C107.312 61.8706 107.513 61.2418 107.914 60.8076C108.316 60.3668 108.864 60.1464 109.558 60.1464C109.875 60.1464 110.157 60.1756 110.403 60.2339C110.656 60.2858 110.87 60.3571 111.045 60.4478C111.026 60.6617 110.99 60.9016 110.938 61.1673C110.886 61.4331 110.822 61.6534 110.744 61.8284H110.481L110.073 60.6715C110.028 60.639 109.976 60.6164 109.917 60.6034C109.859 60.584 109.762 60.5742 109.626 60.5742C109.185 60.5742 108.845 60.7363 108.605 61.0604C108.365 61.378 108.245 61.9192 108.245 62.684C108.245 62.9303 108.277 63.1701 108.342 63.4035C108.414 63.6368 108.517 63.8475 108.653 64.0354C108.796 64.2169 108.971 64.3628 109.178 64.4729C109.392 64.5831 109.639 64.6382 109.917 64.6382C110.144 64.6382 110.342 64.6058 110.51 64.541C110.679 64.4762 110.822 64.3984 110.938 64.3077L111.065 64.4438Z" fill="black"/>
<path d="M114.602 60.2631H116.478V60.5159C116.413 60.5677 116.326 60.6131 116.216 60.652C116.112 60.6909 115.982 60.7363 115.827 60.7881C115.606 61.0539 115.373 61.3229 115.127 61.5951C114.881 61.8673 114.621 62.1395 114.349 62.4118C114.492 62.5673 114.641 62.7391 114.796 62.9271C114.958 63.115 115.12 63.3095 115.282 63.5104C115.444 63.7114 115.606 63.909 115.769 64.1035C115.931 64.2979 116.089 64.4794 116.245 64.648L116.702 64.8813V65.1244H115.564L115.253 64.9007C114.962 64.5507 114.696 64.2007 114.456 63.8507C114.216 63.5007 113.973 63.1572 113.727 62.8201H113.338V64.648C113.468 64.6804 113.584 64.716 113.688 64.7549C113.798 64.7873 113.892 64.8294 113.97 64.8813V65.1244H111.821V64.8813C111.996 64.7776 112.21 64.6998 112.463 64.648V60.7492C112.236 60.7039 112.022 60.6261 111.821 60.5159V60.2631H113.814V60.5159C113.749 60.5613 113.678 60.6034 113.6 60.6423C113.529 60.6812 113.442 60.7168 113.338 60.7492V62.5673L113.785 62.4701C114.044 62.172 114.291 61.8932 114.524 61.634C114.757 61.3747 114.975 61.0928 115.175 60.7881C115.065 60.7428 114.962 60.7006 114.864 60.6617C114.774 60.6164 114.686 60.5677 114.602 60.5159V60.2631Z" fill="black"/>
<path d="M117.101 62.6937C117.101 62.2854 117.153 61.9257 117.256 61.6145C117.366 61.2969 117.522 61.0312 117.723 60.8173C117.924 60.5969 118.164 60.4316 118.442 60.3214C118.728 60.2048 119.042 60.1464 119.385 60.1464C119.787 60.1464 120.134 60.208 120.426 60.3312C120.717 60.4543 120.954 60.6293 121.135 60.8562C121.323 61.0766 121.46 61.3423 121.544 61.6534C121.635 61.9645 121.68 62.3113 121.68 62.6937C121.68 63.5104 121.473 64.1391 121.058 64.5799C120.643 65.0206 120.085 65.241 119.385 65.241C118.997 65.241 118.659 65.1827 118.374 65.066C118.089 64.9429 117.853 64.7711 117.665 64.5507C117.477 64.3239 117.334 64.0549 117.237 63.7438C117.146 63.4262 117.101 63.0761 117.101 62.6937ZM118.034 62.6937C118.034 62.9854 118.06 63.2609 118.112 63.5201C118.17 63.7794 118.258 64.0063 118.374 64.2007C118.497 64.3887 118.656 64.5378 118.851 64.648C119.045 64.7581 119.278 64.8132 119.551 64.8132C119.901 64.8132 120.186 64.6415 120.406 64.2979C120.633 63.9544 120.747 63.4197 120.747 62.6937C120.747 62.3956 120.717 62.1201 120.659 61.8673C120.607 61.6081 120.523 61.3844 120.406 61.1965C120.29 61.002 120.141 60.8497 119.959 60.7395C119.778 60.6293 119.56 60.5742 119.308 60.5742C118.925 60.5742 118.617 60.746 118.384 61.0895C118.151 61.433 118.034 61.9678 118.034 62.6937Z" fill="black"/>
<path d="M122.455 60.2631H124.516V60.5159C124.445 60.5548 124.361 60.5937 124.264 60.6326C124.173 60.6715 124.063 60.7103 123.933 60.7492V63.4132L123.826 64.3174H123.875L124.254 63.5882L126.334 60.2631H127.647V60.5159C127.44 60.6326 127.226 60.7103 127.005 60.7492V64.648C127.128 64.6804 127.245 64.716 127.355 64.7549C127.465 64.7873 127.563 64.8294 127.647 64.8813V65.1244H125.586V64.8813C125.767 64.7776 125.962 64.6998 126.169 64.648V61.8673L126.266 61.0992H126.218L125.848 61.8284L123.787 65.1244H122.455V64.8813C122.565 64.8294 122.672 64.7873 122.776 64.7549C122.88 64.716 122.987 64.6804 123.097 64.648V60.7492C122.844 60.7103 122.63 60.6326 122.455 60.5159V60.2631ZM125.148 59.6798C124.824 59.6798 124.558 59.6474 124.351 59.5825C124.144 59.5112 123.978 59.4205 123.855 59.3103C123.732 59.2001 123.645 59.0737 123.593 58.9311C123.547 58.7821 123.525 58.633 123.525 58.4839C123.628 58.3996 123.742 58.3381 123.865 58.2992C123.988 58.2603 124.118 58.2344 124.254 58.2214L124.497 58.3478V59.2131C124.588 59.252 124.695 59.2811 124.818 59.3006C124.941 59.3135 125.054 59.32 125.158 59.32C125.223 59.32 125.327 59.3135 125.469 59.3006C125.612 59.2876 125.728 59.2682 125.819 59.2423V58.3478L126.062 58.2214C126.198 58.2344 126.325 58.2635 126.441 58.3089C126.565 58.3543 126.665 58.4126 126.743 58.4839C126.743 58.633 126.717 58.7821 126.665 58.9311C126.613 59.0737 126.526 59.2001 126.402 59.3103C126.286 59.4205 126.124 59.5112 125.916 59.5825C125.715 59.6474 125.459 59.6798 125.148 59.6798Z" fill="black"/>
<path d="M133.096 58.3186H135.284V58.6006C135.212 58.6395 135.125 58.6783 135.021 58.7172C134.917 58.7561 134.791 58.795 134.642 58.8339V59.3298C134.765 59.2973 134.904 59.2779 135.06 59.2714C135.222 59.2649 135.355 59.2617 135.459 59.2617C135.77 59.2617 136.058 59.3168 136.324 59.427C136.596 59.5307 136.83 59.6862 137.024 59.8937C137.225 60.0946 137.38 60.3409 137.491 60.6326C137.601 60.9242 137.656 61.2548 137.656 61.6243C137.656 62.0391 137.588 62.3988 137.452 62.7035C137.316 63.0081 137.134 63.2641 136.907 63.4715C136.687 63.6725 136.434 63.8248 136.149 63.9285C135.87 64.0257 135.585 64.0743 135.293 64.0743C135.261 64.0743 135.216 64.0743 135.157 64.0743C135.099 64.0678 135.037 64.0646 134.973 64.0646C134.908 64.0581 134.846 64.0516 134.788 64.0452C134.729 64.0322 134.681 64.0192 134.642 64.0063V64.6091C134.772 64.6415 134.888 64.6771 134.992 64.716C135.096 64.7484 135.193 64.7905 135.284 64.8424V65.1244H133.096V64.8424C133.193 64.7905 133.3 64.7484 133.417 64.716C133.534 64.6771 133.657 64.6447 133.786 64.6188V64.0257C133.663 64.0452 133.527 64.0581 133.378 64.0646C133.235 64.0711 133.099 64.0743 132.97 64.0743C132.704 64.0743 132.441 64.0322 132.182 63.9479C131.923 63.8572 131.686 63.7178 131.472 63.5299C131.265 63.3419 131.097 63.0988 130.967 62.8007C130.837 62.5025 130.772 62.1428 130.772 61.7215C130.772 61.3326 130.837 60.9858 130.967 60.6812C131.097 60.3701 131.272 60.1108 131.492 59.9034C131.712 59.696 131.965 59.5372 132.25 59.427C132.542 59.3168 132.847 59.2617 133.164 59.2617C133.248 59.2617 133.352 59.2649 133.475 59.2714C133.605 59.2779 133.709 59.2876 133.786 59.3006V58.8339C133.495 58.7691 133.265 58.6913 133.096 58.6006V58.3186ZM135.167 59.7187C135.076 59.7187 134.986 59.7219 134.895 59.7284C134.811 59.7349 134.723 59.7511 134.632 59.777V63.5882C134.697 63.6012 134.778 63.6109 134.875 63.6174C134.973 63.6174 135.047 63.6174 135.099 63.6174C135.313 63.6174 135.517 63.5785 135.711 63.5007C135.912 63.4229 136.087 63.3062 136.236 63.1507C136.392 62.9886 136.515 62.7812 136.606 62.5285C136.697 62.2757 136.742 61.9743 136.742 61.6243C136.742 61.0279 136.603 60.5613 136.324 60.2242C136.052 59.8872 135.666 59.7187 135.167 59.7187ZM133.329 63.6174C133.401 63.6174 133.472 63.6174 133.543 63.6174C133.621 63.6109 133.705 63.5947 133.796 63.5688V59.7478C133.641 59.7284 133.485 59.7187 133.329 59.7187C133.122 59.7187 132.921 59.7575 132.727 59.8353C132.532 59.9131 132.357 60.0363 132.202 60.2048C132.046 60.3668 131.92 60.5742 131.822 60.827C131.732 61.0733 131.686 61.3715 131.686 61.7215C131.686 62.0261 131.728 62.2984 131.813 62.5382C131.897 62.7715 132.01 62.9692 132.153 63.1312C132.302 63.2868 132.477 63.4067 132.678 63.491C132.879 63.5752 133.096 63.6174 133.329 63.6174Z" fill="black"/>
<path d="M142.373 64.4438C142.321 64.554 142.24 64.6577 142.13 64.7549C142.019 64.8521 141.893 64.9364 141.75 65.0077C141.608 65.079 141.452 65.1341 141.284 65.173C141.115 65.2183 140.943 65.241 140.768 65.241C140.386 65.241 140.049 65.1827 139.757 65.066C139.466 64.9429 139.223 64.7711 139.028 64.5507C138.834 64.3239 138.685 64.0549 138.581 63.7438C138.484 63.4326 138.435 63.0826 138.435 62.6937C138.435 61.8641 138.626 61.2321 139.009 60.7978C139.391 60.3636 139.932 60.1464 140.632 60.1464C140.859 60.1464 141.083 60.1788 141.303 60.2437C141.524 60.302 141.718 60.4025 141.887 60.5451C142.062 60.6877 142.201 60.8789 142.305 61.1187C142.415 61.352 142.47 61.6437 142.47 61.9937C142.47 62.1039 142.463 62.2173 142.45 62.334C142.444 62.4442 142.428 62.5641 142.402 62.6937H139.368C139.368 62.966 139.401 63.222 139.466 63.4618C139.537 63.6951 139.641 63.8993 139.777 64.0743C139.913 64.2493 140.085 64.3887 140.292 64.4924C140.499 64.5896 140.743 64.6382 141.021 64.6382C141.248 64.6382 141.478 64.6058 141.712 64.541C141.945 64.4762 142.12 64.3919 142.237 64.2882L142.373 64.4438ZM140.593 60.5742C140.224 60.5742 139.942 60.7006 139.748 60.9534C139.553 61.1997 139.436 61.6372 139.398 62.2659H141.537C141.543 62.2076 141.546 62.1525 141.546 62.1007C141.553 62.0423 141.556 61.9872 141.556 61.9354C141.556 61.5206 141.478 61.19 141.323 60.9437C141.167 60.6974 140.924 60.5742 140.593 60.5742Z" fill="black"/>
<path d="M143.801 65.1244L143.364 66.5633H143.111C143.078 66.2457 143.053 65.9248 143.033 65.6008C143.02 65.2767 143.014 64.9591 143.014 64.648H143.675C143.753 64.5572 143.84 64.4146 143.937 64.2202C144.035 64.0257 144.125 63.7762 144.21 63.4715C144.3 63.1604 144.375 62.791 144.433 62.3632C144.498 61.9289 144.53 61.4233 144.53 60.8465C144.394 60.8076 144.271 60.759 144.161 60.7006C144.051 60.6423 143.95 60.5807 143.86 60.5159V60.2631H147.992V60.5159C147.817 60.6326 147.603 60.7103 147.35 60.7492V64.648H148.215C148.222 64.9591 148.215 65.2767 148.196 65.6008C148.176 65.9248 148.147 66.2457 148.108 66.5633H147.865L147.428 65.1244H143.801ZM145.065 60.7492C145.065 61.3326 145.036 61.8414 144.978 62.2757C144.919 62.7099 144.848 63.0826 144.764 63.3938C144.686 63.6984 144.602 63.9544 144.511 64.1618C144.42 64.3628 144.339 64.5248 144.268 64.648H146.475V60.7492H145.065Z" fill="black"/>
<path d="M152.836 64.4438C152.784 64.554 152.703 64.6577 152.593 64.7549C152.482 64.8521 152.356 64.9364 152.213 65.0077C152.071 65.079 151.915 65.1341 151.747 65.173C151.578 65.2183 151.407 65.241 151.231 65.241C150.849 65.241 150.512 65.1827 150.22 65.066C149.929 64.9429 149.686 64.7711 149.491 64.5507C149.297 64.3239 149.148 64.0549 149.044 63.7438C148.947 63.4326 148.898 63.0826 148.898 62.6937C148.898 61.8641 149.089 61.2321 149.472 60.7978C149.854 60.3636 150.395 60.1464 151.095 60.1464C151.322 60.1464 151.546 60.1788 151.766 60.2437C151.987 60.302 152.181 60.4025 152.35 60.5451C152.525 60.6877 152.664 60.8789 152.768 61.1187C152.878 61.352 152.933 61.6437 152.933 61.9937C152.933 62.1039 152.926 62.2173 152.913 62.334C152.907 62.4442 152.891 62.5641 152.865 62.6937H149.831C149.831 62.966 149.864 63.222 149.929 63.4618C150 63.6951 150.104 63.8993 150.24 64.0743C150.376 64.2493 150.548 64.3887 150.755 64.4924C150.963 64.5896 151.206 64.6382 151.484 64.6382C151.711 64.6382 151.941 64.6058 152.175 64.541C152.408 64.4762 152.583 64.3919 152.7 64.2882L152.836 64.4438ZM151.056 60.5742C150.687 60.5742 150.405 60.7006 150.211 60.9534C150.016 61.1997 149.9 61.6372 149.861 62.2659H152C152.006 62.2076 152.009 62.1525 152.009 62.1007C152.016 62.0423 152.019 61.9872 152.019 61.9354C152.019 61.5206 151.941 61.19 151.786 60.9437C151.63 60.6974 151.387 60.5742 151.056 60.5742Z" fill="black"/>
<path d="M155.849 67.0688H153.691V66.8258C153.911 66.7221 154.125 66.6443 154.332 66.5924V60.827L153.691 60.7492V60.4965C153.898 60.4057 154.109 60.3344 154.323 60.2826C154.543 60.2242 154.757 60.1788 154.964 60.1464H155.207V61.2354H155.217C155.347 60.9048 155.528 60.6423 155.761 60.4478C155.995 60.2469 156.299 60.1464 156.675 60.1464C157.252 60.1464 157.7 60.3377 158.017 60.7201C158.335 61.1025 158.494 61.7247 158.494 62.5868C158.494 62.9951 158.438 63.3646 158.328 63.6951C158.225 64.0257 158.072 64.3044 157.871 64.5313C157.677 64.7581 157.437 64.9331 157.152 65.0563C156.873 65.1794 156.562 65.241 156.218 65.241C155.979 65.241 155.791 65.2248 155.655 65.1924C155.518 65.1665 155.369 65.1179 155.207 65.0466V66.5924C155.311 66.6054 155.415 66.6281 155.518 66.6605C155.622 66.6994 155.732 66.7545 155.849 66.8258V67.0688ZM156.364 60.7492C156.047 60.7492 155.794 60.8497 155.606 61.0506C155.418 61.2516 155.285 61.527 155.207 61.877V64.5993C155.324 64.6706 155.454 64.7257 155.596 64.7646C155.745 64.797 155.937 64.8132 156.17 64.8132C156.384 64.8132 156.575 64.7581 156.743 64.648C156.918 64.5378 157.064 64.3822 157.181 64.1813C157.304 63.9803 157.398 63.747 157.463 63.4813C157.528 63.209 157.56 62.9109 157.56 62.5868C157.56 62.321 157.537 62.078 157.492 61.8576C157.453 61.6307 157.385 61.4363 157.288 61.2742C157.197 61.1057 157.074 60.9761 156.918 60.8853C156.769 60.7946 156.585 60.7492 156.364 60.7492Z" fill="black"/>
<path d="M162.882 63.8507C162.882 63.9933 162.886 64.1165 162.892 64.2202C162.899 64.3239 162.905 64.4341 162.911 64.5507L163.582 64.648V64.8521C163.42 64.9364 163.239 65.0109 163.038 65.0757C162.843 65.1406 162.655 65.1892 162.474 65.2216H162.231C162.166 65.0725 162.127 64.9105 162.114 64.7355C162.101 64.554 162.092 64.3563 162.085 64.1424H162.036C162.011 64.272 161.959 64.4049 161.881 64.541C161.81 64.6706 161.712 64.7873 161.589 64.891C161.473 64.9947 161.333 65.079 161.171 65.1438C161.009 65.2086 160.824 65.241 160.617 65.241C160.222 65.241 159.897 65.1211 159.645 64.8813C159.398 64.6415 159.275 64.3271 159.275 63.9382C159.275 63.6401 159.334 63.397 159.45 63.209C159.573 63.0146 159.752 62.8623 159.985 62.7521C160.218 62.6419 160.507 62.5641 160.85 62.5187C161.194 62.4669 161.592 62.428 162.046 62.4021C162.072 62.1233 162.079 61.8738 162.066 61.6534C162.059 61.4266 162.023 61.2354 161.959 61.0798C161.9 60.9178 161.81 60.7946 161.686 60.7103C161.57 60.6196 161.414 60.5742 161.22 60.5742C161.129 60.5742 161.025 60.5807 160.909 60.5937C160.798 60.6002 160.688 60.6261 160.578 60.6715L160.121 61.8382H159.868C159.804 61.6437 159.745 61.4428 159.693 61.2354C159.648 61.0279 159.619 60.8238 159.606 60.6228C159.852 60.4738 160.124 60.3571 160.423 60.2728C160.727 60.1886 161.064 60.1464 161.434 60.1464C161.764 60.1464 162.027 60.1951 162.221 60.2923C162.422 60.383 162.574 60.5029 162.678 60.652C162.782 60.8011 162.85 60.9664 162.882 61.1479C162.915 61.3293 162.931 61.5108 162.931 61.6923C162.931 62.0812 162.921 62.4572 162.902 62.8201C162.889 63.1766 162.882 63.5201 162.882 63.8507ZM161.006 64.6382C161.168 64.6382 161.31 64.6058 161.434 64.541C161.557 64.4762 161.661 64.3984 161.745 64.3077C161.829 64.2169 161.897 64.1262 161.949 64.0354C162.001 63.9382 162.036 63.8572 162.056 63.7924V62.7715C161.68 62.7715 161.372 62.791 161.132 62.8298C160.892 62.8687 160.704 62.9303 160.568 63.0146C160.432 63.0988 160.338 63.2058 160.286 63.3354C160.235 63.4586 160.209 63.6012 160.209 63.7632C160.209 64.0419 160.28 64.2591 160.423 64.4146C160.565 64.5637 160.76 64.6382 161.006 64.6382Z" fill="black"/>
<path d="M164.184 65.1244V64.8813C164.359 64.7776 164.573 64.6998 164.826 64.648V60.7492C164.579 60.7103 164.365 60.6326 164.184 60.5159V60.2631H166.274V60.5159C166.125 60.6066 165.934 60.6844 165.701 60.7492V64.6966H167.752V60.7492C167.577 60.7103 167.386 60.6326 167.178 60.5159V60.2631H169.269V60.5159C169.185 60.5613 169.091 60.6034 168.987 60.6423C168.883 60.6812 168.763 60.7168 168.627 60.7492V64.6966H169.492C169.479 65.0077 169.463 65.3188 169.444 65.6299C169.431 65.941 169.411 66.2522 169.385 66.5633H169.142L168.705 65.1244H164.184Z" fill="black"/>
<path d="M170.156 60.2631H172.217V60.5159C172.146 60.5548 172.062 60.5937 171.964 60.6326C171.874 60.6715 171.764 60.7103 171.634 60.7492V63.4132L171.527 64.3174H171.576L171.955 63.5882L174.035 60.2631H175.348V60.5159C175.14 60.6326 174.927 60.7103 174.706 60.7492V64.648C174.829 64.6804 174.946 64.716 175.056 64.7549C175.166 64.7873 175.264 64.8294 175.348 64.8813V65.1244H173.287V64.8813C173.468 64.7776 173.663 64.6998 173.87 64.648V61.8673L173.967 61.0992H173.919L173.549 61.8284L171.488 65.1244H170.156V64.8813C170.266 64.8294 170.373 64.7873 170.477 64.7549C170.581 64.716 170.688 64.6804 170.798 64.648V60.7492C170.545 60.7103 170.331 60.6326 170.156 60.5159V60.2631Z" fill="black"/>
<path d="M176.109 60.2631H178.17V60.5159C178.099 60.5548 178.015 60.5937 177.918 60.6326C177.827 60.6715 177.717 60.7103 177.587 60.7492V63.4132L177.48 64.3174H177.529L177.908 63.5882L179.988 60.2631H181.301V60.5159C181.094 60.6326 180.88 60.7103 180.659 60.7492V64.648C180.782 64.6804 180.899 64.716 181.009 64.7549C181.12 64.7873 181.217 64.8294 181.301 64.8813V65.1244H179.24V64.8813C179.421 64.7776 179.616 64.6998 179.823 64.648V61.8673L179.92 61.0992H179.872L179.502 61.8284L177.441 65.1244H176.109V64.8813C176.219 64.8294 176.326 64.7873 176.43 64.7549C176.534 64.716 176.641 64.6804 176.751 64.648V60.7492C176.498 60.7103 176.284 60.6326 176.109 60.5159V60.2631Z" fill="black"/>
</svg>
